/* XPM */
static char *_692e2a401474fa2881484208c9253dcj7HwHa8Q4Cios9C0[] = {
/* columns rows colors chars-per-pixel */
"32 32 4 1 ",
"  c #181425",
". c #262B44",
"X c #3A4466",
"o c #5A6988",
/* pixels */
"    ......  ..XXXXXXXXXX........",
"    ......  ..XXXXXXXXXX........",
"ooooooooXX  ..XXXXXXXXXX..XXoooo",
"ooooooooXX  ..XXXXXXXXXX..XXoooo",
"XXXXXXXXXXXX  ..XXXXXX....ooXXXX",
"XXXXXXXXXXXX  ..XXXXXX....ooXXXX",
"XXXXXXXXXXXX..  ......  ..XXXXXX",
"XXXXXXXXXXXX..  ......  ..XXXXXX",
"XXXXXXXXXXXX..XXooooooXX  ..XXXX",
"XXXXXXXXXXXX..XXooooooXX  ..XXXX",
"XXXXXXXXXXXX..ooXXXXXXXXXX  ..XX",
"XXXXXXXXXXXX..ooXXXXXXXXXX  ..XX",
"....XXXXXX....XXXXXXXXXXXX..    ",
"....XXXXXX....XXXXXXXXXXXX..    ",
"ooXX......  ..XXXXXXXXXXXX..  oo",
"ooXX......  ..XXXXXXXXXXXX..  oo",
"XXXXXX      ......XXXXXX....ooXX",
"XXXXXX      ......XXXXXX....ooXX",
"XXXXXX..  ..XXXXXX........  XXXX",
"XXXXXX..  ..XXXXXX........  XXXX",
"XXXXXX....XXooooooXXXX....  XXXX",
"XXXXXX....XXooooooXXXX....  XXXX",
"XXXXXX..XXooXXXXXXooooXX..  XXXX",
"XXXXXX..XXooXXXXXXooooXX..  XXXX",
"XXXXXX..XXXXXXXXXXXXXXooXX  XXXX",
"XXXXXX..XXXXXXXXXXXXXXooXX  XXXX",
"XXXXXX..XXXXXXXXXXXXXXXXXX  XXXX",
"XXXXXX..XXXXXXXXXXXXXXXXXX  XXXX",
"XXXX..  XXXXXXXXXXXXXXXXXX  ..XX",
"XXXX..  XXXXXXXXXXXXXXXXXX  ..XX",
"....    XXXXXXXXXXXXXXXXXX..  ..",
"....    XXXXXXXXXXXXXXXXXX..  .."
};
