/* XPM */
static char *ee02bab9f43d4f2fca1dca3b49be5957lNRpTqYnT6L8zOXG[] = {
/* columns rows colors chars-per-pixel */
"32 32 3 1 ",
"  c #262B44",
". c #3A4466",
"X c #5A6988",
/* pixels */
"  XXXX......XX      XXXXXX....XX",
"  XXXX......XX      XXXXXX....XX",
"XX  XXXXXXXX  XXXX  XXXX........",
"XX  XXXXXXXX  XXXX  XXXX........",
"..XX  XXXX  XXXXXXXX  XXXX......",
"..XX  XXXX  XXXXXXXX  XXXX......",
"....XX    XXXX....XXXX  XXXX....",
"....XX    XXXX....XXXX  XXXX....",
"..XXXX  XXXX........XXXX  XXXX..",
"..XXXX  XXXX........XXXX  XXXX..",
"XXXX    XXXX..........XXXX  XXXX",
"XXXX    XXXX..........XXXX  XXXX",
"        XXXX............XX      ",
"        XXXX............XX      ",
"XX        XXXX..........XX    XX",
"XX        XXXX..........XX    XX",
"..XX        XXXX......XXXX  XX..",
"..XX        XXXX......XXXX  XX..",
"..XX  XXXXXX  XXXXXXXXXX  XX....",
"..XX  XXXXXX  XXXXXXXXXX  XX....",
"XX  XXXXXXXXXX    XXXX  XX......",
"XX  XXXXXXXXXX    XXXX  XX......",
"  XXXX......XXXX      XX......XX",
"  XXXX......XXXX      XX......XX",
"XXXX..........XXXX    XXXX..XX  ",
"XXXX..........XXXX    XXXX..XX  ",
"XX............XXXX      XXXX    ",
"XX............XXXX      XXXX    ",
"XX............XXXX              ",
"XX............XXXX              ",
"XXXX........XXXX      XXXXXXXX  ",
"XXXX........XXXX      XXXXXXXX  "
};
