/* XPM */
static char *_79157dde6cd474a9cc9655ca77ffe9d57LOkdz3YBdjaZ3n[] = {
/* columns rows colors chars-per-pixel */
"32 32 5 1 ",
"  c #262B44",
". c #3A4466",
"X c #5A6988",
"o c #8B9BB4",
"O c #C0CBDC",
/* pixels */
"    ......  ..oooooooooo........",
"    ......  ..oooooooooo........",
"oooooooooo  ..XXooooooXX..XXoooo",
"oooooooooo  ..XXooooooXX..XXoooo",
"OOOOOOOOooXX  ..XXXXXX....ooooOO",
"OOOOOOOOooXX  ..XXXXXX....ooooOO",
"ooooooooooXX..  ......  ..ooOOoo",
"ooooooooooXX..  ......  ..ooOOoo",
"ooooooooooXX..XXoooooooo  ..oooo",
"ooooooooooXX..XXoooooooo  ..oooo",
"XXXXXXXXXXXX..ooOOOOOOoooo  ..XX",
"XXXXXXXXXXXX..ooOOOOOOoooo  ..XX",
"....XXXXXX....ooOOoooooooo..    ",
"....XXXXXX....ooOOoooooooo..    ",
"oooo......  ....XXooooooXX..  oo",
"oooo......  ....XXooooooXX..  oo",
"OOOOoo    ........XXXXXX....ooOO",
"OOOOoo    ........XXXXXX....ooOO",
"ooooOO  ..oooooooooooo....  oooo",
"ooooOO  ..oooooooooooo....  oooo",
"ooooOO..ooooOOOOOOOOoooo..  oooo",
"ooooOO..ooooOOOOOOOOoooo..  oooo",
"oooooo..ooOOooooooooOOooXX  oooo",
"oooooo..ooOOooooooooOOooXX  oooo",
"oooooo..XXooooooooooooOOXX  XXoo",
"oooooo..XXooooooooooooOOXX  XXoo",
"ooooXX..XXooooooooooooooXX  XXXX",
"ooooXX..XXooooooooooooooXX  XXXX",
"XXXX..  XXooooooooooooooXX  ..XX",
"XXXX..  XXooooooooooooooXX  ..XX",
"....    XXXXooooooooooooXX..  ..",
"....    XXXXooooooooooooXX..  .."
};
