/* XPM */
static char *_cfe65222c814639e22b9d9d33133537f6841rPhhww7Ry8C[] = {
/* columns rows colors chars-per-pixel */
"32 32 2 1 ",
"  c #181425",
". c #262B44",
/* pixels */
"  ............      ............",
"  ............      ............",
"..  ........  ....  ............",
"..  ........  ....  ............",
"....  ....  ........  ..........",
"....  ....  ........  ..........",
"......    ............  ........",
"......    ............  ........",
"......  ................  ......",
"......  ................  ......",
"....    ..................  ....",
"....    ..................  ....",
"        ..................      ",
"        ..................      ",
"..        ................    ..",
"..        ................    ..",
"....        ..............  ....",
"....        ..............  ....",
"....  ......  ..........  ......",
"....  ......  ..........  ......",
"..  ..........    ....  ........",
"..  ..........    ....  ........",
"  ..............      ..........",
"  ..............      ..........",
"..................    ........  ",
"..................    ........  ",
"..................      ....    ",
"..................      ....    ",
"..................              ",
"..................              ",
"................      ........  ",
"................      ........  "
};
