/* XPM */
static char *_3cd682ad7ad4ca0a83fbfb319918d27pLQhcaqT1b6UQ8Q3[] = {
/* columns rows colors chars-per-pixel */
"20 20 7 1 ",
"  c #28200C",
". c #483818",
"X c #543C1C",
"o c #5C4020",
"O c #6C4824",
"+ c #744C28",
"@ c #905C34",
/* pixels */
"OOOOOOOOOOOOOOOOOOOO",
".+@@.+O. +XX.XX+++@@",
".+@@.+O. OXX+XX++O@@",
"X.@@O+O. .XX+XX++o@@",
"+X@@+OO. .XX+XX++.@@",
"O+@@+oO. +XXoXX++.@@",
".+@@+.O. +XX.XX++.@@",
"..@@o.o. .XXOXX++X@@",
"X.@@.... .XX+XX++O@@",
"O.@@.... .XX+XX+++@@",
"XO@@.o.. oXX+XX+++@@",
"..@@o+.. +XX.XX+++@@",
"..@@++.. +XX.XX+Oo@@",
"oX@@+OX. OXXoXX+oX@@",
"OO@@X.O. .XX+XX+X.@@",
"o+@@..+. .XX+XX+..@@",
".O@@..O. OXX+XX+.o@@",
".X@@OX.. +XXoXX+.+@@",
"..@@++.. +XX.XXo.O@@",
"o.@@...o OXX.XX...@@"
};
