/* XPM */
static char *_5621d0bf0e445c4e79ef79de8ce86f9FmQOn3OI1qA1uc5x[] = {
/* columns rows colors chars-per-pixel */
"20 20 22 1 ",
"  c #202020",
". c #2C2C2C",
"X c #383838",
"o c #400000",
"O c #4C0000",
"+ c #580000",
"@ c #640000",
"# c #700000",
"$ c #7C0000",
"% c #404040",
"& c #484848",
"* c #545454",
"= c #5C5C5C",
"- c #646464",
"; c #880000",
": c #980000",
"> c #A40000",
", c #B00000",
"< c #BC0000",
"1 c #C80000",
"2 c #D40000",
"3 c #EC0000",
/* pixels */
"X&*&&X&&**&&***&X*&&",
"2>##&<>>>:>+2$;>>$+@",
"<;+#X:O;#;;o<+O#O@;o",
"XX&X&&&X&X&&&*-*&*&*",
">$>;#&,>>#>$>>##o1>>",
">#@;#&,>;#;$+@##o,>$",
".. . &X..X.  . ..&..",
"3>#>;@>>o=:>:>>#>>>o",
"<>>+>;@$o*#>#>#O>;#o",
"&.....X..&..  X. ...",
",:1X2>>>>>>>X2>>$#>#",
";:;X2>$;;>;;X2>@$>:#",
"....& .X  ..X&.X. ..",
"2;>>#@>>>>&>@>++#>#o",
"2>;>+@;>>$X>@>$;$:>o",
">@@OOOOOOO&@@@++OOOo",
"22<<<>&222<<<<>*2<<<",
":@>+@o%#>$>$>#o*@###",
":@$+#o*#>@>>@;o&@>#>",
"*X&&X&*&*&&&XX%*X&X&"
};
