/* XPM */
static char *_b44215541314a04d26f1f0f1d125f08Heho7joIIROgN8R1[] = {
/* columns rows colors chars-per-pixel */
"20 20 36 1 ",
"  c #202020",
". c #2C2C2C",
"X c #383838",
"o c #400000",
"O c #580000",
"+ c #640000",
"@ c #700000",
"# c #7C0000",
"$ c #400040",
"% c #480048",
"& c #500050",
"* c #580058",
"= c #600064",
"- c #6C0070",
"; c #484848",
": c #545454",
"> c #646464",
", c #707070",
"< c #7C7C7C",
"1 c #880000",
"2 c #980000",
"3 c #A40000",
"4 c #B00000",
"5 c #BC0000",
"6 c #D40000",
"7 c #EC0000",
"8 c #B45400",
"9 c #CC6000",
"0 c #CCC400",
"q c #840084",
"w c #8C8C8C",
"e c #989898",
"r c #A8A8A8",
"t c #B4B4B4",
"y c #C0C0C0",
"u c #D0D0D0",
/* pixels */
"X;:;;X;;::;;:::;X:;;",
"0tttttttttttttttttt0",
"5<,ryttttttttttyy,<o",
"Xtt<&*uyt:&9ty=&eyw.",
"3uw-,%%*t&&t=&%:=<rO",
"3tr%-*$%t&&t%$%=-wtO",
".t*;:=q%<&&<%-=w;et ",
"7y,&$$*&&>>&***%$eto",
"5r&*%&%-&--&q*%%%-uo",
";r&&&&&:&--&*&%%&&t ",
"4tte&&&&&&&&&%%&errO",
"1t&&&&&e&&&&>&&&*eeO",
".yy&,&&&&&&&&&&,&tt ",
"6ttt8tt&&&&&&tt8tyyo",
"6ttt888t&&&&8888tyyo",
"3tttt8t&&&&&&t8tttto",
"6tetttt&t&&t:tttt<tO",
"2O<tt@<tt>>tt<@ttOO@",
"2+#OOott@<<@tto.O3@3",
":X;;X..  <<  ..X;;X;"
};
