/* XPM */
static char *_ffb2dfb9e5e4019f3a0e1365968dddf6l9m4NAslzeMY7lS[] = {
/* columns rows colors chars-per-pixel */
"20 20 16 1 ",
"  c #000000",
". c #202020",
"X c #383838",
"o c #000040",
"O c #00004C",
"+ c #000058",
"@ c #000064",
"# c #000070",
"$ c #00007C",
"% c #000088",
"& c #000098",
"* c #0000A4",
"= c #0000B0",
"- c #0000BC",
"; c #0000C8",
": c #0000D4",
/* pixels */
"*******---------.===",
"*#$&$$+          ==$",
"*&&#%$+*-=-*& &$ **o",
"&$@$@+@**==@@ $$ $@o",
"&@$oooo*;%$$@ $+    ",
"=*%$$=-**&*#@ &$ %-=",
"%-&&$-&*&&++o $+ @-=",
"==&#+-%.=--**-+=;%-&",
"&&@#+  .-;**$$+=*@-=",
"%*@+@=*.=%**%#o=&+-&",
"*%+#o==.**$$#oo=*+-$",
"%$+o+=+.$$+@ooo=$@-*",
"     =$.--**&-$**o  ",
"*-**-*+.-:=$$$@*#o&#",
"-*&-%...=&-*@@O   %@",
"--%$*-=.*=-*+@O=*=-$",
"-*&&%-$.-$%*@+o=&=$+",
"-=$&+-$.*&*+$@o==&&o",
"=@$++=@.--@+OOo--%$o",
"%$$$$%$X%%$$$$$-$$$$"
};
