/* XPM */
static char *_897e70b91d14bd7b0e41ee97f637ed9ASBFAI1Hw1vAb3yk[] = {
/* columns rows colors chars-per-pixel */
"64 64 12 1 ",
"  c #000000",
". c #080808",
"X c #0C0C0C",
"o c #140C0A",
"O c #110E0E",
"+ c #121212",
"@ c #181215",
"# c #181A1C",
"$ c #1E2123",
"% c #242B2E",
"& c #2C373C",
"* c #4D3309",
/* pixels */
"                                                                ",
"$$$$$$$$$$$$$#$#$#$###. $$$$$$#$#$#$####  ##$#$#$$$$$$$$$$$#$#$$",
"######################. $###############  ######################",
"######################. $#&##########&##  ######################",
"################@&$###. $@##########@###  ##@&$#################",
"################@$$###. $############### .##@$$#################",
"################@@####. $###############. ##@@##################",
"######################. $############### .######################",
"$$$$$$$$$$$$$$$$$$$$$$O.$###############. $$$$$$$$$$$$$$$$$$$$$$",
"######################. $############### .######################",
"$$$$$$$$$$$$$$$$$$$$$$O.&$$$$$$$$$$$$$$$. $$$$$$$$$$$$$$$$$$$$$$",
"$$$$$$$$$$$$$$$$$$$$$$. $############### O$$$$$$$$$$$$$$$$$$$$$$",
"$$$$$$$$$$$$$$$$$$$$$$O.&$$$$$$$$$$$$$$$O.$$$$$$$$$$$$$$$$$$$$$$",
"$$$$$$$$$$$$$$$$$$$$$$O.&$$$$$$$$$$$$$$$.O$$$$$$$$$$$$$$$$$$$$$$",
"$$$$$$$$$$$$$$$$$$$$$$O.&$$$$$$$$$$$$$$$O.$$$$$$$$$$$$$$$$$$$$$$",
"$$$$$$$$$$$$$$$$$$$$$$O.&$$$$$$$$$$$$$$$.O$$$$$$$$$$$$$$$$$$$$$$",
"$$$$$$$$$$$$$$$$$$$$$$O.&$$$$$$$$$$$$$$$O.$$$$$$$$$$$$$$$$$$$$$$",
"$$$$$$$$$$$$$$$$$$$$$$..&$$$$$$$$$$$$$$$.O$$$$$$$$$$$$$$$$$$$$$$",
"$$$$$$$$$$$$$$$$$$$$$$O.&$$$$$$$$$$$$$$$OO$$$$$$$$$$$$$$$$$$$$$$",
"$$$$$$$$$$$$$$$$$$$$$$..&$$$$$$$$$$$$$$$.O$$$$$$$$$$$$$$$$$$$$$$",
"$$$$$$$$$$$$$$$$$$$$$$O.&$$$$$$$$$$$$$$$OO$$$$$$$$$$$$$$$$$$$$$$",
"$$$$$$$$$$$$$$$$$$$$$$..$$$$$$$$$$$$$$$$.O$$$$$$$$$$$$$$$$$$$$$$",
"$$$$$$$$$$$$$$$$$$$$$$O.&$$$$$$$$$$$$$$$OO$$$$$$$$$$$$$$$$$$$$$$",
"$$$$$$$$$$$$$$$$$$$$$$..$$$$$$$$$$$$$$$$.O$$$$$$$$$$$$$$$$$$$$$$",
"$$$$$$$$$$$$$$$$$$$$$$..&$$$$$$$$$$$$$$$.O$$$$$$$$$$$$$$$$$$$$$$",
"$$$$$$$$$$$$$$$$$$$$$$..$$$$$$$$$$$$$$$$.O$$$$$$$$$$$$$$$$$$$$$$",
"$$$$$$$$$$$$$$$$$$$$$$..&$$$$$$$$$$$$$$$.O$$$$$$$$$$$$$$$$$$$$$$",
"$$$$$$$$$$$$$$$$$$$$$$..$$$$$$$$$$$$$$$$OO$$$$$$$$$$$$$$$$$$$$$$",
"*********************$..$$$$$$$$$$$$$$$$.O$*********************",
"*********************$..$$$$$$$$$$$$$$$$OO$*********************",
"*********************$..$**************$.O$*********************",
"*********************$.O$**************$OO$*********************",
"$$$$$$$$$$$$$$$$$$$$$$O.$**************$OO$$$$$$$$$$$$$$$$$$$$$$",
"$$$$$$$$$$$$$$$$@&#$$$.O$**************$OO$$@&#$$$$$$$$$$$$$$$$$",
"$$$$$$$$$$$$$$$$@##$$$O.$$$$$$$$$$$$$$$$OO$$@##$$$$$$$$$$$$$$$$$",
"$$$$$$$$$$$$$$$$@@$$$$.O$$$$$$$$$$$$$$$$OO$$@@$$$$$$$$$$$$$$$$$$",
"$$$$$$$$$$$$$$$$$$$$$$OO$$&$$$$$$$$$$&$$OO$$$$$$$$$$$$$$$$$$$$$$",
"&&&&&&&&&&&&&&&&&&&$&$OO$@$$$$$$$$$$@$$$OO$&$&&&&&&$&$&$&$&&&&&&",
"                       O$$$$$$$$$$$$$$$$O                       ",
"                        $$&&&&&&&&&&$&$$                        ",
"X. .X...X. .X...X. .X.                     .X...X. .X...X. .X...",
"+. ++X.++. ++X.++. ++X.                  . ++X.++. ++X.++. ++X.+",
"+. ++XX++. ++XX++. ++XX+.. .X...X. .X...X. ++XX++. ++XX++. ++XX+",
"+. ++XX++. ++XX++. ++XX++. ++XX++. ++XX++. ++XX++. ++XX++. ++XX+",
"+X.++XX++X.++XX++X.++XX++X.++XX++X.++XX++X.++XX++X.++XX++X.++XX+",
"+. ++XX++. ++XX++. ++XX++. ++XX++. ++XX++. ++XX++. ++XX++. ++XX+",
"+X.++XX++X.++XX++X.++XX++X.++XX++X.++XX++X.++XX++X.++XX++X.++XX+",
"+X ++XX++X ++XX++X ++XX++X ++XX++X ++XX++X ++XX++X ++XX++X ++XX+",
"+X.++XX++X.++XX++X.++XX++X.++XX++X.++XX++X.++XX++X.++XX++X.++XX+",
"+X.++XX++X.++XX++X.++XX++X.++XX++X.++XX++X.++XX++X.++XX++X.++XX+",
"+..++XX++..+XXX++..++XX++..+XXX++..++XX++..+XXX++..++XX++..+XXX+",
"+X.++XX++X.++XX++X.++XX++X.++XX++X.++XX++X.++XX++X.++XX++X.++XX+",
"X. +XXX+X. +XXX+X. +XXX+X. +XXX+X. +XXX+X. +XXX+X. +XXX+X. +XXX+",
"+..X+XX++..X+XX++..X+XX++..X+XX++..X+XX++..X+XX++..X+XX++..X+XX+",
"X. +XX.+X. +XX.+X. +XX.+X. +XX.+X. +XX.+X. +XX.+X. +XX.+X. +XX.+",
"X  XX. XX  XX. XX  XX. XX  XX. XX  XX. XX  XX. XX  XX. XX  XX. X",
"&&&&&&&&&%&&&&%&%&%&%&%%%%%%&%&%&%&&&&&&&&&&&&&&&&&&&&&&&%&&&&%&",
"$$$$$$$$#$$$$$$$$$$$$$$$$#$$$$$$$$$$$$$#$#$$$$$$#$#$$$$$#$$$$$$$",
"$#$$$$$#$$$$$$$$$$$$$$$##$$$$$$$$$$$$$$$#$$$$$$$$#$$$$$#$$$$$$$$",
"#$$&#$$$$$$&#$$$$$$&#$$#$$$&#$$$$$$&#$$#$$$&#$$$#$$&#$$$$$$&#$$$",
"$$@##$$$$$@##$$$$$@##$#$#$@##$$$$$@##$$$$$@##$$#$$@##$$$$$@##$$#",
"#$@@$$$$$$@@$$$$$$@@$$$#$$@@$$$$$$@@$$$$$$@@$$##$$@@$$$$$$@@$$#$",
"$$$$$$$$$$$$$$$$$$$$$$#$$$$$$$$$$$$$#$$$$$$$$$#$$$$$$$$$$$$$$#$#",
"@oooooo@o@o@@@@@@@o@o@.@.@....@.@@@@@@@@o@o@@o@o@oooooo@o@o@@@@@"
};
