/* XPM */
static char *_d2f6ef7fc724e0cdc31011aea75a6e2UNrRlyH3YFn9l3ek[] = {
/* columns rows colors chars-per-pixel */
"32 32 26 1 ",
"  c #25131A",
". c #3D253B",
"X c #802954",
"o c #606060",
"O c #9BF0FD",
"+ c #9B4C51",
"@ c #56587B",
"# c #E84444",
"$ c #D01946",
"% c #E6DECA",
"& c #FFD569",
"* c #2A5A39",
"= c #9A8571",
"- c #BBC44E",
"; c white",
": c #E1A171",
"> c #BF704D",
", c #CAE6F5",
"< c #62ABD4",
"1 c #5880CC",
"2 c #523B40",
"3 c #A7ACBA",
"4 c #80A53F",
"5 c #895A45",
"6 c #427F3B",
"7 c black",
/* pixels */
"1@@1<<OO<1@@1@oooo<1@@@11111@@@1",
"@111@1<O<<1@112222<11111111111@@",
"1111111111oooo==66oooo1111111111",
"11111111<<222o==6662221111111111",
"111111<11@64==%%6666===@11111111",
"111<<<<@266433%%6666=3=2<<111111",
"<<OO<1o66664%%%%3333%%3==<<O<11<",
"<111<=266664%%%%%%%%%%%3=2=OOO<<",
"1@@11=2664-3%%%%%%%%%%3==2@11@@@",
"@@@@@=266-%%%%%%%%%%%%-662@@@@@@",
"@@@oo=o443%%%%%%%%%%%%3666ooo@@@",
"111@2==3%%%%%%%%%%%%%%3666622@11",
"@11@2==%%%%%%%%%%%%%%%346662o11@",
"111@2=3%%%33666633%%%%%3=662o111",
"111o2=3%%%3=666633%%%%%3=662o111",
"1o2==33%%366666666%%%%%%%3333221",
"1o2==33%%366666666%%%%%%%3333221",
"1o266=333=66666666%%%%%%%%%%%221",
"<o2**=333=66666666%%%%%%%%%%%22<",
"1o2**=33333=666633%%%%%%%%%33221",
"@o2**=333333666633%%%%%%%%%3=22@",
"@o@o*==33333=333%%%%%%%%%====@@@",
"1@@o2==3333333%%%%%%%%%%36622@11",
"@@@@2=======33%%%%%%%%%34662o111",
"111@2==46664333333%%%%-66662o111",
"111====66666==3333%%%%=6666==111",
"11111=2******6333333334662@11111",
"<<<<<3@o*****63333333=466@=1111<",
"<<1@@1112222*6======o222@O<1111<",
"1@@@@@@@2ooo**======o222@<<<OOO<",
"<1111111<<1<222222221@@@@@111<<<",
"<<<<111<<1@o22222222@@@@@@@@@@11"
};
