/* XPM */
static char *d605759d69d54810f8b4e92658717944qhGrdWuk6AKxEVwo[] = {
/* columns rows colors chars-per-pixel */
"32 32 26 1 ",
"  c #25131A",
". c #3D253B",
"X c #802954",
"o c #606060",
"O c #9BF0FD",
"+ c #9B4C51",
"@ c #56587B",
"# c #E84444",
"$ c #D01946",
"% c #E6DECA",
"& c #FFD569",
"* c #2A5A39",
"= c #9A8571",
"- c #BBC44E",
"; c white",
": c #E1A171",
"> c #BF704D",
", c #CAE6F5",
"< c #62ABD4",
"1 c #5880CC",
"2 c #523B40",
"3 c #A7ACBA",
"4 c #80A53F",
"5 c #895A45",
"6 c #427F3B",
"7 c black",
/* pixels */
"1@@1<<OO<1@@1@@11<<1@@@11111@@@1",
"@111@1<O<<1@11111<o@1111111111@@",
"111111111<<11@o1<122o@1111111111",
"11111111<OO@<o222==o211111111111",
"111111<<OO<2266=o==66o@111111111",
"111<<<<1@2*666=33%366222o<111111",
"<<OO<1@@22666*3%%%3*66o=@OOO<11<",
"<111<<1@22664*%%%%%=6*=3=o3OOO<<",
"1@@111@@22*4%%%%%%%%%%%3o <11@@@",
"@@@@@o25=333%%%%%%%%%%%%33@@@@@@",
"@@@@@o2==%%%%%%%%%%%%%%%332o@@@@",
"11111oo33%%%%%%%%%%%%%%=6o.@@@11",
"@1@25==33%%3343%%%%%%%%46221111@",
"11@2==33%%33=***=3%%%%%666211111",
"11o2*633%%4*666633%%%%366662@111",
"11o2*o33336666666o%%%%33=662@111",
"1@2**=3333*6666666%%%%3366221111",
"11@**33333=666666=%%%%%%3=o2<<<1",
"<<Oo2=33333o6666*3%%%%%%3333@1<<",
"111oo==333366*633%%%%%%%%33=.o@1",
"@@o25==3333333=33%%%%%%%%%%o2@@@",
"@@o2==66o=33%%%%%%%%%%%%%%%22@@@",
"1@@@oo666*333%%%%%%%%%%%%33.2@11",
"@@@122***6333333%%%%%%=4=3=.@111",
"11111@**** =3333%%%%3%66..111111",
"11111o222**33333%%%%**6622111111",
"11111@222**=3333333=66662@111111",
"<<<<<<<<<**=====33366223@111111<",
"<<1@@11<122o5==== 22622<<O<1111<",
"1@@@@@@1@o22222o@o22@1@11<<<OOO<",
"<1111111<<11@o22<OO<1@@@@@111<<<",
"<<<<111<<1@@@1<1OOO<@@@@@@@@@@11"
};
