/* XPM */
static char *_c97f8dbaeb04a70c7130381bb0f3d68ufkdIjhG394rAkuo[] = {
/* columns rows colors chars-per-pixel */
"32 32 26 1 ",
"  c #25131A",
". c #3D253B",
"X c #802954",
"o c #606060",
"O c #9BF0FD",
"+ c #9B4C51",
"@ c #56587B",
"# c #E84444",
"$ c #D01946",
"% c #E6DECA",
"& c #FFD569",
"* c #2A5A39",
"= c #9A8571",
"- c #BBC44E",
"; c white",
": c #E1A171",
"> c #BF704D",
", c #CAE6F5",
"< c #62ABD4",
"1 c #5880CC",
"2 c #523B40",
"3 c #A7ACBA",
"4 c #80A53F",
"5 c #895A45",
"6 c #427F3B",
"7 c black",
/* pixels */
"1@@1<<OO<1@@1@@11<<1@@@11111@@@1",
"@111@1<O<<1@@o111<<11111111111@@",
"111111111<@o221<1o@<111111111111",
"11111111<O<oo66o22o<@11111111111",
"111111<<<1o==6626332 <1111111111",
"111<<<<oo2.=3466*33===o<O<111111",
"<<OO<1@o*=3%%3*43%%%33.@<OOO<11<",
"<111<1266=33%%%%%%%%=o22<OOOOO<<",
"1@@11<226o%%%%%%%%%%4622<@111@@@",
"@@@@@o666*%%%%%%%%%%3*6662@@@@@@",
"@@@@o26643%%%%%%%%%%%*66622@@@@@",
"1111@26*3%%%%%%%%%%%%3366..1@@11",
"@111122*=%%%%%%%%%%%%33=o=3=.@1@",
"11111o=%%%%%%3=33%%%%%%%3333.o11",
"111@2==%%%3=***=33%%%%%%3%%%2211",
"111@2o33%%33666666%%%%%%%%%%=.11",
"1111oo33%%=666666*%%%%%%%%%3=.@1",
"111<o233%%4666666*3%%%%%%%%33@<1",
"<<<@==33%%=666666o3%%%%%%3=o.<<<",
"11@25==3333*6666633%%%%%%4*22@@1",
"@@@o2**33333366*63%%%%%%%=6622@@",
"@@@o2**333333==3%%%%%%%%**662o@@",
"1@@o2**333333333%%%3%%%%6662@@11",
"@@@1o2*o==3333333333%%%3o6221111",
"111111o2==3=o63333333333=6@11111",
"111111o2==6666===333333o22211111",
"111111@25=o*****o333===.22@11111",
"<<<<<<1@322******======11111111<",
"<<1@@11<<2o*222**==5o221<O<1111<",
"1@@@@@@11<<@22o@222222211<<<OOO<",
"<1111111<<1<1<<<22o<1@@@@@111<<<",
"<<<<111<<1@@@1<<<OO<@@@@@@@@@@11"
};
