/* XPM */
static char *e87f2dff8ba44957b54e3a398c07599baZwnkZFnGUKZn0W4[] = {
/* columns rows colors chars-per-pixel */
"32 32 26 1 ",
"  c #25131A",
". c #3D253B",
"X c #802954",
"o c #606060",
"O c #9BF0FD",
"+ c #9B4C51",
"@ c #56587B",
"# c #E84444",
"$ c #D01946",
"% c #E6DECA",
"& c #FFD569",
"* c #2A5A39",
"= c #9A8571",
"- c #BBC44E",
"; c white",
": c #E1A171",
"> c #BF704D",
", c #CAE6F5",
"< c #62ABD4",
"1 c #5880CC",
"2 c #523B40",
"3 c #A7ACBA",
"4 c #80A53F",
"5 c #895A45",
"6 c #427F3B",
"7 c black",
/* pixels */
"1@@1<<OO<1@@1@@11<<1@@@11111@@@1",
"@111@1<O<<1@11111<<11111111111@@",
"111111111<<1111<<<<<111111111111",
"11111111133=@<<<<1<<<11111111111",
"111111<13;;;%%=o@111<<1111111111",
"111<<<<@;;;;;;;%3o@@@1<OO<111111",
"<<OO<1@3;;;;;;;%%%%3o@@1<OOO<11<",
"<111<<@%%;;;%%%%%%%%%%=o<OOOOO<<",
"1@@11<=%%%%%%%%%%%%%%%%%%3111@@@",
"@@@@@@3%%%;%%%%%%%%%%%%%%%%3o@@@",
"@@@@@o%%;;;;;%%%%%%%%%%%%%%%3@@@",
"11111=%;%%%%%;%%%%%%%%%%%%%%%o11",
"@1111%%%%%%%%%;%%%%%%%%%%%%%%@1@",
"1111@%%&-5>&%%;%%%%;;;%%%%%%%@11",
"1111=%&2777 &%%%%%;;;;;;%%%%3111",
"1111%%4777775%%%%;%%%%%;;%%%@111",
"111@%%2777772%%%%%%%%%%%;%%%1111",
"1111%%5777772%%%%%>55-%%%%%=<<<1",
"<<O<=%-77777-%%%%577774%%%&@1<<<",
"1111<=%-272-%%%%:777777&&&:@@@@1",
"@@@@@:&&&&&&%%%%-777777-&&=@@@@@",
"@@@@@&&&&&&&&-&&-777777&&&o@@@@@",
"1@@@@&&&&&&&:75&&577774&&:1@@@11",
"@@@11=&=@:&&&-:&&&>25-&&&=@@1111",
"111111@@1=%&:&&&&&&&&&&&:1111111",
"111111111@:=1=&&&&&&&:=@11111111",
"111111111<<1<=%:o:&&&=1111111111",
"<<<<<<<<OO<11@oo@=&&:O<<1111111<",
"<<1@@11<<<1@@@111o:=111<<O<1111<",
"1@@@@@@11<<<1111111<<1@11<<<OOO<",
"<1111111<<1<<<<<<OOO1@@@@@111<<<",
"<<<<111<<1@@@1<<OOO<@@@@@@@@@@11"
};
