/* XPM */
static char *_b2a553577b84b658ab514a9adea5889mxrs2uTHzZarmdlL[] = {
/* columns rows colors chars-per-pixel */
"32 32 26 1 ",
"  c #25131A",
". c #3D253B",
"X c #802954",
"o c #606060",
"O c #9BF0FD",
"+ c #9B4C51",
"@ c #56587B",
"# c #E84444",
"$ c #D01946",
"% c #E6DECA",
"& c #FFD569",
"* c #2A5A39",
"= c #9A8571",
"- c #BBC44E",
"; c white",
": c #E1A171",
"> c #BF704D",
", c #CAE6F5",
"< c #62ABD4",
"1 c #5880CC",
"2 c #523B40",
"3 c #A7ACBA",
"4 c #80A53F",
"5 c #895A45",
"6 c #427F3B",
"7 c black",
/* pixels */
"1@@1<<OO<1@@>&&&&&&>o@@11111@@@1",
"@111@1<O<5%%%&&&&&&&&;%3111111@@",
"1111111=>>%%%>=====&;;;;;1111111",
"111112=>>>==5......5==;;;;=11111",
"11112>>>>5............=;;;;>1111",
"1112>>>5................%;;&=111",
"<<O=>>>..................%&&%11<",
"<1=>>5....................&;;;<<",
"1o>>>......................;;;3@",
"@5>>5......................=;;%@",
"@>>5........................=&&@",
"1>>5........................=&&1",
"5>>5........................5&&=",
"==5..........................=%%",
"==5..........................=%%",
"==5..........................5>>",
"==5..........................5>>",
"==5..........................5>>",
"552..........................5>>",
"2552........................2>>5",
"@552........................5>>@",
"@552........................5>>@",
"12552......................5>>51",
"@@555......................>>>11",
"115555....................5>>=11",
"1115555..................>>>=111",
"11125555................5>>>2111",
"<<<<255552............5>>>>2111<",
"<<1@@25555222......225>>>=21111<",
"1@@@@@@555555222555===>>=<<<OOO<",
"<1111111<25555555=====5o@@111<<<",
"<<<<111<<1@@25555==5@@@@@@@@@@11"
};
