/* XPM */
static char *result[] = {
/* columns rows colors chars-per-pixel */
"32 32 26 1 ",
"  c #25131A",
". c #3D253B",
"X c #802954",
"o c #606060",
"O c #9BF0FD",
"+ c #9B4C51",
"@ c #56587B",
"# c #E84444",
"$ c #D01946",
"% c #E6DECA",
"& c #FFD569",
"* c #2A5A39",
"= c #9A8571",
"- c #BBC44E",
"; c white",
": c #E1A171",
"> c #BF704D",
", c #CAE6F5",
"< c #62ABD4",
"1 c #5880CC",
"2 c #523B40",
"3 c #A7ACBA",
"4 c #80A53F",
"5 c #895A45",
"6 c #427F3B",
"7 c black",
/* pixels */
"1@@1<<OO<1@@3,,,,,,3@@@11111@@@1",
"@111@1<O<o%%%,,,,,,,,;33111111@@",
"1111111333%%%333333,;;;;,1111111",
"11111@3333==o......o33;;;,311111",
"1111@3333o............=;;;;31111",
"111@333=.....oooooo.....%;;,3111",
"<<O3333......oooooo......,,,,11<",
"<1333=.....oo==3333oo.....3;;;<<",
"1@333......oo==3333oo......;;;3@",
"@o33o....oo==......33oo....=;;%@",
"@33o.....oo==......33oo.....=,,@",
"133o.....oo33......==oo.....=,,1",
"o33o.....oo33......==oo.....o,,3",
"==o......oo==3333====oo......=%%",
"==o......oo==3333====oo......=%%",
"==o....oo3333%%2233====oo....=33",
"==o....oo3333%%2233====oo....=33",
"==o....oo333322..223333oo....=33",
"oo2....oo333322..223333oo....=33",
"2oo2...oo33333322%%3333oo...o33=",
"@oo2...oo33333322%%3333oo...o33@",
"@oo2...oo33333322333333oo...o33@",
"12oo2..oo33333322333333oo..o33o1",
"@@ooo..oo==3333333333==oo..33311",
"11@ooo.oo==3333333333==oo.=33311",
"111@ooo..oooooooooooooo..3333111",
"111@oooo.oooooooooooooo.=333@111",
"<<<<@oooo2............o3333@111<",
"<<1@@@@ooo222......2oo3333@1111<",
"1@@@@@@@ooooo222ooo===333<<<OOO<",
"<1111111<2ooooooo======@@@111<<<",
"<<<<111<<1@@2oooo==o@@@@@@@@@@11"
};
