/* XPM */
static char *result[] = {
/* columns rows colors chars-per-pixel */
"32 32 26 1 ",
"  c #25131A",
". c #3D253B",
"X c #802954",
"o c #606060",
"O c #9BF0FD",
"+ c #9B4C51",
"@ c #56587B",
"# c #E84444",
"$ c #D01946",
"% c #E6DECA",
"& c #FFD569",
"* c #2A5A39",
"= c #9A8571",
"- c #BBC44E",
"; c white",
": c #E1A171",
"> c #BF704D",
", c #CAE6F5",
"< c #62ABD4",
"1 c #5880CC",
"2 c #523B40",
"3 c #A7ACBA",
"4 c #80A53F",
"5 c #895A45",
"6 c #427F3B",
"7 c black",
/* pixels */
"1@@1<<OO<1@@3,,,,,,3@@@11111@@@1",
"@111@1<O<o%%%,,,,,,,,;33111111@@",
"1111111333%%%333333,;;;;,1111111",
"11111@3333==o......o33;;;,311111",
"1111@3333o............=;;;;31111",
"111@333=................%;;,3111",
"<<O3333..................,,,,11<",
"<1333=....................3;;;<<",
"1@333......................;;;3@",
"@o33o......................=;;%@",
"@33o........................=,,@",
"133o........................=,,1",
"o33o........................o,,3",
"==o..........................=%%",
"==o..........................=%%",
"==o..........................=33",
"==o..........................=33",
"==o..........................=33",
"oo2..........................=33",
"2oo2........................o33=",
"@oo2........................o33@",
"@oo2........................o33@",
"12oo2......................o33o1",
"@@ooo......................33311",
"11@ooo....................=33311",
"111@ooo..................3333111",
"111@oooo................=333@111",
"<<<<@oooo2............o3333@111<",
"<<1@@@@ooo222......2oo3333@1111<",
"1@@@@@@@ooooo222ooo===333<<<OOO<",
"<1111111<2ooooooo======@@@111<<<",
"<<<<111<<1@@2oooo==o@@@@@@@@@@11"
};
