/* XPM */
static char *result[] = {
/* columns rows colors chars-per-pixel */
"32 32 26 1 ",
"  c #25131A",
". c #3D253B",
"X c #802954",
"o c #606060",
"O c #9BF0FD",
"+ c #9B4C51",
"@ c #56587B",
"# c #E84444",
"$ c #D01946",
"% c #E6DECA",
"& c #FFD569",
"* c #2A5A39",
"= c #9A8571",
"- c #BBC44E",
"; c white",
": c #E1A171",
"> c #BF704D",
", c #CAE6F5",
"< c #62ABD4",
"1 c #5880CC",
"2 c #523B40",
"3 c #A7ACBA",
"4 c #80A53F",
"5 c #895A45",
"6 c #427F3B",
"7 c black",
/* pixels */
"1@1111,;@@@1@11111<1@@11111<<<<1",
"@@1113,,==@11<311333@@<33<111O<1",
"@1113;36;,@@1,;33;;;3@,;;,111O<@",
"@1113;36%%333%%,,%%%33%%%%3<1O1@",
"11113;3663;;;3.%%...%;=..=;31<1@",
"11113;36==333=233222=3o22o3%,<1@",
"11113;36:=66.22..2222.2222.%;3@@",
"11113;36:::=662...*6*...222o=%;@",
"111<,;36:::=6622..***2..2222.%;@",
"@13;%66664:=6622222.*6*.2222.%;@",
"@,,%36666o==6622266666*.2222.%;@",
"@;;66666 *666622266666*.2222.%;@",
"1;;66666 *6666622ooo66*.2222.%;<",
"<;;66666   666662222o6*.2222.%;O",
"<;;666666666666o2.22oo2..222.%;O",
"1;;666666666666o2 22222..222.%;O",
"1;;666666666666o2 22222......%;<",
"@;;666666666666o2.22oo2......%;<",
"@;;66666   666662222o6*.22...%;1",
"1;;66666 *6666622ooo66*.222..%;@",
"@;;66666 *666622266666*.2222.%;@",
"@,,%36666o==6622266666*.2222.%;@",
"1<3;%66664:=662..22.*6*.2222.%;1",
"<<1<,;36:::=66....***2222222.%;<",
"OO11,;36:::==o....*6*.22222o=%;<",
"O<11,;36:=63;3.222222.2222.%;311",
"<1113;36==3%,%3o2222=3o22o3%,=11",
"<@113;3663;,1,;=....%;=..=;,@@11",
"11113;36%%33133%%%%%33%%%%3<@@1<",
"@1113;36;,@1111;;;;;3@,;;,1<1@1<",
"@11113;,==@1111<3333@@=33<1<<@1<",
"1@1111,;1@@1@11111<1@@1@111<<1<<"
};
