/* XPM */
static char *result[] = {
/* columns rows colors chars-per-pixel */
"32 32 26 1 ",
"  c #25131A",
". c #3D253B",
"X c #802954",
"o c #606060",
"O c #9BF0FD",
"+ c #9B4C51",
"@ c #56587B",
"# c #E84444",
"$ c #D01946",
"% c #E6DECA",
"& c #FFD569",
"* c #2A5A39",
"= c #9A8571",
"- c #BBC44E",
"; c white",
": c #E1A171",
"> c #BF704D",
", c #CAE6F5",
"< c #62ABD4",
"1 c #5880CC",
"2 c #523B40",
"3 c #A7ACBA",
"4 c #80A53F",
"5 c #895A45",
"6 c #427F3B",
"7 c black",
/* pixels */
"<<1<<111@1@@1<11111@1@@1;,1111@1",
"<1@<<1<33=@@3333<1111@==,;31111@",
"<1@1<1,;;,@3;;;;;1111@,;63;3111@",
"<1@@<3%%%%33%%%%%33133%%63;31111",
"11@@,;=..=;%....=;,1,;3663;311@<",
"11=,%3o22o3=2222o3%,%3==63;3111<",
"113;%.2222.222222.3;36=:63;,11<O",
"<;%=o22222.*6*....o==:::63;,11OO",
"<;%.2222222***....66=:::63;,<1<<",
"1;%.2222.*6*.22..266=:46666%;3<1",
"@;%.2222.*6666622266==o66663%,,@",
"@;%.2222.*666662226666* 66666;;@",
"@;%..222.*66ooo2266666* 66666;;1",
"1;%...22.*6o222266666   66666;;@",
"<;%......2oo22.2o666666666666;;@",
"<;%......22222 2o666666666666;;1",
"O;%.222..22222 2o666666666666;;1",
"O;%.222..2oo22.2o666666666666;;<",
"O;%.2222.*6o222266666   66666;;<",
"<;%.2222.*66ooo2266666* 66666;;1",
"@;%.2222.*666662226666* 66666;;@",
"@;%.2222.*6666622266==o66663%,,@",
"@;%.2222.*6*.2222266=:46666%;31@",
"@;%.2222..2***..2266=:::63;,<111",
"@;%=o222...*6*...266=:::63;31111",
"@@3;%.2222.2222..22.66=:63;31111",
"@1<,%3o22o3=222332=333==63;31111",
"@1<13;=..=;%...%%.3;;;3663;31111",
"@1O1<3%%%%33%%%,,%%333%%63;3111@",
"@<O111,;;,@3;;;33;,1@@,;63;3111@",
"1<O111<33<@@333113<11@==,,3111@@",
"1<<<<11111@@1<11111@1@@@;,1111@1"
};
