/* XPM */
static char *result[] = {
/* columns rows colors chars-per-pixel */
"32 32 7 1 ",
"  c #3D253B",
". c #523B40",
"X c #802954",
"o c #D01946",
"O c #9B4C51",
"+ c #E84444",
"@ c #FFD569",
/* pixels */
"   ....o++oXXX+o     +o         ",
"    ..o++o.. XX+o    ++         ",
"    o+++o....XXo+o  o++         ",
"++++++o  .....XX++o+++++       o",
"++oXX     ....Xo+++++oo++++ooo++",
"XX...   ......o+oXXXXXXoo+++++++",
"X  ...  .. ..o+X  ..... X++oXXo+",
"X    .     .o+X   ...... ++X..X+",
"o     .    X+oX    ......o+ ...o",
"+          o+X      .....X+  .. ",
"+X        X++X       ....X+o    ",
"oo       Xo++X     .. ..XXo+X   ",
"X+oX  XXoo+++oX    .. X..XX+oXXX",
"Xo++oo++++++++oXX    XX..XX+++oo",
"o++++++oXX XXo++++oXXXXXXXo+++++",
"+oXX++oX.... Xo+oXX+oXXo+++++oXX",
"X XX+oX...... X+X   +++++oX..OOO",
".. o+X........ +  ..o++oX...OOOO",
"...++X ....... +  ..X+oO ...OOOO",
"...+o   .......oo   X+X  ....OOO",
"..X+o ... .....X+X  o+X  ..OO.OO",
". X++X...  ....X+++++o+X...OOOOO",
" Xo++X       .OX+oXOOXoX....OO.O",
"o++++o        OooX.OOOX+.......o",
"++XX++     .O X+XOOOOOOoX...o@@@",
"ooXXo+X    .OX+o.OO.OOOXo.o@@@@o",
"X  oo+oX    Xo+X....OOOXo@@@oXOO",
".....X+oX  XX+X......OOX@oXO.OOO",
"..... X+++oo++X......OX@oX.....O",
"......X++o..++o......X@oX.......",
" .....X++ ..+XXo.....o@X........",
"  ...XX+o  o+XX+X..XX@oX........"
};
