/* XPM */
static char *result[] = {
/* columns rows colors chars-per-pixel */
"32 32 5 1 ",
"  c #D01946",
". c #802954",
"X c #E84444",
"o c #523B40",
"O c #3D253B",
/* pixels */
"OOOoooo XX ...X OOOOOX OOOOOOOOO",
"OOOOoo XX ooO..X OOOOXXOOOOOOOOO",
"OOOO XXX oooo.. X OO XXOOOOOOOOO",
"XXXXXX OOooooo..XX XXXXXOOOOOOO ",
"XX ..OOOOOoooo. XXXXX  XXXX   XX",
"..oooOOOoooooo X ......  XXXXXXX",
".OOoooOOooOoo X.OOoooooO.XX .. X",
".OOOOoOOOOOo X.OOOooooooOXX.oo.X",
" OOOOOoOOOO.X .OOOOoooooo XOooo ",
"XOOOOOOOOOO X.OOOOOOooooo.XOOooO",
"X.OOOOOOOO.XX.OOOOOOOoooo.X OOOO",
"  OOOOOOO. XX.OOOOOooOoo.. X.OOO",
".X .OO..  XXX .OOOOooO.oo..X ...",
". XX  XXXXXXXX ..OOOO..oo..XXX  ",
" XXXXXX ..O.. XXXX ....... XXXXX",
"X ..XX .ooooO. X ..X .. XXXXX ..",
".O..X .ooooooO.X.OOOXXXXX .OOooo",
"ooO X.ooooooooOXOOoo XX .OOOoooo",
"oooXX.OoooooooOXOOoo.X oOOOOoooo",
"oooX OOOooooooo  OOO.X.OOOOOOooo",
"oo.X OoooOooooo.X.OO X.OOOOooOoo",
"oO.XX.oooOOoooo.XXXXX X.OOOooooo",
"O. XX.OOOOOOOoo.X .oo. .OOOOooOo",
" XXXX OOOOOOOOo  .Oooo.XOOOOOOO ",
"XX..XXOOOOOooO.X.oooooo .OOO XXX",
"  .. X.OOOOoo.X OooOooo. O XXXX ",
".OO  X .OOOO. X.OOOOooo. XXX .oo",
"ooooo.X .OO..X.OOOOOOoo.X .oOooo",
"oooooO.XXX  XX.OOOOOOo.X .OOOOOo",
"oooooo.XX ooXX OOOOOO.X .OOOOOOO",
"Oooooo.XXOooX.. OOOOO X.OOOOOOOO",
"OOooo..X OO X..X.OO..X .OOOOOOOO"
};
