/* XPM */
static char *result[] = {
/* columns rows colors chars-per-pixel */
"32 32 7 1 ",
"  c #3D253B",
". c #523B40",
"X c #802954",
"o c #D01946",
"O c #9B4C51",
"+ c #E84444",
"@ c #FFD569",
/* pixels */
"   ....o++oXXX+o.....@o.........",
"    ..o++o.. XX+o....@@.........",
"    o+++o....XXo+o..o@@.........",
"++++++o  ....OXX++o@@@@@.......o",
"++oXX     ..OOXo++@@@oo@@@@ooo@@",
"XX...   ...OOOo+oXXXXXXoo@@@@@@@",
"X  ...  .. OOo+X..OOOOO.X@@oXXo@",
"X    .     Oo+X...OOOOOO.@@XOOX@",
"o     .    X+oX....OOOOOOo@.OOOo",
"+          o+X......OOOOOX@..OO.",
"+X        X++X.......OOOOX@o....",
"oo       Xo++X.....OO.OOXXo@X...",
"X+oX  XXoo+++oX....OO.XOOXX@oXXX",
"Xo++oo++++++++oXX....XXOOXX@@@oo",
"o++++++oXX XXo++++oXXXXXXXo@@@@@",
"+oXX++oX.... Xo+oXX+oXXo@@@@@oXX",
"X XX+oX...... X+X   ++@@@oX..OOO",
".. o+X........ +  OOo+@oX...OOOO",
"...++X ....... +  OOX+oO....OOOO",
"...+o   ......Ooo   X+X......OOO",
"..X+o ... ...OOX+X .o+X....OO.OO",
". X++X...  .OOOX+++++o@X...OOOOO",
" Xo++X       OOX+oXOOXoX....OO.O",
"o++++o        OooX.OOOX@.......o",
"++XX++     OO X+XOOOOOOoX...o@@@",
"ooXXo+X    OOX+o.OO.OOOXo.o@@@@o",
"X  oo+oX    Xo+X....OOOXo@@@oXOO",
".....X+oX  XX+X......OOX@oXO.OOO",
"..... X+++oo++X......OX@oX.....O",
"......X++o.O++o......X@oX.......",
" .....X++ .O+XXo.....o@X........",
"  ...XX+o  o+XX+X..XX@oX........"
};
