/* XPM */
static char *ba8881da98ed4914942f98063a2a9400dgnJmIcENv1c0DtK[] = {
/* columns rows colors chars-per-pixel */
"32 32 2 1 ",
"  c None",
". c #895A45",
/* pixels */
" ......     ..             ...  ",
"........   ....     ..    ..... ",
"........   ....     ..    ..... ",
"........    ..            ..... ",
"........                   ...  ",
"........       .........        ",
"........      ...........       ",
" ......       ...........   ... ",
"              ...........  .....",
"       ...    ...........  .....",
"      .....   ...........  .....",
"      .....   ...........   ... ",
" ...  .....   ...........       ",
" ...   ...    ...........       ",
" ...          ...........   ... ",
"     ..        .........    ... ",
"    ....                    ... ",
"    ....    ....                ",
"     ..    ......      ......   ",
"           ......     ........  ",
"           ......     ........  ",
" ....      ......     ........  ",
"......      ....      ........  ",
"......                ........  ",
"......  ......        ........  ",
"...... ........        ......   ",
" ....  ........   ...           ",
"       ........  .....     ...  ",
"    .. ........  .....     ...  ",
"    .. ........  .....     ...  ",
"       ........   ...           ",
"        ......                  "
};
