/* XPM */
static char *result[] = {
/* columns rows colors chars-per-pixel */
"32 32 26 1 ",
"  c #25131A",
". c #3D253B",
"X c #802954",
"o c #606060",
"O c #9BF0FD",
"+ c #9B4C51",
"@ c #56587B",
"# c #E84444",
"$ c #D01946",
"% c #E6DECA",
"& c #FFD569",
"* c #2A5A39",
"= c #9A8571",
"- c #BBC44E",
"; c white",
": c #E1A171",
"> c #BF704D",
", c #CAE6F5",
"< c #62ABD4",
"1 c #5880CC",
"2 c #523B40",
"3 c #A7ACBA",
"4 c #80A53F",
"5 c #895A45",
"6 c #427F3B",
"7 c black",
/* pixels */
"1@@1<<OO<1@@1@@11<<1@@@11111@@@1",
"@111@1<O<<1@11111<<11111111111@@",
"111111111<<1111<<<<<111111111111",
"11111111<OO<<<2222<<<11111111111",
"111111<<OO<111222211<<1111111111",
"111<<<<11@@@@222222@@1<OO<111111",
"<<OO<1@@@@@@@22&&22@@@@1<OOO<11<",
"<111<<1@@@11@22&&22@@1@@<OOOOO<<",
"1@@11<<<1111222&&222111<OO<11@@@",
"@@@@@@1<<<<122>&&>2211<<<11@@@@@",
"@@@@@@@1<1<<22&&&&22<<<1@@@@@@@@",
"11112222222222&&&&2222222222@@11",
"@111222222222&&&&&&222222222111@",
"111122&&&&&&&&&&&&&&&&&&&&221111",
"111122&&&&&&&&&&&&&&&&&&&&221111",
"1111222>&&&&&&&&&&&&&&&&>2221111",
"111112222&&&&&&&&&&&&&&222211111",
"111<<12222&&&&&&&&&&&&2222<<<<<1",
"<<O<OO<2222&&&&&&&&&&2222<111<<<",
"1111<<<<222&&&&&&&&&&222<1@@@@@1",
"@@@@@11<222&&&&&&&&&&2221@@@@@@@",
"@@@@@@@@22>&&&&&&&&&&>22@@@@@@@@",
"1@@@111@22&&&&&&&&&&&&22111@@@11",
"@@@1111222&&&&2222&&&&2221@@1111",
"111111122&&&&222222&&&&221111111",
"111111122&&&222<1222&&&221111111",
"11111112222222<1@@22222221111111",
"<<<<<<<222222@@@@@@222222111111<",
"<<1@@11<<<1@@@111@1<<11<<O<1111<",
"1@@@@@@11<<<1111111<<1@11<<<OOO<",
"<1111111<<1<<<<<<OOO1@@@@@111<<<",
"<<<<111<<1@@@1<<OOO<@@@@@@@@@@11"
};
