/* XPM */
static char *result[] = {
/* columns rows colors chars-per-pixel */
"32 32 26 1 ",
"  c #25131A",
". c #3D253B",
"X c #802954",
"o c #606060",
"O c #9BF0FD",
"+ c #9B4C51",
"@ c #56587B",
"# c #E84444",
"$ c #D01946",
"% c #E6DECA",
"& c #FFD569",
"* c #2A5A39",
"= c #9A8571",
"- c #BBC44E",
"; c white",
": c #E1A171",
"> c #BF704D",
", c #CAE6F5",
"< c #62ABD4",
"1 c #5880CC",
"2 c #523B40",
"3 c #A7ACBA",
"4 c #80A53F",
"5 c #895A45",
"6 c #427F3B",
"7 c black",
/* pixels */
"1@@1<<OO<1@@>&&&&&&>o@@11111@@@1",
"@111@1<O<5%%%&&&&&&&&;%3111111@@",
"1111111=>>%%%>=====&;;;;;1111111",
"111112=>+=3=2......5==;;;;=11111",
"11112>>>3;;;%%=2......=;;;;>1111",
"1112>>>o;;;;;;;%3o......%;;&=111",
"<<O=>>>3;;;;;;;%%%%3o....%&&%11<",
"<1=>>5.%%;;;%%%%%%%%%%=2..&;;;<<",
"1o>>>.=%%%%%%%%%%%%%%%%%%=2;;;3@",
"@5>>5.3%%%;%%%%%%%%%%%%%%%%3%;%@",
"@>>5.2%%;;;;;%%%%%%%%%%%%%%%3:&@",
"1>>5.=%;%%%%%;%%%%%%%%%%%%%%%>&1",
"5>>5.%%%%%%%%%;%%%%%%%%%%%%%%>&=",
"==5.o%%&-5>&%%;%%%%;;;%%%%%%%o%%",
"==5.=%&2777 &%%%%%;;;;;;%%%%3=%%",
"==5.%%4777775%%%%;%%%%%;;%%%o5>>",
"==52%%2777772%%%%%%%%%%%;%%%.5>>",
"==5.%%5777772%%%%%>55-%%%%%=.5>>",
"552.=%-77777-%%%%577774%%%&5.5>>",
"2552.=%-272-%%%%:777777&&&:.2>>5",
"@552.:&&&&&&%%%%-777777-&&=.5>>@",
"@552.&&&&&&&&-&&-777777&&&2.5>>@",
"12552&&&&&&&:75&&577774&&:.5>>51",
"@@555=&=5:&&&-:&&&>25-&&&=.>>>11",
"1155555..=%&:&&&&&&&&&&&:.5>>=11",
"1115555..5:=.5&&&&&&&:=5.>>>=111",
"11125555.....=%:o:&&&5..5>>>2111",
"<<<<255552....22.=&&:.5>>>>2111<",
"<<1@@25555222....o:=25>>>=21111<",
"1@@@@@@555555222555===>>=<<<OOO<",
"<1111111<25555555=====5o@@111<<<",
"<<<<111<<1@@25555==5@@@@@@@@@@11"
};
