/* XPM */
static char *result[] = {
/* columns rows colors chars-per-pixel */
"32 32 26 1 ",
"  c #25131A",
". c #3D253B",
"X c #802954",
"o c #606060",
"O c #9BF0FD",
"+ c #9B4C51",
"@ c #56587B",
"# c #E84444",
"$ c #D01946",
"% c #E6DECA",
"& c #FFD569",
"* c #2A5A39",
"= c #9A8571",
"- c #BBC44E",
"; c white",
": c #E1A171",
"> c #BF704D",
", c #CAE6F5",
"< c #62ABD4",
"1 c #5880CC",
"2 c #523B40",
"3 c #A7ACBA",
"4 c #80A53F",
"5 c #895A45",
"6 c #427F3B",
"7 c black",
/* pixels */
"1@@1<<OO<1@@>&&&&&&>o@@11111@@@1",
"@111@1<O<5%%%&&&&&&&&;%3111111@@",
"1111111=>>%%%>=====&;;;;;1111111",
"111112=>>>=%;;;;;;;;%=;;;;=11111",
"11112>>>>=3%%%%%%%%%%3=;;;;>1111",
"111o:::=o3;3666666663;3o%;;&=111",
"<<O3%%%%%%346666666643%%%;;;%11<",
"<1%%%%%%%36666666666663%%%%%,;<<",
"1o;%oo6o=46666666666664=o6oo%;3@",
"@5:%%3o===66**6666**66===o3%;;%@",
"@>>=%%3=::=o*766667*o=::=3%%3&&@",
"1>>5o%%3=:==6*6666*6==:==%%o=&&1",
"5>>5.o3,3==4666666664==oo%%25&&=",
"==5.2=3%=66666666666666*o3%3o=%%",
"==5.2%%o 222666666662222273;3=%%",
"==5=;3o2..2226oooo62222 o%33o5>>",
"==53;3722.2222222222222 o%33o5>>",
"==53;3722226oo.  .oo6222273;35>>",
"5523;372**26o222222o62**273;35>>",
"255=;3=2***66o2222o66***2=3;=>>5",
"@55o=%%o **666o22o666** o%%=5>>@",
"@55=%%32 2***622226***2 23%%=>>@",
"1253;37222.............2273;3>51",
"@@53;3722222222..2222222273;3>11",
"115=%%32 22222..2222222 23%%:=11",
"1115=3%3o2222...2222222o3%%>=111",
"11125=3;=77777777777777=;%>>2111",
"<<<<25=3%%%%%%%%%%%%%%%%3:>2111<",
"<<1@@25=%;;;;;;;;;;;;;;%:=21111<",
"1@@@@@@555555222555===>>=<<<OOO<",
"<1111111<25555555=====5o@@111<<<",
"<<<<111<<1@@25555==5@@@@@@@@@@11"
};
