/* XPM */
static char *result[] = {
/* columns rows colors chars-per-pixel */
"32 32 5 1 ",
"  c #56587B",
". c #9BF0FD",
"X c white",
"o c #5880CC",
"O c #62ABD4",
/* pixels */
"o  oOO..OooooooooOOooo ooooo   o",
" ooo oO.OOooOOOOOOOOOooooooooo  ",
"ooooooooOOOOOOO.....OOOOoooooooo",
"ooooooOOO........O...OOOOOoooooo",
"oooooOO....OOOoooOOO..OOOOOooooo",
"oooOOO.OOooooooooooooO.X..OOoooo",
"OO..OOoooooooooooooooooO....OooO",
"OooO..OoooOOoOOooOOooOoo.X....OO",
"oooOO...OOOOOOooooOOOOO.XX.OOoo ",
" oooooO....OOOOOOOOOOO...OOoooo ",
"oooooooO.O...OOOOOOO...Ooooooooo",
"oOOOOooO.ooO...OOOO...OooOOOooOo",
"oOOOOOO..OoooO.XXX..OOOOOOOOOOOo",
"oOOOOOO.OooOO.XXX..OOOOOOOOOOOOo",
"oOOOOO.........OOO...OOOOOOOOOOo",
"oOOOOO....OOoooooooO..OOOOOOOOOo",
"oOOOO..OOooooooooooooO..OOOOOOOo",
"oOO..OoooOOOooooooooooO.XX....Oo",
"OO..XX.OOOOooOOOooooOOOXX.OOO.OO",
"oOOO....OOOOOOOOOOOOOOO..Ooooooo",
"oooooOO...OOOOOOOOOOOO..Oooooooo",
"ooooooooO..OOOOOOOOOO..Ooooooooo",
"ooooOOOooOO.OOOOOOO..OOoOOOooooo",
" ooOOOOOOOOO..OOO...OOOOOOooOOoo",
"oooOOOOOOOOOO.XX...OOOOOOOOOOooo",
"oooOOOOOOOOOO.X.OO..OOOOOOOOOooo",
"ooooOOOOO......OooO.X.OOOOOOoooo",
"OOOOOOO....OOooooooO.X..OOOooooO",
"OOo ooOOO.OoooOOOoO..OOOO.OooooO",
"o    oooOOOOOOOOOOO.OOoOoOOO...O",
"OoooooooOOoOOOOOO...Ooooo oooOOO",
"OOOOoooOOoooooOO...Ooo        oo"
};
