/* XPM */
static char *_bc46e0924aa45d7eb6d4e17e2dae4d4P2EB90Y7vAXY6P0o[] = {
/* columns rows colors chars-per-pixel */
"32 32 26 1 ",
"  c #25131A",
". c #3D253B",
"X c #802954",
"o c #606060",
"O c #9BF0FD",
"+ c #9B4C51",
"@ c #56587B",
"# c #E84444",
"$ c #D01946",
"% c #E6DECA",
"& c #FFD569",
"* c #2A5A39",
"= c #9A8571",
"- c #BBC44E",
"; c white",
": c #E1A171",
"> c #BF704D",
", c #CAE6F5",
"< c #62ABD4",
"1 c #5880CC",
"2 c #523B40",
"3 c #A7ACBA",
"4 c #80A53F",
"5 c #895A45",
"6 c #427F3B",
"7 c black",
/* pixels */
"1@@1<<OO<1@@1@@11<<1@@@11111@@@1",
"@111@1<O<<,;;;;;;;;;;,11111111@@",
"1111111113,;;;;;;;;;;,3111111111",
"11111111<;%6666666666%;<11111111",
"113333,,,%366666666663%,33333311",
"13;;;;;;;66666666666666;;;;;;;31",
",;3333333666666666666663333333,,",
";,6666666666666666666666666666,;",
"1=;%6=:::66   6666   66:::=6%;=@",
"@=,%3==::4o** 6666 **o4::==3%,=@",
"@@@3;36:::=66 6666 66=:::63;3@@@",
"1113,%3====6666222666====63;3@11",
"@1111,;=66666662226666666.3;311@",
"1113,%3o66666662&266666662=3%,<1",
"1113;3...2226622&2262222222.%;31",
"1<;%=o2...22262&&&222222..3%,311",
"13;%.22..222222&&&222222..3%,311",
"13;%.22..2&&&&&&&&&&&&&2.22.%;31",
"<3;%.22**2&&&&&&&&&&&&&2*22.%;3<",
"13;%.226*.22&&&&&&&&&22*622.%;31",
"@@33%=2***222&&&&&&&222**2=%33@@",
"@@@3;3..26662&&&&&&&2662..3;3@@@",
"1=,%=o222**22&&&&&&&22*..2o=%,<1",
"@3;%.2222..22&&&&&&&22...22.%;31",
"13;%.2222222&&&222&&&222222.%;31",
"1<,%=o222222&&22222&&22222o=%,<1",
"1113;3.22222222.222222222.3;3111",
"<<<<,%%o2222....22222222o%%3<11<",
"<<1@@,;=................=;,1111<",
"1@@@@=3%%%%%%%%%%%%%%%%%%3<<OOO<",
"<111111;;;;;;;;;;;;;;;;;;@111<<<",
"<<<<111<<1@@@1<<OOO<@@@@@@@@@@11"
};
