/* XPM */
static char *_a3d1e6ece294b3ef0aac02c58294729tfyXDc9N6kTlsD7J[] = {
/* columns rows colors chars-per-pixel */
"32 32 26 1 ",
"  c #25131A",
". c #3D253B",
"X c #802954",
"o c #606060",
"O c #9BF0FD",
"+ c #9B4C51",
"@ c #56587B",
"# c #E84444",
"$ c #D01946",
"% c #E6DECA",
"& c #FFD569",
"* c #2A5A39",
"= c #9A8571",
"- c #BBC44E",
"; c white",
": c #E1A171",
"> c #BF704D",
", c #CAE6F5",
"< c #62ABD4",
"1 c #5880CC",
"2 c #523B40",
"3 c #A7ACBA",
"4 c #80A53F",
"5 c #895A45",
"6 c #427F3B",
"7 c black",
/* pixels */
"1@@1<<OO<1@@1@@11<<1@@@11111@@@1",
"@111@1<O<<,;;;;;;;;;;,11111111@@",
"1111111113,;;;;;;;;;;,3111111111",
"11111111<;%6666666666%;<11111111",
"113333,,,%366666666663%,33333311",
"13;;;;;;;66666666666666;;;;;;;31",
",;3333333666666666666663333333,,",
";,6666666666666666666666666666,;",
"1=;%6=:::66   6666   66:::=6%;=@",
"@=,%3==::4o** 6666 **o4::==3%,=@",
"@@@3;36:::=66 6666 66=:::63;3@@@",
"1113,%3====6666666666====63;3@11",
"@1111,;=6666666*2*6666666.3;311@",
"1113,%3o66666=o=46oo666662=3%,<1",
"1113;3...222o6=%364=o222222.%;31",
"1<;%=o2...2o663%%%%%=o22..3%,311",
"13;%.22...2o63%%%%%%4o2...3%,311",
"13;%.22..2==3%%%%%%%66=..22.%;31",
"<3;%.22**2o=%%3-3%%%=6o**22.%;3<",
"13;%.226*o=3%34643%%%==o622.%;31",
"@@33%=2**2=3%4666-%%%%%2*2=%33@@",
"@@@3;3..22*33=4643%%%%%2..3;3@@@",
"1=,%=o222o6=33=43%%%%3=o.2o=%,<1",
"@3;%.2222.o=333%%%%%36o..22.%;31",
"13;%.22222o=66=33%%%6622222.%;31",
"1<,%=o22222o***=333=6o2222o=%,<1",
"1113;3.22222oo*====o22222.3;3111",
"<<<<,%%o2222..2222222222o%%3<11<",
"<<1@@,;=................=;,1111<",
"1@@@@=3%%%%%%%%%%%%%%%%%%3<<OOO<",
"<111111;;;;;;;;;;;;;;;;;;@111<<<",
"<<<<111<<1@@@1<<OOO<@@@@@@@@@@11"
};
