/* XPM */
static char *af7c2edfb8484716eb10fe14cf6cd9b7SdqZa0Ho7FmcVZ0u[] = {
/* columns rows colors chars-per-pixel */
"128 128 87 1 ",
"  c #2D3A07",
". c #353507",
"X c #3C3507",
"o c #363B07",
"O c #3A3907",
"+ c #333D08",
"@ c #3C3D09",
"# c #432D06",
"$ c #423307",
"% c #413807",
"& c #433C09",
"* c #244409",
"= c #2D4509",
"- c #274A0A",
"; c #2B4C0A",
": c #35440A",
"> c #3C440A",
", c #334C0B",
"< c #3B4C0B",
"1 c #2E540B",
"2 c #2F590B",
"3 c #35530C",
"4 c #3B540C",
"5 c #345C0D",
"6 c #3C5B0D",
"7 c #364E12",
"8 c #3E4C10",
"9 c #345411",
"0 c #3B5411",
"q c #365D11",
"w c #3D5B12",
"e c #37610E",
"r c #3A640E",
"t c #3D6A0F",
"y c #376010",
"u c #3C6413",
"i c #3E6A12",
"p c #3D6518",
"a c #3F6818",
"s c #42440B",
"d c #48440C",
"f c #434B0C",
"g c #484D0E",
"h c #42540D",
"j c #49520F",
"k c #425C0D",
"l c #485D0E",
"z c #414E10",
"x c #494C10",
"c c #445511",
"v c #495510",
"b c #435C12",
"n c #4A5C12",
"m c #42630E",
"M c #49630F",
"N c #436A0F",
"B c #48690F",
"V c #446413",
"C c #4B6414",
"Z c #426C13",
"A c #4A6B15",
"S c #426618",
"D c #4A6718",
"F c #436D18",
"G c #4B6D18",
"H c #506614",
"J c #526B15",
"K c #447213",
"L c #4C7216",
"P c #477812",
"I c #4B7B16",
"U c #467219",
"Y c #4A7519",
"T c #4D7B1A",
"R c #507317",
"E c #537A17",
"W c #517418",
"Q c #517D1B",
"! c #587E1A",
"~ c #4E8115",
"^ c #4F801A",
"/ c #52831C",
"( c #5A821B",
") c #56891D",
"_ c #598C1D",
"` c #5D921F",
"' c #5D9021",
/* pixels */
"5tV64@31t5meN*5t6erk2m644,r2et34C9K)UVYuUwUF/Db^wQT/_LwK/wViUFLZgr6e6,<>3t5rr3;t6r6r6r6362t3rrNKFiuwU/sCYnAiK/4)VIpDWGT5YAV6YFiq",
"rI5Pt6K5ttrN,t614-ke5eN<e3~66<e4;K9wnAp>FAA/UCTnA>u((UgSISFcTiUi5Kr2t;m43t6ef56e,t56t64k6rrttNt4CiTCb4qTL<FCQTvTbDFIFc6ZUTVQiiQA",
"u<mt5Nrtk4hr26ht6:36m6,5e,m5t6rt<AY6pDhVDLTTC!nwIFDATfV/n(n/D&Fqr6rre6,313rerr633312<5tr,1temtft5AfbDIFDbLTsppCU0>6YbGF@TFbTi0Vb",
"ur,54teKttke<P34N6m*462e4,mtrsetb6y_FZAZITK)GGbGCF0/Vkwk/FcwIi/056Kt6etkt6e4tKt5teNK63hr414rt<tmLwI,F/ZFAYCL@(0i),VIICTuAVQ0VnTT",
"mPeB16r<&5rth2ts56r6,rNehm45k626UQFbV<VVUVA/bTTSRLDwc<ETG6TzVi/u5tKmetrkt4<,rN4rNtm5t2tt<N2r5ftKhC5DwKwGTELLFFKATTTifwVCYCcKIcVu",
"6rtrk5m456,efk4mrrmN61ft564emr1euIi/D4vVLUTZ/QScCUAYFFKLUfGRUVLLk>6666f6r2XmP4h1r16316t141k<2e6eCThibvUY`CU^cAFVD)FGcbTVq^nTF<nV",
"55eh42r>rNtNrse4m3>26<f4r<=t=K6rb)IhU,6bi0YVFFKYFTT)qI'YFhTDsIUVrk,6<,te2tNk4<6ttNKm5Nk3,e3Pe6mtViiAYLTTIGVTQnyCFC8pTUYPZcAVTIAA",
"5Vmr,1PrN6t2t44,>N6Nm<6N<,3265,<TI)jpcFIYLFZKlQVUpDW:/KVLFiwp/igZ6t546;452N<k6t=42eete451<4t266PiYVYC_I/KS<U/vVFLGwuzvcTwiCCUuTa",
"tmf.tr6r6et<rrt,rrrm16em5rre625IuTQbQCYF/LukQuFjwQVA/V/_DVAUnTV4M5t4>,Net3tf362<3r3tt3e3;rgr,46vyiTAiUUEDVY6TT0@TLAiT^KVW/YLVvTY",
"Itk4K3trrreh3623KNtre<e4634tNthfFIYU/UnUVYAcUTKT>/GUVVFUYVx>TAqytk3er<r6Ktr3<mr<Ne3,N6tN&56N5Ze5qiAAa^QT<wpATFYQLT&C/LCUUU^wT(KT",
"he<3tr5:46t456B;Bhe2t3e,26ttZ3n<Z3F!IFbaZwiCwAIwpTTLIFQFFALFnpKwk64r4266tkrrkP<h3he23=;t6554eerZ>tAYp)(VLc^bYhKVLjTDUYUT0FLKKhi1",
"m,Z6<NrBemeK14P5tr=t5kr3h61<m,yr<AYUFiK)nlF:T4AVCALYYpATcQfC!FVC>Kt46kPtr1r4fr25f<r4trB2545t1N6twp4AcUACCAYTY<U/^C/WGF(YCYAFvF,U",
"54eBKK<trmNKrt6rtmrteP6>O5kB64,LyhCAA)Dufb(TVCLvYUcG/SbD/YT0AwCut3rr:rrfrtNP:<rehk<tsNNN4>r65rZNebnTGsYFUU/CIaFLwT>T(^@FTI>VFK5/",
"K51ir4kPktrte6<N66BNs6N55t4t6e3i5k)LoKFuZ/LuFKTiwCc/IQ>FYK3FbqF1,Ne41Behhett3Bhr4r34r33;,t522r<,TKrAKFUi/bWTTpVYULbSSV<AiF0fcUqT",
";ire45O5r5N5tm<5rB1mk45t3,3e,,5Z6FSpFCKC^AbGUuVUuuUFbTupVTkGGU5eL62:26t5t4t61s>rr<2rerftret5r6PreAZV/CYVCw)buqY0ITTaU/FkUA/6YVii",
"bt,56Bm<t<PkK545,ekktrrt6te56,3KiVIkUTLiSfgCYVaYbTLbFQ>^pVrUTAAr,N2t,6h2P,m1<36t;m4K1thrrerX>:45Z)DUFAvDpTYGwT/STF6pVKALUA/GFCpy",
"Ptre2reN42k552e6t3,e22t63re6t5rNiAVRTC(AwVITYFcwVLYyTIVyU(/VcK>K6,15NttN6rKKt5tkt4hrtNrKKerrm1etiTiIgGEGDqUhYQIFTFVcUDTGSFRFDpZ4",
"tt4564e=rtt,krtrk:6ktBt6rrr3mreehC~T/^/LTcUF/YnCDWI<AVZTzTC(bi5Z:3NmNeeN5tst2Kt5t6t6r54N5;K3<ktNqcqYUwwiTnCY,/AAUYwp)AS)VtRSSATy",
"K564NK&eeef646r:4$er2tm41P=<KtK6ZL>KAFLFTF>Wuq)DVSFCVIfnVQIv/!eh2:,5<t6ee55e2rKemt55r36rBer3me6,wbI)FAVTIV&TbQY9)AKw^7p2CKubUIVK",
"Nr45;etrPr45<krhh45ee<4<et=rt:iL-FpAVfCiSHU8paIT,VTC/TDVTDAC)qAir=3:6Nreee,f6rN6mtthsP5m,tme:e1eF=UuUAVSUwVcAn/cYGwn)^K6IcwLib;A",
"P5km;er<:r62t6tr=5kNtKt54e44KrrV1QhAh/CeDcUZAF^pVYcjGTnuWF<YTTkik;k3eeKZ3e46tN66K4mm421t<K2etN4Fec^I>^ACAZA>iyKfTbYCLV(bU)TLITYF",
"e3rr3Nf5e666;1t,452ert2,4mN3>6mNZwYATGTnVFUDZVTC^VvZWbAVAjTUAUiuiee;t<I6tftr-6 rttme4Prt5BeNt66IISpYYiwAFV)TF/0/TVVGw8ZbFbT)UUA/",
"14Z16K%emrr=Kr=mm>fe2etkt15s3N5rV>UTYIunUibcC/YcF^CKTFnTV(BQYbN526t5k<4NNNNete6eN64Nr3t6K4NtKKiKVVUVYhLV_VLTDI/jYVFT>'Yp/#AFbA2Y",
"t5NNk5tt6ttmtN1mem25r4etrmrrrr<6iLCFUYYYY/YVc^IAQCIVbLu^YnwuQK/q4<tr1Nr4ttsresret5me55t53m5=k4ZeZiT0CC<DsTWYKp^/CKVYK(VVC4UVVT3Y",
"e<h+54rr32;ht>tkt,,<e5NB4rrhhtr6FZAuAf^/zYQUY/YTAuTDVTK/G~bb/Tyi4mKrm>rh5t4=m<r6k35N42r><k2r3<6ruS^LAUhCVSSFfFTYI/4UZTc0aTTZYYuF",
"e;<5t64t,146r4Nmt56e6tN@Ntrh,5rtuyyTKGYYQbYnT/pIDQTT/cUQu/TUYU<0h3r<e3trf355113tl,rB6rh6N4fm=K>54A^TiS/FAG9A/>FAFUThSIDLm(TF@UVK",
",4K45;6tt2tmPPfe646r>3<<rN2t35NKwLVUYpKYWWcwFTaGpLDQcuTKG_IbppVee5635m6N3t5l52K,,3Nm25m,r>4t6,srTn^YMS/(VVDT&FFFCi^FAVpZLf/T4De5",
"B544e,1kmr3em4ee46K36>t<Pmr5hmmK50/IA6uIcFiYDUUGKiATGAGTw9YUQr<4,rKm5K,<rrm3Kt13te46mrtte<-4rtBebK^FZYYY/YQ^wHvppAAiGAUUVnTF+L;u",
"fN5t4<remN6e,N:eN;k26<53rtN;622hYVLFic8I_G^bVFAIUDFFRFGbV<TCA6KeZKe6>e,k<tke5mrtr4;;m<N5m21tKek<quTYi/(UYpTUVubHTbAYATa9RYT^YiG5",
"4t464t:trNrNKrr62t6m3<5merN1t5k2GRQIwFTVYAS8F^IA(FFQAKfTa)IT/pTZZ>Kk6et5,Krr3rtr<1k,62h2t3tBmkN5VuKTU)bGTIYTVY4)TcTwAb@CLVSFQYS,",
"Kr255P544ee622mP652r3t5mmmP663tN5IFdpAAf)vT&YVUiTa>TCTU/TAIFQh,K-r6t:itm4;rtrhrr4ertt25-6r;2,1KP5uFiT/UFLAU^nUU(n0IYEVqnSYA^aYFK",
"tmKmrkrt4tNrN44r<rh26r>ktZ<t6N4f,pnKUbFAYnFFU)VUQYIyYGFIIYAW/y6wtrer36ettNrt66rtrmr5s21<t,rh2rNPVVFY)KQpIC^inGUGT>V(wbWGiITFiYUh",
"Nn5r55<t3kt;e,P523rr1t-:mfNr5rer,PGUTi8uFhWGDT8(cSQfFWTDpUYDUZCm6Pr5t5k=ttNm3f2263t6KK656N>33qPhBbUT`QG/VULALSUvUFT_cQYTVFYAT)wU",
"5ite13356t63BtreNtrNt14k4t6rtu6iRZYTU)AF0bUII//YDiYkTYVUc_bUYQ3crZ31rN46eerr33N,r4,-6N56;N,t6re/u5bKFukQnFwVA/DKhYIUA)9U/WYU)Q+p",
"344ethPt5t6t4tr3634kr6-K,e:r45rPi5L(a/AmALALcA^TDaTYWT/VnDfnFhFn5Z65;N3>1t6Ne5B6sN64t5Nrerhre6mueUVVACQTVkVLYVGTCIYIYuA^Uzn^_0Ii",
"V4e>Merr-Km2Nr5Krmtrer3e6rrrN:AimfLIIUIZAFYLy0Y)iGDUUuKCqFILk>Kkm5rtr5N5N5tN62rN51Nr6,e56Nu645e6yITC0UwAbukTA/TT^SnqCYYpiLaTGa60",
"=m4:3ertrtN65etem6r6<<trr2trK,iZq)Q%TvUYFTTYTiWqSUvAQ)IvnT)S)ifA,Z6,B55tr5ktttfBeteBt,m5ret53tyqZi/VGFKLVD)<VAwFTCIU:8bFT0FFGLiV",
"3e6e6te3etN-mNt<k=t4P5trN3mrNKZmy~u7VLnKQLTiQ/CUT)/C6FnI/TD)vIupr;N5er5kP1Nk5r,rtmtet6,46r6+6BVIeqVUDwVYTiQfYSuqTUn8nCVGYU4wJLG&",
"1N1415P1<4<<emrr<r5mm546trO525I<y3LwnSCwQuwFTbHwC/FLFUcUFTV^GTYt6656N65+km5KN<44rmKth6<1666<NrZylm,ZV6a'FDYAATDi/fACpZSLFFFVnYK3",
"6rer<N6t5Ke,eL5ttr5t6rBte324NNZ1qUAwGEUucQ^TFLaVCAwV/AA/ICTUYjwuft3Kt<m5B$mr4r5em5r44<16tr,1r6655fGU4DQSTAKIUAALLw(ThCuL/CTU/fu4",
"e,:66e43iN3e<3Kr2tm35:k355ON6rmeTTuUY)TLICA4bYVYhGCUbGbGYAiTfrqmVZtNKrKhr2r4ter2r35,e5;4teKe5r5Mk:UKbYFTcAF0IVLh<DLVUTTTqYmiYn)5",
"e4tNtt<44e,i,3mtm,r4K34k6554rNCKALAFp^TnUYWq4VFbDC<U4AUIVUFihUVYkKtre6:r3ther26t6tKkN<4B562emNeeV^:VVIWFVF0LV0GALFSTcw)4LYTVYFiK",
"Kh55trB6Nre-<6trh32f4rtr2>e46er6yiFbbbTY/YUTYH)nwK<^G4TbpuQ(>A44q,thmt6N:r16rNPt553rr,644NN,45NK!FSC0!Y<futTpwU)J^GDC3CWAT/iUjUi",
",tte62:<tk5erh6565h3k,5r,tet56r6uiU.CT6TubY^UTCGLuTAwwTFDLTYhAim563,roK5NNeP2rettr2h6s56e426=rhr^VVGUL+Y^YAUTDTwTIcRZpFFUFQJUTSp",
"imN52mtrfN4r3 r5rrK2ktk3:eetr,rk6/4ITnApVrA/hYiQFUL/6LHDuQTG_DV4Nt2t6r2NtB2tk4tN6N6Ne<r,6rNK45h5iCUpppL<//TaDMUFUFA^FWDIpY/bcAT2",
"O56Kf,t<3t12<6smtrt6eem&46t65h34Sei0jIV^jnY/IavY>uUYbVU5T/TAU(CcZ=ert4te3,t6tttthm:merh6the1555AiSFUbLT/K^_FuV)UfwZTFYVGwTVDbIEK",
"63tt5r4k3Nf6mt<tNr<16456trsN,<eN00VY:TVKDYLUnUL^TV<TbCKVYTcF<Uw5rN62Brt53kr62,44r6r6Ph6Pt335535NXiTSKGCAJ/&)DIFaCcUR)iLz/SLIAZ5I",
"1e,5ee,3tt3r,55N65NK4+5kP54tt<1mh9iDVYUAATKwUACYKS7A5Q/VATiYVUC35e16P4,N5Ntmt1e211m3Nt2Ne3e51KeZLVVZTkYYYTT(QYC^0YTVIGImAwYwGuLL",
"VNV<t3re4te,rrrmNe54Nt4h61efP@<PsGYTUTwU/QFc(FV00T0Lpu(pT^^6Ca6s4te,55t4rtKNtNkrkNt,Nreem15terPZAwULQ/VYK/iVipFLFAQw^FTFADfLA2kF",
"r5r:,546>K5PeN2;tth6t6N,1erhK,PPiL/UFTKATW/fTnWDf5I0GKU4FFV)icuZ34Zkkmt3tN1h5me2te56eK13m,tMksm*t`TkfbULTQwpVWAQVQ/bTUT0Q//iwIKi",
"33se6NNe,r6m2P622~errKr6>K6rN<14IYYwGGFa0nGD4YUUVfTY/LbCUADVqQTe5N3-t6t>kK6t<mt6e6htrt4t2ttte3tUIAYcnAUFDUVVCFTQUT)FVCVFTAfSTqpr",
"t3tr6,ee63m6tkNtt3hNtr6tktoK>5heiT/bYLTwbR/TCp@bc/TALbUyUVvTTUL;K6N-PrmrK:N<e,etBt#emrNK1t3rreKuUUYD/TVHFRU0FqTTVcbCseTbIFACW3y5",
"6654t13Ket12<mhN25th,N<53e65<5KemYA/F/A<RhFbVYcnAFUcYU6<UFA/C@/t42,5t6,e56NN56e2rteNt2N612,5,t6q6-(U^)wwQsu/>>Fp/A%QVT7AFVl<V(uw",
"5e1t461=2r6re4tr,6=mPK3535i5r45I6iLT>QCCAubwUCTKYUUFnTCCYVY6ZwZuK55reKt55et1rkrm2<t26mPmt35h,tkAmKaA0InV0wHUfK/YKU6/i6kAhUVB(CyV",
"KKNK,ee52K2Nr22Pr6tre64<t1,3353ei0U/VVvV/8WRT%yVUATRQT^wUbYGC@F3rkere5e,5ke3ke6<2Nmr;mNO3te=654rkaVYVFpcVAVT_n^cQVgTaFyUj0RGSwIK",
"5trr6BtP4rmk6,6B6<er633+66ytt,4P2U_j/sAAUYQ/QGvYYG&TY^GT<pDGVUKp6e663BK6rmeee=6<N4Mrk=r4mN<t2ktI6USIAVAZVAQ/hGUUZE/LIxIY^TLULqye",
"653krhNNt2there=42m45f4k26mttt<t6qA)R</VAIV/SKLT<FkTY_TUpTLYGZ,i535hN5P5h5eeNt5561Nrk=r1K625:rqt^j@ppKT04TFFYFA^YwFTYGUYY/AUZwi~",
"5t4,55K3tP5h6rrmme4N4t>t5h6rr6KriLAUVYQGUhnQYwpTa5HbiIaCTpADGOIi1564rtNek4m5tt536NNr3e-f34.K63t>UTVVbYUYVc)S/UAYDyUY/SULwChUTL4K",
"tKN4rht1rt5eetkNN554<k34trrr65NZUfTLT/(6QQUQnYGUAIWWWnGUGQUTV//Km55N4461tt4tr6>ee5rh2>523O1eemt5,C8/0URT4)DTAQTcLA&T(TDLwVw/nTuZ",
"Z=Ke53tfr665emre3Nt,K>5Nst>m51,~NvuVGIbPFc/wiA)UYTDcFAGTVbLTnTTb5r5Pre46r=mtm446rtem54546rh6e<5iIywbD/TT/TATFKpYVTzUfLS/w_w(VCVF",
"<3465trh6+64m2rK,Brr2t,4Be1r426KTA0SKGLSYbFVFT^TLFfYTDIIUS^EI/YFet;5er,6t+r<N<4s5PBk-KtNr56rt41ZTACUUKY^UTiUCD@TQC0YDVCVVGFTVCpa",
"1i55,tKr6rmmh56ett25Pt464e3NPr5BFLLVUA/YwFCFSYTULUYbITTwQGVnZpKVK4rk2556ttmret1,mk2,rmr,N65e4eei9uIbGFITULcFQYuUVlFILU/mQAhGVu4i",
"Zk6535N,122,rr26t4;em56+6kmB,rrmUMAATpFCQV)DUpQiKVLAVTAnT6LUATF5K3r34N4<r24rKm23r<54PP6615t3-rrSiF6F@uTwhAcGKT0YAiTTV^TnTIQKKViu",
"e6363er632N5t6,5Ne<e1rmekh521=t=UA0bnnZDYTTcGWFclTkUUyaKGfZLcLiqPttttrhtt4Pkk4Nr6.13jN5465<e6tiiuWnyVFTQGTzYG/wApnRnFUTbA(U0/Y(V",
",1r1,er4<e5rK66rmm2efe535563<5e6@QuVUTYLkUvCFAp^OU0ZTTS/xcWYASTirthrorkrkN,515Or4,e>m<mrKrtr:,krMwT_GTAb^UTuTFUDGYhUATTL9TA/ST<i",
",6Ne<mh5,tNKt1Bt4re6e3N6<tr55NtrtUChTawKYbvYApLY:Cu^LViDA)AYyY56K54kr1Nth32rr6N4rN4t,eeN6r4t5rrmhhFU^TUbLUFYcTTb&TfFqRFGVUU/6TT4",
"rmr4<r<rm6e<mIOter,3e633frrh35t<4UVcFASAUw6iq0AQC9nUDAwUpTFTGlFwZ<kh6t456Mrt6Nre2t2hrN:re16Ntr=t,6LTciL/pVWhCfYYc^AnkVYD4pFFVeLu",
"Nm<,rN6N>Pk5-mtrNrKerr=Br51r4,BNiYwTWUAnY)FiaYL80IKiCZw_FUTwFQ<i5<N535et5<3N=ktrN4mr4N<2rt1etrK4qi^KU0bY4AbTQbIYTCIaLGQ>FiYqST5e",
"613K,rNePM4eee=1NN,r63NmKK6r5erIkiSALTTYwF0C(ipGLUp/uGFYAZUnFFTyi,t<ettrt6trtlNemr5B6r<K5mMrre355AF9IfFYYbVQAAACSCqUSVFzcFDSFUKt",
"A532h6t465<3t6364rrPtt42-O6t5th6AiVIhLUHVnFF/TYFxwWbGTGZTkUAUFWVe6k1K6K6<24t,26Pe<6Pr2e<466r6met6UY>/_AYfD4UVYqU_vY/F5YARTF))AIP",
"remt4tN3r3Pt5r3rhekrK;tr4,e>etreZ4b/wQVTA@QLqQADKV)bA0T/YwTT^iTAr5:6mttttrrPr6srkh546t3rtkNt4>6rKUnbF>QSUVWVaYLcYCAUfY//!rTHAAiS",
"m6Nr1ftk,,P,P65;er6K,21eN:PkrrKr6SZTVCLKuu9cZUARKhSTLvFFSVWR(UYiM65,rk6K+ertrN264r1N5,<PP2324htrVFAWU8IAUFTQqiUIYFVAwUFwRL//fU<U",
",4K53,rk1B4<<r61k3rrmeB3t,trrrmmKYKnALYSInLnVUbbKnLUbgbu)4UUCJ0AZ<4P6m64rt$5Nrk6mt,;4eme6Pte3<i6AfYULTATbUVqGbTUITHRQU$D0GU<GQAu",
"66,4e51tk52<NmN<rNtN6rerr2ree4h3whYUVrCLF_9wYVjnZ6LULV>8T/<0(R3wt66Pt<42r44N56=553255mBtKh5Ke6ZKiLDHFGF<VUAU0ULT)Y0GAVYARWTFGY:<",
"ZT3r3Z:m566r515e6trt6rrMt,1trt<rc%YiAYuCTWYVGiIY>pThUDKI^AUK/^U1i5kt26etr,t:r466r3NN54<mB>rN5,heu>AqFT0VDw)<TYKY0UVbUi_Lb/QbwwKA",
"6>t5P63ZteN6meN6kPhPh4<ree2kr=m<A5cTKbFTIKFswDpYf8AAi)YTIbAYpVqyP5m<N31N63r<rt<6terN6Ne66=tiN6rOVhfAGT9VCYEKwTVFKVLnAVTVzYUGTfFI",
"56<6C6,<P6t4rmr51<m2N2NmN5I6k5ZVeZ0CUQLpIvTbCV/Q;(TGvTVVUUY)UKp<rt;<tmt23r2hmk3rrrrPPr2eN2erK5N<VSKAUbUAYFAF/TF^Q8YiAT/cTVAQn/KK",
"5Ktr>6tt2Nkt2mkm2f6elN3m615r4rKrUZuK0RYCS_/iTp9Vc9TnCTSw:FYCL3n@eK4rrt645rt6sm5eKNM4554meKtt<,t1qKVKYbAAAKTQT)L)unYYIpwUUYbhUITV",
"Kyre661e153e5k6tm5e;3mm2ttNr663N4AaQYcGY/DWTVb/V0QIiCTccUVUi/8I14Nh,rPK6t6<55rmPhePtr643e2t,54156iVUkpIFU/FVQTU(Up^Y/VYC5/qbT(Fu",
"5h1<3t4;<5NNk45Br;Nr4m6mke;5:<e6knG/QVjYfV/v0/sub!G/W>Y(bAIAYUhNrmr<O2h;kr<r3rt,t;O6:4=6<.N,5:F1KOTY/CvTA9FCZLDTtbYfYYYADTS/LU<i",
"sL4imr6e425t62k-Ktmh4eP6e6m6,eK53IKwLCQU)LT)bF/A6AYLUET0YUna!QcTYr,1<e51r3rr,rK<r6m-,3e6<,2mm6eBU2KUiSQ_SAVVwIDIpCTbQYUTUIVaa//w",
"5r<Ze6erm6er;2<4t:<kmetNm6N<3rtru^SCFAiFYKVf/T44VULnuQKkw&U8UAFVtm:36r3eNN2<5Nrt16t@:4e45rt42tN5w4YK(hLTAcFTYAU)<fAq/bbDbb/Y^^Yf",
"eeK>5,m5e6N4tr545k56sr5ttk544N4rbKApUKUDbAZIFYQ0TCVEvQbVhuiYWFr0:V>t-5-m6hemkfrN35,etttsf5t466tehVCVAYAbiIuYVUwT/TUpLYYVVwR(QUu1",
"tim3r612e6r42,Km5rt>me5&k65XKNhtZAbTDbZF<Q4nTTn:UTwzV/bDTTCpwg6K,,5K6s35:55er6khK22,,kt6rm,m4NBPiVnCYhbCTGYqKWAvKFVAbLk(TLQ8FUKV",
"y5t;2;5Nr3et4rK<1N644;66-:K4<,mP5IYYU/IC<G4AY0uki4TCD/nT(TGJhT53f2ter444,6rm<m44Pr5BmeM,r6343rm5u4RQGVVQbLTDALITIAhYUK5ATrLVFy6I",
"h>r>tre,me:tem2m6Kfr6125,rN25r4PqcIDTUT0bGT/UpLALLWTFAYF3T//YpI4Ne=Nt41,62e6r4hert6ft6t5t&et6tKKVubTF>IEFLAYG/w^TTjFw/A<AlSViLKF",
"VKe,mt4mN65NNtrr&NrtrN4ert65t5P;Z0yUY/TW/KnU/YYGGD^Arc//inbUTrLVe4Nr56NeBhNhrrK:1t2r2Pk46rKm<,m3rF/YkrU(F<6TiFCTFCVMC/SuCcAaxbwU",
"535*Ktkt,5t,@<<655r~N23rrN66t1tt<ZKUVVQpLFTwGIbuFFVUbVTD6CwUUSFK633,krNe6=N2,m4tekttem,ee33h3eeitAUY0iUUFVFQVwmpADGTuDqV!VLFikIr",
"r5N2rNN2kkktX64645mrrB24e3tt1h3fKFSIFFYVK0pTTCV3QwYcApCTYaC4nVipMmhkmtm26-64e,N6e4mmtm25N65h4tmNP6TuCVyniU_TwLY/YiUQUZUUAKbYAUqZ",
"mKrhN4t,tN<N,<2rmf2te26r,>rrr1V4FTCUAzVEVCTYIViA/4cTTYQ^TVAFKKZihN365hk4mrtrttrrfrrKrkk,kNk:56PZkbTAuuKfq/U(fULFanf^gbZnF/LYaC~6",
"6JP>3hht2e;6N6MtkrkPe5fe5OrNrNZekUKUYAT/AYCbYrALFWIDYTWA0T4Tphwwm<4NPret361e465trPktr,th6r:m6rt1fiF(^KUw4/AzYTAGpTnAAA4YQ/G_GTII",
"1~th5m6eKNe1r,6r=226tN6r2e=Nr5b<t>ULUL'T0q0K`FKapLG/IFDK/^IAAsGiimm1r6ek464BmeN564-e6e<51eP4r1K6~<AYbSqQYSD4UGCLVTCuVATYkD/KUTFu",
"re43r,,5Pter3;6tB6t6te6Nrr15e56kkIYUITTUnLuWSbAp^AYwTnALA^Ii/YUwu4kmrrhNmt1P5MPN4kr2@4err6242tm4YiTbIYqIAnVT`GvLUuFiTFcuYaY,UVYp",
"5t1-2rftrN3eN<e6htt6r2Pm636NK354VCUTYQbT/Acc8Un@a/YKFTcUYaUUiYFAt5m4N14,=3te6tmrrrrrtPePN56tmrm>IunDYV0TTGxUT4TvCV'YSVcTanu0TcU5",
"3yt4trretr4rk;5t=mm5e34>mtr6K>tPY)DcTFCiSLYq^UVhn)FIUG/VC6GiVYKK61rB35NK14eeNteNtNN<t5N5:r,th2rt<QUUQFFTqT/Fcni8GZ()VFT4wAQ4FUY:",
"r1,1rke1t<KrNssh6:ht4rK43N64<5r-fGTIUTYVWLAhaAYVw/Qcb)_>Yn9<wUyi3tt,mrNsr55e4N62tPrPr34rerem65ftUqpIVTVTV/YuiUT)DVU^ACbF<F6FAFir",
"i6:tK>,5243kB6<rB42<tP61:4,;r4mrrnI/TFwY/<aTh)/QcFGAVY^ui^TiGA3r4Kor,mtNeN4t6N6e615i4135Ntr-t4iZICCVVb<A/Gc_ARU4RCA/TUVYAGATLYre",
"e1:mrP35t13kfee1fetrN5;2,NN34tr6K<IUAY0uDDsFKUTTFF+TaC^bUUYAWbteNe>t3653P4N6e3k5ettNNt6tN4Ke,teKIZiCUYhT0IVQYVSZh/hF)/STCUVp^UZy",
",i:51KB6t5k3rmkrt44rtteek6tNr=eZiSFwi/FYbT4/GYCQKcRZQFUAUKUVUTYq<KttrrtKeeN6mrm5Pm6>N45Btr<eetri6F</TnGD6FQFU^FFF0CT^0VACKKiTVA6",
"u5554irNm564r23mrr<t>t3N,4,k5t1NTUDvVTCppLUiwUYTDnTYUpwK/A0AcwyUire3erm66t62B1Pe66e,55thKrr6Kt:5wuUTU^YVvYRniTQcbpTF(qqUUafYIKi4",
"t2Nm;K55>564r2k2;Pr5m66r,e:,54N5IAVAGY<ALFFnGTfILFTG(9GYAuwsiFKiriteeBe:t5N624>25,m<55m346er5mi5hVYcVUV^T^<TDV/>T9u^TsT!CAYuSK0u",
"Ptt64rt:<t5P462=4htte<m56N6+5tkeSbCnU/uAiUpGG/pLCTR/AUUTVAAV/UAwm6eNrB*tNr5k4Nemr5tt2kre>t54et-Iu=/VVUVa^T/>bFC:TTu~6AUWQVhupVbu",
"<r<N,2tP44P6r3eNee,6t56Kmt56imeyy/VTAYInLDyTQACKSAYcTTAYA/QUAUYw<636Nhk65kr2t653<<5546rIe<Ne53Zkk1wbCvKULCTDDIu<YUAGtKAy_RFwAcFZ",
"6<e5fmKe3t:3eBf62te2r,5,,kt,<54ZwS<^a)sQ,GsIYSVYFE6CFDuT/YZbFnh4m*t564r3t6hkf2N:kr6t5e3em6ft56e6m2C)AGIKFYL:^Awi/VUUSVIfg0FqQALe",
"515k2rKr3t3N3e33te4rrtrt663<t=>S,FQ_AwDLUVYGL/FRUVVw/VFbTV)iIFpe63rf56Z6m4455<Pt561er6-K414NK4;hLnTTYTV(Tf_CTTHVYwF/TGw4FULCZZuK",
":r6h6:5r4P45r,1ttrNPkr661trt62365jLcFzTGUv)DbAUT/wwcT@/Tp4TQITAyi564em1r5<5<e4,teB56Pe15466,mtrZsuUCYLAcTV^YYUhAbKFUjFQCcT/GLby5",
"Kt4tr3e6B3r154k,P64Otk1ft63mrtfemAKQbTATYUTcb)HUaTA)TyFsa8Yw/Ci5Pih6mBt5er2<N6366m=5Nr354566k53m3KuSTxTAFTVYLahF0TYVbmFRUID)/IuZ",
"Kt66r6>Nh5@36mk=rtP<,4t2114363Nr^CITTLYCUZTFYTF<gaVIITb6SQGQG8wiK51r65r.t=Nree335h45rN44t6r6e65NyVILYAA/AYTKU)AV6U9A%AwURCTDSQCn",
"b33656:PrZ<6rtt<f2663r5rN,et5,iquyLhYUUcVCVIuQHAIY>S)LQwnU^bcpiIue4e41t6h6N<KNN=4t6rNt<41etKKmt63VThLIIT(AiVQFCufUwTVRCTCUnYbqup",
"PK5e5r546mKmeht15,r5NK6r<Bk3;54iqKAwI^/AAVU0<STcUYwRVHRFu^/i8A4pOK:ih65f6ke6e3r2rr=5N6r1re546irtKGLG</LYYVAVIUT08UYTUUUw'T8VnViu",
"K6K6mi5I1,546Nre634653e45,M5r:6kiZ)4iUQTiYAsRFLhYYF<CTnATWVS>)eeq<5>45516P,N65432k6e,6=P3eKr*t3KrMiQzGTkFTSLVFI6/KwD/LSAYYLV/0u6",
"<I6h6h6e36r43N55t4rt565r5eN5e,<VVDVpiUCbFIU/TuFZcV/bTUApDb(9wT6Wek66-t635,rtr<441mkr66the666mtmriKTAYDFLFU6TYYpfTDL8TTA(FUYaIyI5",
"rrmf24,<Nf6t66rk54t261;464rm4rkLTcUbnc)UuUT~S4QFQDUCTAhFYQ/VqVIup4t333<t32OmKrN2>Kmk5trt;em1t<46eKFCTbNDFFY/FYI0AYWUw/VIFF>YCTqy",
"-&Nr2fe<14re6K43fr455N4N31Bre<>ZYwCVZ^AcaAKUG/CTTFUwTV^VTw9iGuiiV4r=6tt3r55e6K B<trf5rttm46t664rmnF/UTIUULQULbUWcKQYTGIDFT<^^Vtb",
"mr22m3=te5tK=er5trr,r655335t432<pKYTFYi:FYYTKYFF:0CaUY4SFTnLUQU,1t>6rth:t5e;3tkr46N34rt5r<t5te6PKKVUTQV6Q/8bYCUDDTTI/8TiYYUcLKKZ",
"m3N2,tr54ttNs3rm2r=r3555r634r6ke/iYAIU8uT<LLKFyU9TUcDIYQIYwQ>TITe>ir6e,4KrreeN32ee3t656Nr,t6N6>ei<0AYQ4CFTFAY/UbLL9/^V/AUa/biTi4",
"Kt<:=2P=56,ttt;,k,r>mmf3:N3e4h6tvTYaDCsk)YwQFVCVSG/IGwDQUVFKbbUKrree4<:66t5t,<Ber6KeNmNNK,r5>4<=9IYYDY(iFTYhTYLAcb/SAmFVKSFDnYpN",
"Z4rZo663BN263t4r2t6eekr@r6<r:3ttiYwcTUV5n/:YSQT/UQGuFGYIFVTnRYiYihk655:tet6rP=t,,rN33Pt,t65rtt45K/hTLn^0KD0/AzR/QuYeI^GFLYAAUuAt",
"36r4e3,m36<m45rm2N<56e63K5Kt:rrNKKF0T@nST/D/^iDLwwGIFLUTUFQTZZiKe1tt612KN6hNtN6rOrNe6h56m6KNt6<5N^FFQDi/V(KU_i_TA5G0FbidIpyWL4tq",
"5Vm,r,t>r3N26r<32m5t5t65t2r5h6rtiUYCiVbsYAAETGTncCCULIU0s/UFT6Lpu66mm55te,,3em,531rP55ttt64rt535VV)FFwiKVLAwYK)TFDTUiH0wqbDuQuT5",
"KtNef3Net646tt3r5<rr>66tNt1r653NIYTYj!V<Y/iUFY0ILFTTVbaAFIUCV0>ANPstm2mrkK3N43et>m3K553trrsZ6PrV5AiYLUDD(0UsA8AU^UIA0(LV<TFwYnI<",
"4,565mK4tt65r>3665e66eer66tkt:uKyT/VZV0VuKhG^UWA^SpYVQ^UfFbwQGp3et45t2hk;rh4t61t<t,5tm5NNNh,kttmIwi6VFO9YYCKAUARYTTAIyW6bp/VbQ/i",
"t6h$rNteKe15ef65xmiBN5t6KrM3ZmiKubYAbnWFVIyFIIVFUTSITCuw(FVfGAiVeb2;3r3f6P6r=455he5Breett6r61t4II4KY9AGu^an0Q4VTUuQFIWTcpUZ</UUT",
"5kf<re6PK464k3rtef4t6tN<:5t6Be:4iiFY>AYVFDDaCVfVCVhFTF/DQVDLYnVZNtrf6,tr1e54N5rrNe<4rrrret153634KiLFLYYTYVuV/KIzUA/0TU4aKnCF/cQK",
"1Ar=eer46m16B64erKreNe55t6rt55:bYVu_0wVpZYIIUF4RTnYVpVVSa/0UUCT,kPKett6m56rhNe466563tfNkK6NNmkteib4QAAJqY7//YFATTY^UTLAp6YUTGK^S",
"5:4r>r65t=<r6e5e3t0Zt<e436124ee3UcIGV4bFbUCFq^TITCTYCV<IIFYYV0R6tPkKk322663t66Ki1h1,;ker,r1,mrwZUFu/@GDbTUTiIwLLFDqrYAY((9VUDUG/",
"i3t5et35t44t,h,mt3e534313rr36tOt4)^TF<wKYUVUmV/LTuATqYqLTVnZT9InPBP4r4rN&e5rt653,tNre:K64r,h>iyVKqZGSTIUAiQbSVAIaAViTU0FTU&RKUGi",
":4tt236,;trt5eNPrB4er6:62Ki*>e4Np3KkTbTcU(Y3T)AUUUYUiaaC)GCUcFUTetm6eKt%3rttrmt5r5trr1r5<m=N33eiwKSV_pnTpC/iLC6^pRnbYQY9GYsAIUKy"
};
