/* XPM */
static char *_098e9d1c6684f1884c42edd17544b769RENbWcEkqoZptsi[] = {
/* columns rows colors chars-per-pixel */
"128 128 74 1 ",
"  c #C47427",
". c #CA7527",
"X c #C77628",
"o c #CE7629",
"O c #C7792A",
"+ c #CC7C2C",
"@ c #D07729",
"# c #D37D2D",
"$ c #D87F2E",
"% c #D37F30",
"& c #CE802E",
"* c #D4812F",
"= c #D8812F",
"- c #CF8130",
"; c #D58432",
": c #D98534",
"> c #D78835",
", c #DB8A36",
"< c #DA8638",
"1 c #DD8C3B",
"2 c #DB8D3D",
"3 c #DB8F3D",
"4 c #DD8C3D",
"5 c #DD8E3C",
"6 c #DF8E3C",
"7 c #DF9037",
"8 c #DD9039",
"9 c #DC903D",
"0 c #DE903D",
"q c #DE923C",
"w c #DC913E",
"e c #DC913F",
"r c #DF923F",
"t c #E08F3C",
"y c #E0923D",
"u c #E0913E",
"i c #E0923F",
"p c #DE8D41",
"a c #DD8F40",
"s c #DF8F41",
"d c #DC9040",
"f c #DC9140",
"g c #DF9040",
"h c #DD9341",
"j c #DE9342",
"k c #DE9244",
"l c #DE9444",
"z c #DE9544",
"x c #DF9544",
"c c #DF9646",
"v c #E08F41",
"b c #E08F42",
"n c #E09340",
"m c #E19341",
"M c #E09640",
"N c #E19642",
"B c #E19146",
"V c #E29544",
"C c #E29646",
"Z c #E39846",
"A c #E39349",
"S c #E39548",
"D c #E09748",
"F c #E4974C",
"G c #E29849",
"H c #E39949",
"J c #E4994A",
"K c #E49A4B",
"L c #E19A4C",
"P c #E59A4D",
"I c #E59A4E",
"U c #E69D51",
"Y c #E7A053",
"T c #E8A053",
/* pixels */
"B4;##=,8gcr:444,;;1Mzr1na440g0gj34xIxxjxxPwwxxzi003akB400114:#;:43;:gI,,,#*;iGvt11:=yt;:;20881;>840i0gj40t00::80840>=:t,:=t$;tBU",
">;:,tMCMw<0<;;;:<1<40<18413xgxjj92gw3jw0wwww<gjwg<>34jMM0jn4040:;,<g8gGi**o*,IIt1,::t,$:,>88i8i>,180088180,00008>;;*yy=t1tMCAvt<",
",:4CC01<<<::<4841vMMxjgh333a<00cBGcGxLCAggaxGAcG0ggwffgg3433g11i4;><14MG,=**%<GA4,:=$:$;;>8r71,1000jr0i18ii88w>*=;:,::11tnKv,:$;",
"1n1,<04:*:1411MBCnMawxx0<<3agxZj1vi0CgxgxZAgn4M1wcPxa3<3fa<0gg4g0<:;0B4Z8;*&$$AInt:<=,t:,*>,1:,,0880r:>0i8,,>;;:<;=8;<4KIB1:;@*$",
"M44a4<#;:404<,w040gxwfggxICng4ZCMn444n0twg4>10nCnM21xIIf3wxfrN0gg41:;1B4n,*,;;tvUivt:1:,8:,,;*,:,,,,8>*>::,<,1y,=i,1iMIB:==+:=tM",
"1B1>;#;2011MCj00giww3fGcg14Mxw,00,:<:i80i01::,8011C03gBxf<3a8gz0n01:;;43:n,*%;:tUUnni1:=#*,ttt:$::,:;;,,:::,:,:,t:tiABt1>>=::4nM",
"0,,#<g81n40jj0cjgjgZkggjZgt101>0M001t44100<1yg4140,0ZjgCcjw0cg00g40y;;;41BZ,:#:4yUUCii1::,y=;t:t:;:t,8,,t$:1:,,4tUIBi:;;,=,G4<<4",
",0t4igMgM0j0jjggPxjzCg004040M0403gBkg04Bggg04M0iM8480jN4gP0jcjZj<401:;<4:nZi,,#:,1IKTiC0i,,1::===::;:,>,;1ttyiAKA1,=$#;,jZNg0g<;",
"24MnjZxj0w3wBG010400414n00akka<;%+%::;;;<34cxg4B44i10001<n<<<ffkB4:4>:,gn<4Kg>:*;,,,gKIACB1i0880tiyii48nCKIAn41:*;>,1nBM0jn<#;:<",
"iiB1jg0jcPj31g04400g0ggMn<:,::1>1::<11>:<:;:wjg1M4it800C14k<3w<0MnM04;;;4n3gZZ8:;=*@@::iCCIBUIUUAKIIAZB44;,*;;#*>0Zj1<C01;%;4114",
"0jjxgkgg0ig4:,4Mi0w<14:;::::*:;;;;@@o;::<;;#;;tAgn1t,<1MZ4GLxfkw4Cng044;;>20n1nCC4,,,:;:*#o##,,::;*=*;;***:,1BngMn4<:<1;;184g<40",
"jgjGIn04g0114:<ggg::;::$#;,,,;148t1,>:,1,;#;::::4g4:t1i40C4Gcfgg<:0nB880<,:::14<<<4aMi1Mi,:,,,;1,,::,<ii1ig:<14::;:::<48140MC0g1",
"cLg4CGM080g41<g<+;:;##;:10>,1,,11,>1,,,11;;:#@$::;144<n<01Zi0na0gw3gNNg0ii<:+@::3aan41144nMBjjZ4y,<0t414114<<;;;%1<;>211wrxj0fwf",
"Zr0ZM08yi1:;<g<;<,;#;;<y>>:84,>,*>:,,>,,,:t%1<,;:;;>k414:80Gg4gg0j33rj11400i11;;;:<14M00BMCBkg8gi:<411:>;:;;<:13n4iggjrNfcPg0gcc",
"14000,4N40Bg<#;4:=:<:4,88,,,;;*;*+o#*++=;tt1tt<;#;<#:a<<04i0MM4ZIk3fcj111nB<4n1<:=%oo;;>,1,,;;,:;;#;;,#;40::14gZBMiMj0wgjj0xILCg",
"0>:18t<4g0>::<>;,0:<4t8t,:#=;+;;;:;*&*%,,,tt<<::;:<;;3k4Mnitg0Z43gkkgg334nnM44<:<>44>:;;>>::<##::,<<0MjingggZ4NiMMBnxfwwwGICggC0",
",4<084k3;;:;=%;<t,,t1,=>==*&&;*;#+*;,>>**7,,<,t;::*,2;2L41n4:1,i1<aAxggggw3<<>33gg2140481iNM114i04004443g0B41jka0gxggg<fcAg1MC1,",
">0g0gk4;t:=<,,M4,1,t*#=:**+&*+&*&*+;;,>>>=*7;<t:::*,4>;<g1<88,14jCM00GLxggffxgw<0Cjg0g4g0j0Zn4a4nM4<nnnwCZNj033axxxxgwxPcw1NB001",
"i<<kk4%<1:;,<i481,,:=,,:>*;*=>;>#,,,>>,,<;,:,1:,,*:,<:;2Gg4giM41004iCg<0gGkggk0ggxx3<w0MgZZGngMMMnjga0gx4133w3f3wjwgcIB43Bg<8848",
"013k<:X;,:*#::440144t8,4,88804>4,:,,,,,2:;:1::;**,,;;;+2gk44n4M4,1080>1gZg103CGcf33<wgg4xjjxa4,30ag8443fgjxff433wfkxCC4134:0nt8j",
"t1nA4<%#<:=#o#,,,,t,1tt,11::,81:<i,<,;:,<::*:=;:,t4t+-3a4cBg3av<nny:4t10tiZZ414MCcAxxkwgxf0cxfwgCxw3ggjww00jx<>gxcGGjg0iMMii8t0i",
";i4aa<;%:<==:##@#,,>:;<t<:4:>>,:,,<:#:#o===,,,40,,,;;;;3wkAa4:4441:48M,0iy80nMB1gjggCaakAxxca3w0ag03gkffwwee34kxLUnC0MZNg088141<",
"v13<<a;#o;::>::;**;:%;;;:;#:;;::***#:=:,,<y0,;,>1>;;--*;w4CAcaa<i1n4tiMi:<114:,4MM4ZCMg004CCcAGIIILcccckxPPcIIGZAZ40CBIj1:t,:tii",
"iM14k3<gg41;##<2t,==:$$;;##;%#;;#,=,,,10,r:;,;>;;:&;;%%;<4<3Acxa4<144<;:141,:1t4<>080g0gCgCC004gg4CkgCBgZcZLCCn4<0MCgM11101it<,<",
"4init1143akB<<%+;:33,::;,,,:====,*,,:::<>a--%--;;>%%;%%+<<<:<3gAAa33:<<4401:<tt:1,t4ii108,,ZLZCC0j0014njj4Zj1,11MnBanCKnrrr8r7>,",
"i,,inGy1k<axC><;;<:<1<::,,,,::y=,,,11=;;;-;-%;-;><;-+-%%%;2><;4AAgpa<<<<4gM<;1Ct01,t,tt101>2MMZMIjgr0i8044t1000044:11nCiNj0wwwrr",
"it:<1ttia2skc4<>;;;;::::,,:,===:>><f,,<:%;-<%++%-->-%%<;;;:32<:2ppbs3;<<41a1:114tt1ytt::8188,8iiiBZZjCCCiinMiMi41i4n4CKCZ1r00,88",
"11t1a1vn2ppsak4:>;;:;:<<,ti,,,tt22>;;;;:;><-%%;<><><<%333<<kavkkppcckg43<<441ti4Bn,:tt<t1,M0ij840Ng0ZCgMCaCMCMCCn1axgCM000rr88,>",
"iMCntMn<<<psAaa232<:<%%%;<;;#*>;;>;-;>2<a2<;%;;;%;<<<;<kcFxxvva4s<:;<<1<400nnCit4tBit1<<;::t,,1tt8,,4000n4nCj0004<81:>1it1,,:,it",
"t<::44<1<passAAAk34<4%<%%+O;*=;;%<222223a2;222<3<<<<<aac0g<k44;<pkM414ti80t1:44inCni4:,iyy11t,,t,11t00rr8ig801111t1,:1;,,<1411CC",
"14441<<npkkAcsaaGk3:><<33<;;;<>>>>><;;2><>;2;<;<p<spaaap011gBgMv44t11<<iMnii4tnvvnBCittittt1t,t,>44,<:,8111117,,t11t1ynMitMa:414",
"143><<<3ssa%aaAFccxkscscxkkx<03,;2<:><<<22<223aaascsspp<<1g0414taACCMnnnt44i8MnBinn111<t11nvi1t1t,,y1MiNti11,001110414B41401<1n0",
"ggkxavAAakxa<222343<4314:<<<<343aaBa0g343kkggga3<aa4<<1gi10Cnntt1ittty14tttttv1<1tittMni4jiZ1w00iigg23:<33;<2kka<<ac4kkaa<3<a3aa",
"::;;%:;4Aa<<ap2:444144gj<::1t:$:<444g8a44444g4a401v41110tBi11<<,tvv1:<:>:<11tt81i14yt4nBZAM::44g01wgg3<3<ga2<<233;<2:;+%;;;;;;;%",
";:<>,;#%<<wgAaa233<4414<:::10::<1i111i144g4MAMgg41$;:1iintMCiM14tt<tt::0<tt,4<:11yyi4M44y1<4gg3gggg4<<:;;#**;%;;;%;::;@#<,444t<:",
"%;:::;;<<>;<;;22gBk4<<<44Mgn0<14t484000gnnBM<<4gnvt4ng04<:i<14414t4tti0gttniiy00Bt<4144a11<4gZ01<<;;;1;;>,<,<><>;:<<4ii,4:,:@%%%",
":,<:;:%$;$;;:4i%@##%<kg0gana4<<ga433<<ggvvangaag444a0<<;<<4444244g<344gg14<n4<4g14443a3paava,,>>;;,,34410i,1:<<:<<,tt,,t,:*;*:<,",
"441ttyt1:;$:;;;%#t,tg;>:;%;%:><,::;:;%:<;<:4;3;%:;;;::<,<<;:;;;;#:4ag<ggn4vaBvgBvai43<<%:<<<>=>>;::,<<::==,==,::;>$;;$;;;*:;;:<t",
";;<=$::<<4nt:<;$,;;;;@@@#@:=%:::::;::;;;;##;;;%%=%;%#;:;:;%;>:::<,4<>><;;:;:;;::;:;::;>;;;;;*>7=>:::,::*=:=:i#@;%;;:::*;,ttt4t,<",
"41,,:4:%$<14t44$:<;::;:::111::4140:<<<:4<<8444:>,,4>3410Cn,,,<<::;%;,::;#:;::,$##><::>111<33>,7,1>,,==*=#o=@@#.###:<:::4t411ti,t",
",8817,,>,1;::,,4<,<<0i,<t4t180:4,,,4,,084,,,,>>>>>,,,,>4,8,1881t,,840>1<t1,<,=:;;;%%#;::=,=,=7,7,,,i=7,===**#;;;:;<:;<114111,1t,",
"11,,>11;,:,>,*,*#;;;;;;#*;#;;**;>>,;>*;>,=*o.;=*>>>:>;;*>>;;>:;*;::11,1,::11Mi<::;$;:;;#*==7,,,,,*==:>===,***##;$#$$:=1:;;<1<111",
",21,y::,:,;#;,,14My:41t100ni01j8>,<t110g0:411i,0MnNiii41,>1,:,:::;;****:,8i,1t4::#$$#o@***=t,,,7t,====,,=*o=*===$%;;::;==;tt11::",
">,==,;;;::t10NirMn:1i0400<148444111:111111411<<1n1n0Mi4iMCMiZ011::>;&=,,=11*%1t:;;$%@#@#=:=:=7,=,,==*>,=*+**;;;:;$::i11n11<111t4",
",,>*#>>t1iBnziMiw012<:>140<<<,>><1100000w1111100,>1,<1<ni4ntMi11,:#@****,:1::t::::*;#*:=,,,,t,,,,,,,,>*=>*=:::::;<t<;:=<;:,;::,,",
",,,*,>40Cv141<::,884wrii40j0110000j0081>wrgg01j<t1>414g0y1vt,>:;*;;:,,,,,t101;#=;@##=,,,::,=$=:1t==,,=**#+==:;::ttbt14:<:,,84,*,",
">>*>::1tMtv44<::8rjjrjNiriNZZZZ008irrxjg00101<184nMM41gM01:;>;*,>,:,>:,,<,:$$;+*#:>,<4t,>:,<:,<:=:=,=>,=@***==:::1tB41,,:,,,,,,:",
">>,>;:#$tintva<;,,rZrr1>>rKKGKZZrirjrxj01:>10nM:4vni01>;;:::,,8,1>:,2;**=#,,<<t<::#;,;:,;;1<>:;:**=:>=**=:=,::::::,::141>4::,,=,",
":,t,*#**>,ni114<;1144ngxNiMjij100Ngjz,:;;<t14ngr1<,:;>=;,,y1t,<,*#;:;;;::::;;<330Mvg4gt441<404<,4840<gkM33,;;;;1,,,$##,141tv1:<4",
",70,,:**#;:4tM1n1<1;1,>,:<04,:<1111>01121i0Mn4>:=;:,>,,,<<,,:;*,,,;:;%::3aABx3a31ig40C2,:4i48<44Mi88in043<w1xgg1>>,1;;#;;;;:;$:1",
",,,:,>,1>>;#;;::141nj84<411;<002101MMgi8iy<:::;,::,;11<>;<;;:>11:<330,<<kinni0a44182,>11tM0<>:<w00gg0000<<8414<<44B:<::::,;;#;#:",
",,;*;,,,:111:::,:#;:;;,14::1000,,>:>>::;*;;;:10,;1,;:,;:::><:<4cg1n404<n4401:44,>08ijCMB41n00jgx0MMCM4041410144i10n4gw0g41a<;;:,",
"gI4t::>1:#;;$;;,1y::48;;;::::1:;*,1<11114114::;#:>><::0w444n1044g0804i1:1143MgMnjj8jMxxGGcGAxkgGLGAKIjxcCgZ401gg4Z4<11401,0Ni44n",
"0Z0i44ggg<:>:<;;::>::::*#;1,##;;:*;:#:;::#,::;;,<gg0g440i440it<;>0gj0<0jgCgxGUUAjrrjgg0<0cjg33g04wgxgw<w<<3<4jcCCZa4Ng40r41gi141",
"004;>00i1:44avg33;>>:<,<<<1>,;,,,41><<;443<8gg1<g044440008>1C4MCCgNxiKKLjgkkf0gwjKgxg0M4MMa4gn01:1w3<1gg4aggkjjj:w3axxGa0B00CC<M",
"<0BM4t0041:i0iN04<<:<10ZnM114t<00gMg1114i4:4j<i>08t808rNCCMgn4kccg4g0x0gww33ww2gjj000<Cn<44tg0n0i24411i4g333tjj<313300kwg0gcGAn4",
"xxxxxkCx4jjZZz80n41>>jr0080101<401i1,0Mg0xgrgZjZZBiCjMgLKLxCx03wggjgxMZN001ggz841g8<:41:<:*;:%;,:;;;;;;;::4i11:0121g04anjjgcg0gj",
"Mggg<4<:gwxKPKKZna4ncgNZiNiiggjMCMn1KxxZcKLPLxZgw2Zg0jgxj0gwnjg04800<<:gg00<<>:1,:;:;;484114vtvni21ikB331484;;:::;:21<1n014ZjZ2w",
"i10444133ww0jrjj<ganxfxkxcg0jxxjxka013<<j000g4wjw0g0nMNj0840M044w44,4<1::-::>>y4C41tgrN0Mg<t<t<tCGGZGGaatiCyg0n4n4:,:;#;>>10ii8g",
"4240aMg040MxrNjjgxkkgggCgccGggxkg3ggg004<8jjMMCgwjjgi40044<<4<:%*:1<>04CC3k4nBiBKM4t4:;,*#%;:;:,:#;**%;;:=;:t0nBAn1vM4n0<;##;11N",
"#:4g830444ggBNggjjNg0r40jZZZZ0gMj0ZrZz11jjMg441g400i1,;:,>:<<gaC4w21ttMAKM,::,=,::#**#;:>:,;;;$@#;;::==*#@;,,,::;4i01,:<a<,1<;+:",
"#;;>:1>10a1441gg00gggMaagjijMMnnggggg8i<0i4<<:0<<,;;>,01<<4800MCZCi1::,,t;::;;*####;::,<,4t,<<;t1<::<=*::;;#*=*;:,,,,,inBM4:1g01",
"4g4:4<,;;;:<:11w00MgM:;::<,<<<i:;001;;:1:>;;;;:<1411044<11448t,>,,>*###;*=$#<,40vBGCIIUGIIIGUUUIIGIFKAv1<<8::*:;,;=&;:,,,,iCCy41",
"BCg014j041:;;;::;>;;;:;;;*#+;>:><>><11g1000gn441gZjN1t:<>,:=;;;;#;$;;14vaiBAIKIKCBv4n101MCCnt<4v4tnBIGAAGIUUCKCC041,,,,;***=;>0Z",
",:iCCtM44:<0144tB1<ngi04144,iy00Mg0ni41nit,i4:::*:;:,,**;::,1:<1nCAICKBMCn1,t4t,,,,:,titt,,:y1,::1ttt1tiMi0iCivGKUUGGnt1<:#o##,,",
"****:,tiM40j<titCCKM4i1t4t,;;;,=,,,;#;::#:;<,::<nBM4ZKILnvACGnAM1100y41:,1t,<tt:::<it,,,,t4:=*$$==t@$$$;:::<$:1,1:tCMZUIvt<<=,**",
",,#o##::;;::;:;:::;;,:,,:*#*<,:<1,4114nCCAUMCGMn441101,04,:t<:::=::,,,,;1tttt==<,:y1==t1ti,y<:<,:tttt:::,,>,;:$$$::1yiiZBvGIn::,",
"AnIn44,:>:::::4ti4vngMIIKBAZIKiinnZ1:1,,,tt,*<:8,,:,,,,,:,y,,,,>,,<<::;;;:;#*###*:*;=,::::*$#;*;#:;1$;::1>::;:,tt,#$:<1:1iinBACC",
"8n0NCCACGGCAMACMMvtniii1i1<:,y::;;1<<=;:,,::;,>::;;,1*>,,::;,,884881t,811,,,,1,1788it4:,1i,,,,80w,0>:;,>>;;*;*;*$%:;<<;*::,8,::t",
",<;=;,,:<1<::;<t;<<,,,,,:;,:;*;=##=:>>114;:yi81,1i1:078814<<<4,21,10001,111tt1001y884::i8:100884>180tt72711,1:;=##;,:=:>1:i8:;$t",
":,::,8ti,,,,tt1,,>:;,>,;,::,,,,1tt81t>:y1y1KZi0010t11iiy110r0M8t11,tii8,:8yt8i08,y718iitMii0jjNMr08g00,00>;172881,188i88t,,:;,<;",
"0,,18i188,,ti8,8Mt,,>002>0ii1t:i84iyi8::::1iii1,477,i,187r8,,:t4i,,t=,,,,t,:<,t8,i,;:t,ii14t,888r,180NZZ0:,8N0iyvv414<10081:4,ti",
"04t180801::8>iM4411,tit,8878yy8i81=:t,,i,>>,r78,8t,011,0877>:0011ty:,:::*,==,,,y,::::,i,,,tt,iii,:y:iiMMtttiiii11t,tt11,18Miitt4",
"y0,iii0,i:iiiiiMy1ti1:,t,,,==y8,t:;,,:1t77rr8,,8::,,,,,,,,88i8884084::;>*,t41,=,:,==,,,,t,=,y:y111,y88Mi,:;,=,yyi,t,1tMi0iiiiiii",
",tt,,1t,yti,,1,,:,;;,,,t78,7,,,>;*:,,,*;==&&*:;=;*o*=:,****&o****,4>:::,tM0t871:,11:8,,t==;1,y,::::,,=::=:,t,y,1,titt,,,,itt,t8i",
",:=:=*=,:,::,81,:1,14,t,>=>=***>:,:,,*=,7877,,:*::::,,,,>===,;o****;;:=,,,::0,,y8i7ii0M1:;,t8y1>;17,4t,1ttt:,=,*#===:t,,,,===,t,",
":1,,tt,49280,:,:>,*+=;,**,,=,>=7>>*:*&*&&&&&&&*+*O&***;==,,,t,,=;*:=#***;=;&+**#*>>=,,=,,,::>8880M111::1,,,;1780t1t,,:,,,,,t:;;:",
"804w00,:>,,>,,=****==,8,,>>=**&.&&&=*;&**=**>:*=+&*&+OO&@*,7tyy,8,,,=,*:;>,=*==;**##**>=#=*#*==,;=,,0<,0it;,00007t004,1t0i:,t,1t",
">,,,,>,***##*::==,,,,*+*&&&&=>tt>iiyi817yyyy77yt8,7,:=*&&&&&&.&**;=***=,,>=i*,8i,1,,,==**=;=*.@*#;#*****::,,>1,>,,8t;:::;;,,,,::",
"*;>;;*=:=:*,::=;8*>*oO++&&7777yyy7titii,yyy777tttii,,,887>&==&&@&&oO+OO+O +&*&=,,=:,i,,,,,,;=:==*;*;*+*&*******;;*=***##:#@.*;*;",
">==,,,===7,t,t,,*,=*&&&&**,7t=t,77ytt,tt7ytt777:8iyt,7yyyt77yyyt88,:,=**=#**. *&X*=>*&=88,=,=====*,==+==:**=o=o*=:,t7,,,,=====:=",
"1yti,7,,,=**,===&&&&&X&&=787tytty7=7t:=,77,177,=,,,t,=yitt7,::t,,ry8y1,ytt778>*:&&&&&&&===y=,,,:7,7,77t==>,:7,7,,,t====,,=,7y7,t",
">,=>.&&&*&O+&&&&*&&=&>>>7tyyyytt7y77t,,87yyyyy,tiiirtyNiyyttiii0,,y,,,t:,ttiyyyy*&=&&&X.&&@*,t,:y:78:t:ty877y==,,=:==,,>,==&=>==",
";;*=&.&=**=&=,,=,yty7777=,,=,1ti7yyyCii0yyyyyZitiiizyyiZZyytCZZKNi,iyyytit,tt7777777=:**O&+&=*===:====&*+:=*&*&*+&&.  &+@**&&&=&",
"1tyyyyyt,tty77=>ttt717,y77yyy1yyyyNNZGLKKKIIZTYYYYPPKLGGYZLLYYKKCNN0yyyyiniiii:1tyy87777=,**++O&&+O+&+&&=+=O@@;=;>:,77:7ttyy7778",
"7yyiyyyt,,,t7777tt77yii0yyiZZiiZZYUYir<100i0yyyyrr0rjZiZyyrr8rGKZGYTZZZinNCCi8yity=>7777ti1t,7,=*:=>,,=t9877tttty0yy7,ti7:ti7788",
"iZZNNiiZtyiZZytyiiMiiMNCyZyZKLKKi0ijj011,4>48iyNjjZjiijiyqiqr80NiiiNiiZTKUKKZiNNyyrii8770,7y7,<1,877y,=8:yr7,t,,,tyy8iiiyyZNii8N",
"LZLTTZTKZZZYZZYYTUTTKKGGNZNiii888y78,81<10n8ri8t8188,0,1887=>8>><88iNNiy100iNKTKMiNZZ89qMM7ii0Mi,887tyiyyyi,inMCiiyyiZZKHYZZKLZZ",
"44MM0n34yyij80Mn0404t4100<><,14iij00iy1110i1tiCn04:11n4iBng111t<>41,0<0gjj80j0NZZZZUICCCIGZGYKKILZZCnBKGLZKGITUTCZCZCMiiyirigx04",
"111:11n:,788011::i0M0g11yii01t<;:,;,;;*@##@#;::;:><114tit4Mngg4n001>t<1141ij1tNiMMiiv4000gMCNg0MZi044i00g00MjiM<<<11><117q89<8<<",
"<:,41;,,:>=>;,:;,;>,:;;:#;;:;>:,>,t4t,,>:<8>:,:,,,***:*::;*:4tiinn00t41,:1,8<<11i1,8<:::1>>4i>8:71181:04t4::>::1<114tnMCr88,80i,",
",,>,,,,,,,;>,4>11>;:,11>48114,;:Mi1,1t1:::1111,14t:=;;;:>;;##*;;:1,<MMiiM00g0111144MvnnttvnM<4<491114010aMgiiiM10<1>:<:>>>***>,:",
"gMBMn::<4<<;;<<i:1;;:=;#;,::;;;*;*#*::===$@@####=,::,t*:110tt,,,;;*=*,;*;:;,1184::<1,11,1n1t44004,,;<>:>:#*;*,,,,,4,;%1,t11,1180",
";;:;;;#o@#::;<==:;:;::;;:,,,,,,:0t,t:=:==,,y::=:,,=,=*@*:::::1,,11<:,44,<14,,,,;>:,<,;;#:;**;;:::;:;,,1812::,1<<>:;;::#;,2*;;:::",
"4;;#>%;;;;;;:::*+:><;:>411i:141tttt<t:,,,,:=:::4,tt=:,*,==;:=:;**;=;::**;;;$>,11114::::;n<4t8t4,,::::>#*>%%;:#%:>>::;*##,,:;;,>4",
"gM4ggww<<<ggk04iAcg344:ww>;##:;;;;%:1tt,tt:::t1<,:t,=,,,,:=:,,,=,::=,:*=====:,::*@@=;,;::::,:;**:;<>:<<4<<<4041aMB01t40i00442CB0",
"1<,4100ittiii1<1C141<34kAc04;;::;-><300<1<11i,,tt41ttttt,,;,tti,:<:y0111ga<3<<;%;%%<<:;,<;:4a3nMgg14a4n48MnnC4<,1i1tM4t8i,8tt4tt",
"00i0i0,,<tt11tnit1aMa4<skkccj<>;;%:;;<,134<:=t:::it,;;<:,=:t,:::<<<,g0,,<-;;;;:;<<a<3kAcg344p4t00giM<<0i0ii,11:1,,4nj41j,t440010",
"ngM1;,1it::<1nC4t4143;<vAcAg>%3<;;+;4,w1,,ttt;t:<:,,=:=:*#=,::,,,i*,144:>;-->331aa<<<<i14444<<:401,0,t110i000841431KZxZ<j04ZjNZj",
"4ZKCjrrit::11nnt4n<<kAaa34<<;;;<,<1i,,,,,=*.@@@@o#**=;;*:=#*#@@@*$:,,:,1<>>-;>31va333g2,:MCnt0t,91,:i00MjZZKCiM4MtiCZ0zgZBN0i100",
"jZZGN,8r88:<:tg11M3aa<:%:,:t<1;#=$#;;;;:;$#:,<;:;,,,:>:,<,,:=4=*@#=,:,,,3>4;>:<w3ccp10g4<1g4yt,18810MZCMC0i4jBCaaBAcULPGKGA4000i",
"rZZZN0rr0:,n1144n4kk4<%;t,,t++$#;:;::,,,,,,02,,<:12<4t1it1<::>,1,=:*;*=*::<:<#+<<<ck44gg$4iyi4,tj8jKGZi11gCnCFUGcAkGAgAIcGGACat0",
"ZLPr08r8t<ttta<va43:%:at,,;;#$$;10ij114,11t<:;<<<t4t4:11i1ii,:>:,,,,;*;#==;:1>;;<<kka<4t;<Mvt:iii8MKZBM4:MZiiGcGCCIIIGcFKKn44414",
"Zjrr>::,n1<4<<vv<:;#%;;;*;<:14441::,<,00t4t,,tt,,,1,,,,t111<,i90,,,,1,**===,><;;:psAv<v:t1t1,888iN0ICag:1:41jBCCaAinCCGMCnC41M0C",
"808i01i414gga<;#;:,,:;<#=tn11,,4;:>;,#;>,=;:::;#;#@*;;;,:,,,,,101<44M::<::;*;::4>:<4Cg3k4g1;<,40grxNjnMAzj8i4,:<11>,t1<4n44jMrg4",
",808j<0g0n<>;:;1=*:>,,,i4:,4***##%*;;,:;;:##*;;;;#;:::,>:*****;,,=:,t::,481i1:,>><0>;<ggg411yit18rrr0iZgiKCZC0gMBZzZgZiMnZ01t,8>",
"0444gg4#>,<:;#;#;:,10t::,:;::**;:4M40Mv4400gi1:,114i14ii0gj0ji0t1t;;*:;;,;::1>,i1,;:>>;<avn4t44<,>r8,0,1rxgZ0ZG01Zc04118410t114i",
"ggn1<<:::;>>::184:,,,#%#*>8i0M10ni:,:::#111<,181:1041878>18,111080MnMni00<:;=>,111>::,;:%;4i1::<1,,,,1148,110100>1rii0t1:<:11y00",
"<>;::##=:4y:,4<>#*;,:t4MMM414<,1104MMirNjIZZZGLZKBUZZGZiGGZiZZj0iZ0,<::<<1nnM4:;;;;:<:;;:,t;;;<<481111<1:>4,80001:,,,tiig34114g4",
";;;1;;::>::;;,:10ii0i<404<t11ig0MiKKZNNNZMii7iNNiN,7iiyiMZiiiN80KZKMnBGg0i00484M4::>*:::;1,;;1,*;;<1:44t41<41y<11ii81B4140:<:<::",
">4,0,,;;;#:4iNg44>001MiZZCiiZZZMy7iii087y,,i9188i8iy1yt,,8,8,,8,,1tiiiNMZGBCK<001i0M41:>>,,1,<1;;#;:::;<<19:<:::<3,:11,>>::;:#;%",
";;;,yy1y111<>4iMCGGCnM01,iti,i,iy8i84,>:*o+++*;*@&++++**#=>++o,;1::t,,ti8itMZZACT8g48441ni1>>;,,>41<<<;#:*#:,:;,;*;:;#;;14,tt14:",
"0g8008rZCMMriiii0,,,,,,,*>o>*&*>,+##*#===::,====,,,:,*:==:*=:,,:==O+++=*,i,,7==8iZZZZZZr841gi0::;#*;>>:*;:41i>:y04>,:><,,,::;>2i",
"80ZZCZZjn187y1:**#*;##,,,,,*:;;****##,1=,=**o,,,>,:,,,,,,;;#**#*===,,,,#+*&**818i7iiNNiNMZCz11<<14n1i1,,:;::%*;**;>;;<<11,10,::4",
"ZMrr4i7,,,*O*;;=,:*@#::;>>,>:1;04t1:,,1iyy71,4t,,8>:,110101ty:>,,***>*#*>,7:,,&+o=8ii787iNCZCn8iiM41:14,2111<140ng01::0831>1nMBi",
"t,,:**;;:,:,*@::,8i:<,t,,,>,,,,,,tt,ii::iii:::*#,,,>,,,:;,t,:1t09r7,=,,;****=,,=,;+&*=*78,07,CMiCCGMCGZiCin00ti14nMCCnZZZKAZn,:8",
";*;,,:=;*:>,::##=>,,i,iittiii08i4iiiM8igiZiy70tiniii804i08,i,:,,>11,<<ii::,,*=;*:==,i;**.+,>,,i71iiMMiiiCCiiZZMiMniii,,888i4;:;>",
"#**:,40,,,,1i1,,ii0jt8t1t1t,,>,8ttt88,,<88ii08,1i001C0ZNiii14:,,i8,88*,iy,:t79>>;:*o@**:i,,;&*++*,ii88tt,,,t,:,ii,,,,***++=;,,:;",
"41>>,ttii0iii8<<>,1:>>>:**;:;4,:;;;;;>;:,,,,*:;:,>8,:8i8i>:,10ti0Niriiii1,,,,=>24:,::*;;==o==,,,>>,*o&+##**++++*o;,88>::1=;;::,0",
":,tti8iM0>,11,=:*#o::,;:,==::;,;$##:,,:;r;*:,==;:;;;:>:>>:,,,81i,8,:,8Ziiy,iiy8:,,,11:::=,,;=>>==>==,,,=,t,,tt8**,;**##*,70841,n",
",tiMM110i8,>>;::y:*<,,::10it8CKCnanBBBig4a4nn411y11,:<:,<::,<,,#;:8872i88ijt08Z841,,,,,,1i1i87,,,,::,>;*=*,;>>:;;::,Z01>>,,:,:,y",
"Z0001t8>,;,tt:$t:;,4nCGGKUI1411,,,::,,:*$$1:<n4KKCKACMnt,4,t;t,;,:>:=,,:,,400iNi1tyyy,y,=4,,4r,r,171881w81w10>::,;,:t,,,,,8i8i,1",
"8888,:>>::=#$;;<tvGAG44,:;;=;*;:,<,;:,,,t,:::;:>:;#=,1tvcGLCtitt,,=:22::;>:1>,t0n0M8yt1i88,,,,,>=*,y,::>tt,;>,:,:::1i,8iriir00t1",
"8;;;::<,::,1tCFKvt>,;%:;,,,i4Mitn4Mxjijinn4annnGitt,,;;<:,:<vIUBC01:>:;::,,>;*;10t0118ZM,tii,yr7iyyyM8=;:tty1,,itiyii100riir0t;,",
":,,,:,:,4iLKn1>:;:;,,04Mn44g1n434<40ggg0vg0n14<4na14,vCK<>;;==,,10Knvv41<::,1,,:,,>108,80MMCgg,r,4iittt,,,,4,t8iiyyy8<048::18>;*",
";=:<48iKCi01,=,*,tiCaniB481;:;;;;:::>>1,:<<;%##;#;>14iB1wgMng0,,:*:<tCUICt<;:=,:,4:>,808,;14:1rr81,8,,,tt8,,,,8riyii188<118,>>>>",
"::t4CIGy:=*,;,LIg0ng4#>:::44841414<:4:04g40ga1ni<<<4>>;:::<:48Bni1:;==,,MUIC1:41,$=,1;+*00010000ZM00iniiiiiiMMij00189811,>:,4t,=",
"CGIA<=;;1;,ig4<Zg>;:<:11<3vnM<g4ZMM0jggZ40gMCnnM41Miiit4::;><0ni114i,,$;,<1BKiy:,<$#>t,,,088ti408448MkMtg4M041<08i,87>:::2y,:<ti"
};
