/* XPM */
static char *c0a50c45f7d44558e5a63ec651f029f5Ch0Izet86yG3qGVf[] = {
/* columns rows colors chars-per-pixel */
"128 128 83 1 ",
"  c #350B00",
". c #3D0D00",
"X c #3E1002",
"o c #420F00",
"O c #451202",
"+ c #4C1604",
"@ c #4E1806",
"# c #4D1708",
"$ c #4E1808",
"% c #501704",
"& c #541A06",
"* c #591C07",
"= c #551B09",
"- c #5B1E09",
"; c #5D1E0C",
": c #5C1F0D",
"> c #5E1F0D",
", c #601F09",
"< c #5B200B",
"1 c #5D2009",
"2 c #5E220B",
"3 c #5C200C",
"4 c #5E200D",
"5 c #60210B",
"6 c #62210A",
"7 c #63210A",
"8 c #60210D",
"9 c #63210C",
"0 c #60230C",
"q c #62220D",
"w c #62220E",
"e c #66230C",
"r c #64230E",
"t c #63250D",
"y c #64240C",
"u c #65250C",
"i c #67240D",
"p c #67250D",
"a c #65240F",
"s c #67240F",
"d c #68240E",
"f c #69250E",
"g c #69270E",
"h c #6A280F",
"j c #6C280F",
"k c #642410",
"l c #662510",
"z c #672610",
"x c #682511",
"c c #6B2610",
"v c #6A2711",
"b c #672812",
"n c #692911",
"m c #6B2812",
"M c #6F2810",
"N c #6E2811",
"B c #6E2911",
"V c #6C2812",
"C c #6D2A13",
"Z c #722912",
"A c #702A12",
"S c #742B13",
"D c #742C13",
"F c #702B14",
"G c #722B14",
"H c #722C14",
"J c #722D14",
"K c #742D14",
"L c #752D14",
"P c #742D15",
"I c #782F16",
"U c #792F16",
"Y c #763016",
"T c #773117",
"R c #783017",
"E c #763118",
"W c #7A3319",
"Q c #7C3118",
"! c #7E3319",
"~ c #80331A",
"^ c #82341A",
"/ c #88371D",
"( c #8C3A1F",
/* pixels */
".+<yy3+2qyPP5vrqy2O%+-2++&%2*yg&r55C*&3%-*<ge&-%2%rvt2-t&5gg5P-G;#Oq,==#.O*-***3jC5r5***&,%ei,;r=;ir%2%q,;+,;rQ;&#DDrMll+q-gCy&-",
".*hC3*%2-yCZDvq2h5+O&@<22&@-%5r*y,5C-%*%*-<ye*,+-%y3g-qv&r5rZD+g&++i;%=+O+--**@yee55r-**&**-m;k,*;,r-q&D;*%-,M^r&#UG;vv2%i*gD;&#",
"O<2T22---yMDZPr*h%%%2@%2&&+%+*--g-2y&*&@*<*<g&2+*%5vt=tW%i5,vP&C-+%M*#=O%=;%2-@3jer-e5,-*-**;,,,,*,r*;+D;&%&,v^,$#UPrC,;=C*rG%#O",
"*ytH2%-25CZDRnv;h*O*-2&*+O%&%5;*gyh5-&+2%*2yi*-%5&*Mq+tTOg5;-D-v;o;,=+%O;;*%23yhirrqee,&*,*;,,i-*&rr*=+r,&%=vM^k$OEPvP;,=q-2C+-O",
"-gPyq2h-qhCDZCr;5%O-32*%+++**,,iyeg-%*%5**2h2****-&Ct+yW.Pr;kV;;*o,k+%OO5**-5gjg=-i;ii*&*,,&;,i&&ry2*$%3,%*;,ZQv*+MmmElq*q;,q&OO",
"*HWtq+g2yvCZrR-;2-X2t-2%%+&e,&,,gyj*&*-*2*et-&&&&2=C2*2W%qr+GG;#%%,i#+%=22*2hh5r;qrrri-*&,-r,,i%&rg2*%&-,+%=,M^k,+vMvCkk*q;j,; +",
"tCW*j&y5yCZMgWv*y%O*-**+%&*i**,ijjge3&*2-*-g5*5&@2*l<%2v&,3;Mk,;%+;k*=;**5*5j,hg=riiri;-%,,M,,k**5q*%=Oqr+%=rM^l;+vGkv,*-y5hq@.*",
"5TWqy&qqZvDZCZq-y%O-<2*@&%*i,**eyhg533*-2**h5,-*%y-22<%HOrq;D;x;%+;,%-*&5&*5eg,,&**grir,%*,&;kM-%=C=-;OP,o#;,i!;#%UUk;,>-y;vyOO3",
"hWt%2-3tZqZDGCq2y3+O-*&&*&=i*+**rj5yq2*&&2ry****+3hr*&<tO2y%Qkxi+%;-+-***%<jye55#,,iii,,*,=;*ix*=%g-%,+D*o*,,kU;&+vEM2r&;3;q-O%q",
"CR*h2&2HHZyPkk2;h3++2-%+O%+,=*$,;j-y52**%2g-**5&&tvh&t<<@hy&V=rxO;y-+-@***5jy3,*#-,,i,*,*--;&i,&--y;-r+g*.%rk;Q,,%kUPri&3y,g&O-C",
"Tt%y%5eCZyqPt::=y*%+%2%O&&%-&,;,-g2jyg-*@-h--&5**yG2@rt2*C-*k#P,O*t%=-O%%%yhe**%+--,;,=--*#,#,,,5yq+=-+-;.&i,x!l==kGDvr&-hhj5OeC",
"W-ny*qqvCGqyT==-y5OO*--X&%+=&,;,;25gyj2*@=hr-*;@%5DC-yn=-l--M=Z*O-y%%*23-*ty,**,#&*;;r-***;,=,,,;y*@-,%-,.*i,CU,##;MPCg%qyyZ-OeR",
"C*hh@tqPZCMtP=--j*O%***o+%+-*,&i-hyghh3*@<h2;&;&*yPq+ynO-l2kG=g;O;;%--*t;5yq**,*&,*,,i,-&,,,&,;*-y*@&-+C*o**,kUr=#&MPMv=y-qC-OyR",
"=-l@%tvvRgMME-*vj*+&;**O#&&,*,,i2ZCg5:2*%yyy*-;*&2n:%qCX-C,kG$P=O*;%&5yy3gDi*,,*%**,Mi-,%*i*;j+*5h25&@+-ro%,,PUv*+$GGvq%y-eC%+bW",
"+tt&2yCvCvGMC-=lh2%2;&&*%%*,---iehZr52y&*yy52*O2&%v**tPOg--=P=v=O-;%%35-;y;;*,je;,*,r,,,-&i#,j%--r-%*O$qrO*,,M!Z=+&!GG-&g-yh&+yC",
"$l-@yyCyvvvCGv=kh**3*&&%++-,***rtee5;yy--g-3--%*&*C*23C%l*k2D-q$O;;O&;g-*g,-%-+,,,*;,,,,*;,+,,&,r-*%*O&vrO%,vP^Z$=+GrC&&-=yn&*Pn",
"-22-yqP&=kkGCn*3h**%2&&+O+*q%%r-ir5e5qy-ryqr&*$3-q3=@@k+q-*vU;,++*,#;5i*;i*,+*%-=r-,,g,-*,**,,*&q*=*o%;M;o%;GDQD;*=GvM;%*;rj%2Z2",
"k*&*yGP+-;kkPl==5**@*&*OO&-*%=;555Cgg-ry2y55&*#*-22*<k2+2q;yWv;*O&,*;y,**;%&*==&%,,*,-*%&,$-,;&,q-;++%*M&o*;;,^G;=+vGk;+*;rZ52C=",
"v3%2qCv-=+v;Cv*52<&@2&+&%&*&=%--5yZgg-&gyry;**+*3qC=*2-@;y;;rGi*o&r+*gr*,,**,+++-*;&*&&*--%-,;$,q=,O%&*i;o*;k,UG;*%CDM,&-gggO-M+",
"3%OqrPv&k%l;t-=y2&O&*%&&%*%*,+&55,ere-&rrgr-3*@$3yt=+<3&ry=,rv,*o*r*r,***&*%r&%+%**#*,,,;,&*,;,,vO*o+#;v*.+*wmDDv=OGPvi%;qry+-P2",
"3$OtGG-ql*-=v-=n<@@+2%%%&#+,,&*q;5ygi;=5jgr;%5O@3nC%=l:3gq+vrM,;.=,&-i*,*&-,2@&+%&***,,*,,,#---r2&&O&;x;=o+*;k^Uk;+VGv*=53tl+=C2",
"&+%hvv=l3-==v==v&*&**+*O%+&r-%;r;g5,*-r5Ziy-*;+%3hg+3C=-gq=CkD;;O%,&-y,,*&5y*++<+#&******-***,*;*2%-;,i;;oO=;,UQm=*WPv;&-;3l%=CM",
"@+33yC=3l&=&y-5t<*O*%&*O&=%;&&;ig55-,5irC,y-*&*&2-g+yy*-,q&v,Pr*o*i+*,*,**2*-O+&*#&x,,&v+--**,&;%;*%,xMx*o+=>,M^G**UG3,%55-y+-3t",
"@=2yCn23l&-$2Oqy<2O-&+%@&=+q&%*;5iir,*g5j*r*&*%%;re&rk+r-g=v,Dg*O;-+2,*i52**%*<&-**,v,#*&&&&*,*-&%==iMMi&.+*,,UQG;$PCvl;32-q+lv3",
"%2<llv=qy--<*+5y2*O*%o+%*&%,,===q5re*,r-g2-+*3&&-Zy$-n+trZ,2;Gr-oi-%5%5&==;**22-*+%*@*O%*<**-*%r;+*;ZrZe* %*,MUQC,#CUr,,-35-+v-2",
"-y-k32;2hqq*3O33*&++$+%o*&=rr*&#q%g,*5rgg;=%@**%5n-+yC@l-grq-Ur*or=;r;i+%*+&*&22*+&-*@+&&***%5*q*O&rCggr, +*,-ZQl++nDqi*y-qqOv2*",
"%Cqnl*2%gv-%-#=3*&&&++*+$*+;,$-;eer*&erjr,55@@**qj&%tTOh=rgZoUy*+g;;g*,+**+&2+@2%*&O*2&+O%O*%;,g*@&vMMM,*o%-;vf^k$%Clvr-q2q5+P*=",
"*yyyg$-v*v33#$t-**&=+O&+%$&i,**,eg5,*,ij=-;5*;**2C;%tl+vq-gPO/,*+5**r;,%*%%,<@&<;**%&&@++%+%%--y=O2rvv,,*.%*;,M^v**Uvgg*;5y5OT<%",
"-yPl2=2v=hyq*-<***&*&+*+#%#v,,=,,r,ih*-Z=;;5**O*3n==yl+3y,v^&U,*%,--,&=++%**5@O*,&-*+&%+@O+&&**t=+*kM*,;&o*,*;M!;*#QUvv-;vt2+R=%",
"3-Cl-&qy*2yq32y%2&*-+&&%*-$,,;-*;,;,y55elyg5*-+%*l=+Ct+lvrvU#Dv;%,**=*$++%25*OO+r*3&2++&<*@&*5&,;$,M-;*,+o%,l-C!;=#UUgq--y2<%C3-",
"-vHl=-q3&&y22qj**&%2$*O%&$+,-**--;&&g*r5rh;,%-@@:qq+y2+qrr;M#Z,&+i&-,=+%;*2-&O@@2-32-+&&**-%*e%-*=,xv,,#oo*,,,v!;=#!DPZyh52<=k2@",
"2yMq==---%Z23yy*2&*-+&o+$%&--,-,%,&%r*r253-,*5+*=t3@yq+grqkG#G;%+,*-i*+#*22*+OOO**%32&2-<2*%*g%2;&,v;=&=+.&;-kl^,*#M!2C-h2n-%tt+",
"3qC%&223=+qq*t2$2-*2O*O%&+&-*,*,--*,,,,2qq=,***&=k<%y<@hqe-P#U,#O5&*2-**-2-%**%O&2<&&5y2-y-%-2=e*+x;*,&ooo%,&,k/x;+M!k>,m;Z3+l-@",
"rvC==2l;&&2v=t3%5*&&+*O**&=y*,*,-*&*-rrq-g;5,i*=-ll*l<+q2q=Z;Gr&%5%&+%@-5*&%*2&OO<@@<<3&%22&-%*e*+x,;*##..%,;,,Qk#$vWlm=>kZq=C3%",
"-Zv2@y3q+%-t=gC-2@*<+%O%;*-y**&-&&,&&,k,&q35;-&*-yy&<3#l--&C;Z,*%r%2@=%--%O**25%O-&&@&&+@-3%**%2$*,x;*OOoo&*,;&UM#$DDkZ*3r5r=ny%",
"-CGq$y5q#&-rqg2-%@**O++2***5&*%*,&*,*,;=+35r*-+5@yy*tq+l3-&E#Zx*+Z%55=&2O+&52*&&O2<O++*%@@*+%y%&+*kv;;Oooo&,r=;Dm;#DUkk=q;y5$l<-",
"3CC;=ryC%&-3vgr&@%-<%+%-%*;,%;+*&%&,,*-;+2,i*5%*&<2*lC#2l3-E*C,&ov%-5**5@O%1ve%*+%+OO@OO++-+*5*5&&M,*%OOoo%,x,;QV,&GQxm*t-y<$tt$",
"vvrl@;yv*&--gqy%-@*<-%*%%&%-&,%&&**&=*v,+--i*r5--%y&CCO-g,rD#C;*+,+r-2+&%*@2gh=&+O%%&*@OO+3+&*,***vk,&oooO;,,x=^Z;#ZUVD>--C2$btO",
"yhrH--2C-*-Cy2*+*&%**%*+*&&-,++*&%,*&*g=&253*--%*2ytvM&*g,QP=M-*Oq+-*2O*%<e*hn3*%O@-%2%O++%+&5**,*,v*&oooo;;,i,Dx;%xGGk;y3yq&n2<",
"ryZC-#y3q%yZyv#-*@**2*-*;**;*+&%*&,*,q;=+*g,e*%&:nl=3v*2gqQZ*vk*%q%*@<OO@2C*qyy5**2+2*-XX+=3**51,&i,,*O.o+*,,;,Dv=+xGV;;522y&33%",
"-2ql-qC2-%CCMg%3*,***O**,,,,,%%*&&g*-r2-O=yyq%;*5hq&=C@tgrkG+Z-*&3*-%+%@Ovv2yqh%2-*2h2-O*+%-*25e#*kk;=Oo.o*,,x,Q;;+rGkq-y5yr%y3&",
"&-Cqv-y22qyygM+-*&*%*O***,,,*%*%%*i-*t2-@=y35@;%y&y+3l*qZv,P+P-*%-%;;+-+%yr2y-h*55-2h53O*%&2*5*e#*-v;%+ oO%,,;,Ql=%CMMg=j5jr%q3+",
"--ZCM%:tth2-qg%;,+*+&%;***i,**%&&-q%*q3-**-yy***2;t&2t-3M5;!;C:-=#&;*O:+5qq3q*l**%e5yy3%**+<%-5j;+;,,+%o..%*x=;UP&&kHCCqhqhq=3-O",
"&2PZH--Chh-;2j%2*,&%&+-*=*i,*%&+,&,*-5y-**@h5*=%-+ky-n-3r=;U;v@-&&=2%O2O3yvn3qv<*-223qg+2*%-O**j*#,,;+&ooo+#;;,UG,=;EGZ5;y;h$3-#",
"%CyZn%ygnq-yqg+-*&#+&*&&&=x,&#*&-&,,*r5+**%gg&%&&+3C&y5-r;gM=v-=&--y%+-+-3vy22ny*v=3-*Cv**O**5*,*#;-,=*OoO%*,,,DE;&lEPP2-yqr+lt@",
"=qeCP*CMq22qyg%-*#=%,%%*=*i&,%%*,%,**;h%*;@q*&-=*@2y-3r*,grk3vq=%5*y**-O-3q2qq<y3l==&-yMt*%2&**g*+*Mr==%%.**,,;DZ;&MGGZ-+yhr+C33",
"&e2CG-rhy32qqh&;&**O,+#%%=*,,%o,,*i-5522&**2;*&*-%ly%=g;vq*;M;g&%y*y*+-O*-yy--&l2:*#-%yyq*+*%**i=%=Mv*==*oO*#r-Uv-#GCZq-$yh2Ot*t",
"+t5vhqr3qv3q2y*-*;##>o###,,*,#+*,,,**y<**-*rr-&,&+yl#3y&gv*vD,g,+g*y**3+q-qzq3<t<<=@--=vj-%-+,*r;*;MD*q#*o%&#=,!C;okCPy;5C23+n53",
"@2-lvv2q3y-q-3*+$-*&2%@&&*;=,#*,,*,,%i=****2g*%,+%rg=*M@gr-hU;r-Or*;*&5+*2t2-t=nh2#%=q-%vy&-&**r;+*Di,;;$oo;=&kQM:+kED;r&C;r+H-*",
"O-2yCv25qqqq3vq&@-5&&-%&&;;,,&&,*,*&&,;*2**2h2+5O*2C-2vOrZ;yU&M;Og*;,*2+*5ey<q-CZ3O=kn3-yC&%=**,*&*cvi,*&+o&,,iUm=&;EP;,+vgl%h==",
"*$2yCv%2nyq3-Cv2q2*;&%+%&*==&%%,*,+**i;&5*-=g5%;%*yP@3lOgg;qG&DqOg*M*--O%eneyqeCv3&-CGv;th%-%**,;%*;,vc;*$o#,k,QG;&;UGv,+hr5+vl:",
"2+yqCv--=22==yh22y=%%-%@&,*=,%#&*&#*-r-$*+-2y,+=***n==b+rv*v!%Z-+M*M*-;O*eCe25vjv-#kVGvq-C%&%-***&&*k,ix*-o&=;;QM=#kEEv#=Z5;@tn2",
"t@2qvC-%#3yy=yntht-%%&&&&,*,,*&&**+;-,,=**%2r-+=**5y*<n%=;=MU$U,or%r,;-O%Cyqy-nCMq+2vPvM*2**@<5g,#=%fM-M*=o+=;,^v=$MZZ,;&jgj@<C<",
"y@*yeZy=$$3yq%t25hh%O3@-*,&*,,*,&*%,*ik*5%%&5-&,&*qC:2C@-y3MU,k;+g*,*%-O&-tvZ-tMCt&2PCUG*t&&<*y5,-+=*exx,;.+#,>!l#=ZGGkr%ZgD-%jt",
"2**-2CPr=@%ql=kt22n2&&@**;&,*,&,-%+;%gr;5*e&rr&r*&2H332+kq-,VkG,%,-=&==+$&<yy;gjZr$3EGEM=t@&&&y%,*++;;,ZM#oO#;,Qk#*GWPvl&yy;2+Zh",
"23%qqPDv=*$=-2*=35yy@%O*,;*%&,&,;&===3-;*r*-gi&,&*5h3-*O-kq;k-M,%--&*%*+@@*v-2hZCq=-MGMC$*@&*&y&3;%=$*,,x,O+&;;Qv%*GUGkM+2555OCl",
"*2**v;ZZ*-&#=+---=yy%&O%***@+&&;=;;%-g=r*,*5y,&,**yty%22qt--vxxr%2*<<&@%+&*-*3hCv;-&vyCl*3%*=%;-g;*O*%*qv,&OM,;Dk*=CUC=Z&v;y5+*l",
":t*@y2HC2%3*&%$-y*%D<-2-2*%5+%&*;,-*,g;r%5*eg*&,%<2tt**qq%q-Gk;,*O<*<=%++-**-yeCh2*2PlP2+5%5%+*%g*,O+%&5,,%o*;,x,$#GEM-v-2yqq%%t",
"ty=%:2MMv3=**=3lvM*v2%&$-,*5#,,&,,;*qi55***ee*%,&2*yZ*yey*y3Mk*r2O2*2*&+X-2*=2qgnq3-GCGC$2O3&%=&g*55=++&M;+o*;*G,=OGCVkZ;q5hn-.y",
"P2t@#-MCg3%==#Zylnq2+%3%*g**,,*$,;&*-5rg*2*h,*-5&25;y&yC=hy3v^&j*.**e@%@X%*2&qegny=%PGGv3%O5*%**i&;*-O+*cx$.#*,D==+CCGvM-5yZU-Oq",
"T-h*+2vCnC=#*#CPlPv*=O%O*r**&&%**,=;*,iM<*@y1*,,O*<<H*vT%Cy$3W=C3Or*1%**@OO*-yqhyy=$CHPq-&O<**,,y%%%;%&+vk#o#;,U;=#MCPEv,%C5h-%=",
"P-n3OlhhCP-#$:PHCCC--%3%&i;,**&-&***;rgre**ee@e*%5*+h<2C+gqOlE$vrO-*2**2*%O%-qhh2M3#ClT<=<O<O;*yy*%**,+%=M&.&,,^=O=GGEEPy*gqqg%%",
"C2t%@=yvMvv$=kCvvvP-3+&*%,;,,,,&,;,,,-i,h-<e*&5*&**+C*2C%;-OCD,;gO;-e*%2**%@+5ve2n*@MHW<+<O<%%*2y-5,*5O&#,,o%,gQ$$*vEPMCg&C-yv-O",
"jn2-+t2CHvG-2lvZDyD3q*$@%-,rji,-*,;g--gi225ee&*5%**3R22y&v-+lv;kr&-&<*&%<2%O+-qtl<:*CRl*<&+&+-*r2%5*er&O;,,o%,,!$=OMDPMMM%Pq-C=O",
"yE=*O-$HMkPvkvqZCGCqt+*+%;>,,;*,-,vvq*,gq,v-=*=&@-+-Py@l%ry%-lv-r*&**,,&+q@@%*2h2*l&Cyv=v-*&+5*er%**:3*O*M*++,;Q&&+MGWCCk+v3=v=o",
"3E*<O--l;vPl3HMCvZyq<&&<==;---*=+;g;,%,riZ,M,*;#%*@&Ct=l+ry;qvG=,,+,,i,*&%%-%**2<%y$vln=t++*&=*5-&-%%&2@*ir++-,Q#$#,GGGkk+q--v=O",
"3R-<-&2y;rCv3WCHyPty<<*O%&=*-;,-%ik,,=*,-vD,%&*&*@&gyq@v=Mr-5vP+,*+v-r**&*2-O*+%*<l&--q$t%+-%&55=&&+%%*+&-v%%=;Q;**,EVCmx%,;*g-#",
"+C<g<$2*rvCM;DPM&Dqh22%$*%%*#=i#*;-r,+*-qq,*&;#*&&+C-vO3;3M,CC!+v-+g*r=,*%*5+*-&*=3-*3*=&O<:%&5e*&2**%+2&*x%%*;M;;&x!EG=i&=,,g;=",
"On3t3-r*PZMH-Pv-=yvC*2O%%%+=%*i%,-;ii*,*=gr,%-%**2+<;v+y-5yUrCD=M=+,*;;-*%%<+%35-3%t**%3-O2*-2**<*33*%y3%*D%%k*Dk,&+vvG,g-O-;gi;",
"Oh3-3%2<rZyGnPl=-:ZC@eO2%+%=&&i*,*,rr,,+&-i;,,*&*@+2qy+3:y*D;rP+G;%,*,,%2+@2+%*3&%-h-@3y*%<@*5*2t*3*2*%%%%v%%,=Ck;$+vMG;r;+qkvU*",
"OCC3&=&-qCglCPl*--Pv5e**=+-**&-&=*,rr,*&&,,*--%%&@X2-y@<q-yj;PW+Q,*-,-r#+%**-@*%-@#C==-Z*O2@**,e2@*25&@2*&,&O,rUV==#k^GV;g%P,CM=",
"O2C*3==-3Zv;vMC*32ZCrC-*;+&*+*5&+--,,*%;**,**##++%O<tC+2y-yy-2D=Ek-Ok*r&&2&&*%@O=++l33jh++2*&*,i3&2-2*%2;+;*+,,PD==#GUGm=g%P5qi,",
"@*E=<$+<-Pg;MvZ#-=PvGy&%3+@&@*5&+--****,*,,*%-+O@3*-yh*=g-qC+qCqqr,Og&-r*,*&*%OO*@%*tty5O$&%&&-e3=32y2--2O*2OrvZW=*#ZWGM*r&Ugr-q",
"@@G=<=@$2ZMryqG-3&Clq2$O=&@&*%2:%;,,&,,**,-*&-%%@22y2h%2M-yC+qGg,Mq.-*-hy%e&**OOOO*+33h-O&+*&*,ey=23y=-+*+-2o,rZU-*OkWPvrr&,,r-q",
"*Xn2t@%&qCCCqgM;-$P=C,*O&+%&*$*2;,*-*,r*+***&-%%@**5tv:2P%Mv%CUC=Z-.,&-5**-&&-&OOO%2*@*2%-&+-&rr33y*Z-5&=+;2O,kyU;++;WGvij%;rrr5",
"<Oglh3&&yrgPCCM=2%H-P3y%%@O%=O*3*,-*,,r*%&**--O*+&**qC@-C+qg&ZPM%Gr+%r==g,,,+&3+%O**2*%&+&&-*&,g<=q*yyy-;&-qo;i,!l=#-PG2Cg%*y55r",
"=Ohn<y2*l-qHDGr52-ZCZ-r*@-%+=O=-*$&*&r,*,,**3%%%O+%<qZ%=v+Mv+MGv-Gr*O,&+e2*,++3&O%+%-&&++#%3=*=r<<q=2rg2*&=qO;q*Cv;#-PCvDj%*g2vy",
"2XyW2y*@l3qCCnq5hyCDC-:&.&:*=$+&*%$;&,&,*,,,3+%%O+3*2D-3C&;g+MMCOvr;O2r+2*&-+%3@OO%++-+O+=%*-=-r*z23-yyr**&qo5,rGV-#;PMkDg+2v*rC",
"%X2E3y@@&=CyZh2qyrGDC=y&O*-%+-%=-%+,*,%*,,,g-@%%%-==2Py-C#ri&nvP+rg-O*y%**e*-%22++%+OOO+@@%-**,q2hy2-5r2;**yO=*-MG&&=PPgMi+5M*qv",
"t+%h333%%*ZPZDg:2-CnP@:-++;%%*+-**+,,,&***53%@%@@**=*Hl3M+rg+C2E&rM-%@2**%i&2&2-++*@+OXO&+*-%-5g2htq-yry%*@yO*;;kE#+rDP,D;$-H@--",
"q=+Cn2t$&3*PCCg2l=nlP@q**32@&**-**%,,;*&&,,,&%&#@*+<&hy3l&lv+;vP&;U;*O,;,-5--&&2%*-*@+O%-+$5%--yryi-*rr;=&=ro&,#VZ#*xxU;m;+;rq;3",
"2-OCT-y*@:=DCMeq2*lCP+g2%%2@&*%***#,,=*==;,&,%*o@&+2*h&2E+3t=;vP=,U;*O;i+r*e**%5**2=*@%**+%;&55ghyi-&;,$=#*io#,;M^$#kkGkM#&=vM53",
"Z&OiT-l$@2@HMvg2q*gZvOC:*O**&++e*-&,,,+&,,&**%,+&&&*2l+2y+vr-,CPk&U=,+&M&**y&,&%-:<<22*%-++*&;,ryZ5,-,=q;&*ro-rrM^=+xVG;v;*#5R5j",
"U-o2C2t3%ntGgC2-2-gHvOq-<O-*&++5*,&%i,;*=;&*&+,%+**222&2-+v---gWq=Qr,++r*5*j*-*O3@2--<-%-*#-%;q-gh-,r,*g*&;;o*,rkQ=+VQG;v,&+;Uyg",
"j,O*yy&l&;yZvlg;3-hZG%y&2+2&%@2e**,&,,***&;%%+*&&@&y=v=$lOC&-qvCG+Mkr-O,r%,,**;&<@12@22@=%r-%,y-Zgq5&,*g**&rO&,,kZ=#kUG=Pq%&&Djy",
"gy+*kM$3%=3yvrZ5-3gHC=5&5@<*&O*e;***,,&,,=%oo#;++@+:*n$$HOZ-%qvGvOxmi,O-g%%;j,;&<+1<<%<<-%;-=*ir555,%**;***go=,,;U=O>GvkU-%%*D2h",
"jr*&ll%y-*q-CrD2=3lMv*v*5%**+&&*&&*,;,**k*o%+*;&@@OC=C*=P+v2%qZPG*;M;;o*Z&&,r&r%<%&@2-<2%+,,*&,i-rr,**---&*r.%,;=^$OmExxUr&&5C5q",
"gM-OvE:t=@vyDvv5--vMk*y-2+*-O%*&*&;,,M;%&&%*&&**@3%v-y<=POlq=-vPv%,Ui*o=,,%,g*-#22&*-2<+%$-,%=;,-iq-;&=-==*i.+=*;^*OGGvvD;2%-ht2",
"eC5OtT@*2%v2CMlv5&2gC-y-,&*=O+*%e,*&ri*%=+&&&%&&&2Ohyy*-C+v-&5;PD#-G,;+%,M#*q=--%<<+%2-*+***==*rgg,=;*&;2%-r.+=-k!=OGEvvZ*q%5Cq-",
"gh3O-T<:t%2tCjvq522Z5&r-r&*=&&;%,**,ei,&*&%*%*%%3&+hyt$tPOg--qvDV=#W,;&+rM*,**%&%<2@@O**+y5***=,ig%&&,&iq=*;.+-=iE##PEPqPq5O*D2-",
"eZyO3nn&t@<2hZvv255Mq22;,%==**,-e,**ee,&i%&%%*+&<%%htv=2C%r-%5vPG%+!x,;o;v&,=,%*O%*&-2*%****r*&;ii%*%&*,-=;*.+,#vG#+UPG2Zr-%-C<-",
"ggh%*GE@t*e*jyDqqq;j22-;*%&+&%%*g**5e*gy=%&%%-+%33@tly@yZ%2;,3qPC=#Zv,&o*M-%=g*&+2*&%<%%&*&&5;**,e**&&&*;*,=.+;$MC=+DCv;Gi5+-C2@",
"eeD%=vW3v$-3rggvv22v55&5*O*;%+o-i&*,yq-*-+&&*#&+2<@=Cy$2HOyqr-5MW,=vCl&o=v*O=k**+++@OO+O&***,r-**,,,&&%--*q=o+,,iU=#GWvqDgr+*C-*",
"jjj%XyW3-#-lCZgCC-&P=e*2%O--&+$-i*&,e25;*&&%*&:=:=+*gn$-HO2g5;,GEk$lZ,=o=,k+=,;&&+X%O%@@%*&*,i,-&,,,+&&*--r=o+r,MM+#DEvvZ-y%5q3-",
"jrM= nE*=O&MMDZgeg-P2y-<%O2%&&+&i&*,e2r%*%%@&22<3*O==l+&D+5g*5qvU,%;G;,O#rM%*=;=%+O3%%%*5*&*,&%-==,*%&*-,*,*O%,,Pv+-EUMvZ-h&=yy3",
"jrP=Xhl=C==MgPZiPvCn2y3%@O*+*-+*,**jq5eO-+&+*%<<;*+=*vO*yOjgqqqgCk=,U,;o%rx*=%;;*++&<O**-,*&*&%%&&,*%-,,,#,-o*v,Uk+=CPUCM*y@5H22",
"geM*.-P@l%3ynCPvCMDq-v5*OO***-*%,=+rv,5&*+%+&+22:%@&2hO2h+jyh=qCU,$xv,-O%=,;**r*,#*%*#*,i,*%***o&***%,*,;*=;O-iMGr=&GPUGM&r+;Ur-",
"ii!;O;WOh+3hyPZvgZlM<y2*@O2&-5e-r%&-C;-;*++O&+-322@&2g%%H&Uy,&vDDx#kD-;+&-,5**g*,=**=#&&,%*%&,,&,**%%&,M&+,=o-*-Ur+qDEEUk;r%,Pg*",
",rD;X=Wtt%-CyPvyMDkv=C5*%*<&*r22r+;rvy-5&+O+-&*2-O+&yh*2G*R5*-CME,+;P;,%&qyi%;h-,%**,=o=*=*%***&***&+*,,*+,=.*riU,=vEGMPZ;,%3CM3",
"-,M%O3W-2*-hgPvryMCC&j5-*2@&-55,,+,jvhy5=&%++**2&<@<2n%2COZ5;&CvE;+kM;,o%;Dj+5y-*>****#,%#,&,,*&,*,,*-,v&=i*o*qrG,%MEvGVr&C%-vn*",
"5yZ&@3R33@yqvCkvkqCP&q3-&-*$**%;&&,y*yy-5-O%+&*2*&%-3v$2COl5k#CVG##kD;,oO-gZ&%q%,,,*x;,,#+*,***&*-**%*,j*+M;.-;i^,=PGkmVr*j%*Mv*",
"r-C2%3Hq*%yHgkvvkCgM*tq-*-&&****,*,g3*Z*-&+++%&2-*&--3+2vOvq;*MME;+vU-&oO*,C&+5**>,x,x,&*&***,,;,&&%*,,,&&M,o,,v!==GEGllr5j+*Ct=",
"h5D<<=n*2*qZM;vGvGGM*yq&%*&*--&5,*2yh*e-*=++++&-$@+2=y&2q+y:l*vZU*#MU;&O%=,v%&55*,i;;,%&*%,,&xc,,&***r,r&+G*o*,MU=+EECMm5e5%-Ct*",
"y;Z2t*R5@%qZMCMDPMPG#ly&&&**,&%*&=2y<2ri+%=+O+=-3-+l-v-3v+n-3*MGEv&PD;*O+=*r**;r*,==%*&,&%**,M,,j,,***rr-+k*+,;MG=OGGZ:Zre5%5Tn:",
"g-Mq%2n2-@yCkGkPCCPl@yk#&&%%y%;-,&,,&25y%-%%++%:3OOyqC-=T@5yr=gGG;&CG-;+o,;,*w,v,*&,**&*%&*,;,Mcii,-;,--=#g-+-,MG#.MCPlGg,k%,Mr3",
"g-M5%-C23%yv3GkPylCq&:2#&*%@-%**,*,,2-5g***@*O&*33Oy=C+;COZhr=qME*;!r-i+o,;x=,;y,*%;**,**;,g&&,xii,**,=;+%i&+k,Gv##CDDrZe,,%,G;*",
"grg*=tl2@%-ZCGClqnq&-:-#%&+@*+*-**,e225y3***:O**<*Oy-q%qC+-yl=;MG*;Grri%+,;c&,;M,,%,,,*,&,,;**;x,,,%*,,-&,r+O,-!-=&C!G2r,,g+*H;2",
"qrv#@Cl3+*<HGGlq;;%<=22*&*+@,+,*,*,e,25q*-*<*=O-2*+-2h-hP+ryk#mGU+*U,,*o+*,Z+$*Mx=,,%%%&&#,,&;,,v;**O;r*+,*++,=Uk#&C!GrC,,x%-H2;",
"rrZ=%jl3O*yDPHC,==#=&=l-*&%&r&-+*&eg3$--*5&&%;%*2+@*tD&yC&j---vCD-q!;;$o%*xc+,*fx;,,,&%*&*v;-,,,&,#*&;r&*;;o&=*U;=*EUCvr*qt@-C-2",
"iiZ&Ot-tO<yHCRCg$--2--q-**&,g-%&%*,e5%%*5;*+&;+%-@@*2C%CUOC5-qgMM=rD,,%.$,ci%;*,ix&&,,&%#&,=**;,i=+#*,M;%v*.;qiU;+%GUvvr$v2%yPth",
"-gZ-Ot$-O=3CvgC%=*2-y25-+2&*i&&***3yy-%2r*-+,%%=2O*22-;2ZOU**;gCk*Mr;-*.%,x,&*;;,c,*,,i*&&,,&*,i,#&&,cM,=v,o*,rU-&#WPrGrqr-%5Cyy",
";gZ-ok-:%33CC2v;$-v322g*%%*-,%%**2-yy**e5-;-g*&%*O*2eh-5h@P;r2vCk$^rr;+ $,i,+,&%,cx,,,i&&*k,#*;j;O*&,,,,&M;or,gU,#=EDrZgjr%*yh5r",
"+ry2O3<2%qqlvvC==tvgqje-%%*&2*%2;,*gg**2y*%qi-%+%.*-rC-2v+ClkivC*#Di-*+ %,M*%;&#2gh2y5i&&*g,*&*,*&%&52*2*v*+,,vD,&lGG;GrMZ+=Mt*q",
"rCC-Ot%:@q-vPvv*-t3qghe-@3*%%%*-r*=r,&-*55&-rr%+$O-qgj22l+;3r;ME;rPr=*oo-k,$%%#&*2y5ii%-%%,q-&-,--&*5-*-*,&+;;;Z*$vGG-E,Zq%&Mr3q",
"ji52On=3%yrqCPk*-g32ZC2*O2**;%-=,-&ry-**rg&*-,%+3O&gjZ-=gO,&;rC!#VD,*%o ,,k$+#=**ygCr5+-%&v,-&+;-*&&5-**%,&o;,MM*$C^EqE>C-%-yq5y",
"Dv5<OT2&%rylZv==$r3&y2%-O5**-*-3**-hy;**-,&**r+=%O-qDi2@P#g%*MMUOG,-*+o+-Mx++****2jCee&e&*;q*;+#**&+55*%*;%+*,Uv&$v!U;M,g&O+h*g;",
"D,;&+C2@*yynvkO=3l&&;*O2%*&&;+,,*%ree,**&g&%5-&&+%33CZ;$v%g-&ZPG#^>*%oo*,Z3+.*&-*-gyrq&&+*-,*-&-*&,+-;-%*r+O,q!k&$GEG:G,j++=C-yq",
"Mg;+=Cn*<2hvkq$&v--2**&%O=*-*+=,,&552**5*r+5&,*=*+33MP*=v@y*+MUC#G;*%o%*qv5&+#;**tghig*-%,-i#&*,,%,%5q5%=;OO,rPk&&CMm:G,;%&y22g2",
"C;%O3Cy**-vqv2=*v%--5*5++-&--*=,,,y52*,**2=;-*&+&O3*ZP@-v+3-OvPy*D;=O+*;5D&*O%,*%*rj,g,*%,*i***,&,*,r3,+,,o%,=U;$;ZCG:E;-&%gy5rr",
"C;#O-Z3$$-qvC3*qg@--*5*%-5&-,**&55-52%,5%--*-=++$O3%G3@qy#lq+CC5;C,%o*,,rr%%O***%-*C,i5;&**i*-*,%,**r;;%k;o=gqZq%,GGG=H;5O*Cr;=r",
"q-$X-k====CGG2-yg+2@*&%*2%%*5=%%,*r5-**2%*;;-&-%3O<+t3-yq@ly*lH=kv;#o**rZ*+o+*,**y5h;hi*%**i,*,i&,&,v,**i;+%riU;%qMDP-U,5O-n5*yl",
"-=$OCl3.<*CCCk-rg+*@@OO<2*O&*+%$,-ir3%*--*2;-5;+3%=+Ct@t=#lt*vP$U,*o=*;vv;&OO-&*-yyq;y,-%-*rr**i&&%M,,*&Z=o;,,^-=qlPPg^,;O-y3-l-",
"&=OOC3tOy*MrMl#5e%*+OOO<2*@5-$$*,*g252*-2%yy;+-+t%**C2+y*#gq%HW%(,#o=*,;Z**+=+**-yr+5y--+-*;qrri*%*,,,+%r#o;rg^;+-vGUv^-*+-Cr,C&",
"#& #n$3=q*MCyq=3g2*O+OO**3+*&%$=,&ig3%&&5-;y-+-&2@e2v--t2&Cv=Cv=U,#o*,x,C&&%;&;*-gn*;**-+&*=-rr=*&,,r&+#q=o,rM!-#=PMvqUr**q2-vCk",
"qOo<CO3=25ZCCg%qg**OOO@-=*%,*&-*;;yj<**%**=t-+=&-+*qZ2%yl=vq=Mv,v*%Oe,jMe**e;*5*2jZg;#,;+,*%ri,=*%5e,;%%,;ok;CP;O=WCkkGq*-yerDM;",
"2oO2H=@:rrPPGC*yt*&OO%22%**v,&,-;yyg=***%+$2-%*&3+*MC-%3==--:;,lr#O$rjDj*&+5,***-gZy,,,,&-&,,g-=%+ee;*+5;*o;r,U;O;EMq-lv%*nrjUq%",
"+.@hn2%3yyDCvl252*@+@@-$+**-,,,---yh<*;**+2<5-;+*@2CC-3=*=;-*:,U,$o*rD22O+%*52**-rv,,*,,**&,,rg=**,r-*&r;=o;,k^*+$EGq=yg+%v5qM-*",
".O@ty2@35qPv;v5yh*+O%-3O%+&,*,,,522h&&2-%@<gy&5O2O3kl3*:-3;q;k#Ux+o-re&%OO&5*---rj;k*;,;&&=rrg,,5-gZ2,+r=;+,*M^;%#lGlqlg%<2qqr;-"
};
