/* XPM */
static char *ddc852b47a074921ab279749c1877dbcbGhrt8g2FurhGWw9[] = {
/* columns rows colors chars-per-pixel */
"128 128 88 1 ",
"  c #564F45",
". c #594F43",
"X c #575047",
"o c #5B5246",
"O c #5D554A",
"+ c #5F584E",
"@ c #60574C",
"# c #62594D",
"$ c #695F4F",
"% c #655D52",
"& c #685F52",
"* c #676056",
"= c #6A6155",
"- c #676158",
"; c #6B6459",
": c #6F685C",
"> c #7B6C57",
", c #706759",
"< c #766B5D",
"1 c #796E5F",
"2 c #7E715F",
"3 c #6F6960",
"4 c #746D63",
"5 c #7A6F60",
"6 c #777066",
"7 c #7C7263",
"8 c #767269",
"9 c #7C756A",
"0 c #7F786D",
"q c #7F7970",
"w c #816F58",
"e c #85755E",
"r c #88775E",
"t c #8A785F",
"y c #837663",
"u c #887760",
"i c #877863",
"p c #8B7B63",
"a c #817768",
"s c #847B6C",
"d c #8B7E6B",
"f c #907F66",
"g c #907F68",
"h c #847E72",
"j c #897F70",
"k c #8E8066",
"l c #8E816C",
"z c #928067",
"x c #9A8564",
"c c #958962",
"v c #9C8967",
"b c #93836C",
"n c #98876D",
"m c #97886F",
"M c #99886F",
"N c #9D906B",
"B c #868075",
"V c #8B8274",
"C c #878278",
"Z c #8B857A",
"A c #8E897D",
"S c #928672",
"D c #958873",
"F c #9A8A71",
"G c #908779",
"H c #928A7D",
"J c #998E7C",
"K c #9C907D",
"L c #A78D67",
"P c #A38D6B",
"I c #A49363",
"U c #AD9166",
"Y c #A8916D",
"T c #A08D70",
"R c #A19175",
"E c #A19179",
"W c #AA9979",
"Q c #8F8A80",
"! c #938D82",
"~ c #988F81",
"^ c #969085",
"/ c #9A9285",
"( c #969288",
") c #9B9589",
"_ c #9E988C",
"` c #A29683",
"' c #A59A86",
"] c #A0998B",
/* pixels */
"ACBCCBB008sAZCGVBBVBZH!)HVjjjhshjqjVVqG~jjGGj9jqjjGQG9jqjVQCqqaqhCqCGGGhCVaGCZqh00ZhhAABBZZZChqCA(^AA_CCCBBhBCHHqCCBBZBACZBCBBqh",
"JHAHGDZCVB6sV00sBVBshVVjCjsjhhhhjqqqjjqj9qjq9CCqqj99jjjCqqqaGV!hjGjqChZqC(QhGhZGAAHJHJJAHHHHJAHHKKKK^H^HJHJA^KHJHHHAAAHJKHHAJAAA",
"irryeewwwk9s0BVAsAAH!!!!!!HZZZGZGGG~QQQQQGGCGGGGQQQQ`~QQQQ~~QQQQGGQQ~Q!G!QaawCdyuyyuiuueiikikuiusikikikipepeikkiieyiyeiusuiiiuee",
"iiee2er>22<CZVqVddiddgjddpiyyiiiyyryygygyyyyyyyyddgdggqggadaygrdysyyjrdsddjQQjrrkiuuikiikkiiiikucsikikkikeppiiikeiieuuikcskuuue2",
"ereeeee>ww109B6ddipsdddbdtyyiiyyyyyyydrdygyyryyyyaganagajagddrayysysdysdddyjCaaruiuyuiiuuiuikikuiekipikekeyuuukuekieeykikuceuuee",
"ee22>e>>>21ZAC<ddiipldbddddiiiydyygayydyygyyyyyddgaggggargagayddydrsddrddydjqayrkuyuiukupiuykiikkkekiiikkuyeuiuueeeeieiiiyyuu7e2",
"e2ee>ee>>e<VVB6dddidlldlgddryediaggdyyrdag2ygyyyydygyjgaragadgyyyyyydrsddyyhCytiiuuukykueiicuiiiekkeikekkeeuuiueiieeeeekiuiyeee2",
"eeeee>ewe2<9ZZ6ldidlzdbdgddyyyeiyygryydaryyyyrydyyyddgjydaddjrdyydyddyddtddhjygikiuykuukekueuuuiiiikeeiepeu7kiuuieeeeeuuiuuuyeee",
"eeee2e2e>e1JV08ljgggjggggddyyeyyyyyyryrdyyyydyadggagdyjyyygayydyyidsddydgdddhydyikuuk7peeeue7cuekkeipeeuieupik2eueeeeeeiuyiuyyey",
"iiieeee>ee1hVZ7lggGGggjjgdgyywyyryyyyyardyrrygiiyygydygddddjddydidyididddddjBygrupipkeu7ueyeueeyeiekpiepkyepkkuyyuueeeipuyiiiuee",
"tieie2e2ee1hZA8ljgggGgggggdyyweyyyraraddyyyyydiiygaygdgadddddadrsdisddsddtjjBdtyuikpp2eeyueyeeeuiekeeeepppypkiuyuue77ueieykkieeu",
"eieitee2ek6hVA8kgjjgGgdgjdiyweeydrararrdyydraradyaygbddgdrddrdaddiiijiiddygjBdttpppiueeueeeyeyuyiykiieiippppuikuuuuuepeicyuiceye",
"titieeekek7ABA8lgddgddgdgdryayyyrrayyrydrrsriidgyyygbggayddgadadddsdsdididdsBstiuiciueeeeeeiiuuyeikeiepeuukuiikuiiuuiieiiikkyeie",
"tiietikiie7ZVh9ljggjdgydyyyyyyyyyyrdyyryrarsdidigyagaggydddjrdrddidddiiddddjCygtkiiieyeyieceiyuiieieieieuuukukiukiiiyikkikiiiiei",
"eteeeeeeet8HBH8lggjgdddddyyryytijddyyyygstdridddyjgagagaddgddddddddidiyddidsCigrukkikyuypeuyiuuuieeikiieuukiikuikikikickkkikk2ic",
"ikee2eeeei7hBV8kjjgjrddgdryyrtydggrgydyyrydsdtdyggjgjgjgdyddddadddddddiddgdjCygiukukeuyceyuyuuupkeiieeeeuiyukiiukickkisikikkicyy",
"tftrrrtfwyaqCaajgjgjdrdddyyrtyydddiiiiiyrdgidyddldddddlik0llhkkkddgjgdygddddCyppppdppippikieeiepiieeit2e2kkeikiiikikkikkikkkikii",
"trfyrrtyyawCQZahjgggdddgdryddrytgdiddirdiddggdgdllzdddldkklllkBVgdjjjgdjYggbhyppppppirpkiiiieeypkekkkeeeet2ieitiiuiuiiikiiikkiii",
"rrwryryyrwaCCjwadgjggdddddryiytdgidgdiiidrddgjgglddlkdldBkklkVcBjjggjgdjlSg784yupppieiepikkipippeitieei2eeitikieukiiiikiikkkkkpe",
"#@@%%%%*O3qjjQQ:#=;;&%%%&&#@OOo@%%%&&&&%#%&&==:=;;=*==**%%==-;;-,;===,=&&%4hhh4@===&=$==$$#$OOo@#*#==##+%&#=#**%%***$$--==$-*;$#",
"aaa8BCBCBCCGCqGjCGhhCChhCqGqjjaqhhhaCashjhaCCZBC!CACCAshhAQhCBZhQZZ(GChChh!A!(!ABBCC!hQCCCB0BhHsZCh0h889498CChhqCZCBhhhCACZZhCqq",
"jahCCsaaaqqGGaaZhhhZhChsqaasjsVZQQhhChZhajZhCCZCZhHZAVQQh0hhBAhCZQhhZ(!Zh!!AhAhhBhZC0BB0CCCCBBACHZ0ZZ^ZBZCqq0ZCQB0CACqqCBACCZHAC",
"~Q!Q!~!~~~((((~~!^!~^!~Q!!QCaCaZQ!QQQQ`jQQQQ`Q(Q(!'/^HQAQAAQA^HA(QQQ^!^(!(!(!~!!Q^!QAAQQHHHZsZChAQ^^Q^QQHAHHAQQ^H((^(^HH!())_((H",
"ddidgddddddgggdgdgdggggddgggQQqa66ww6w44w3wawaw3777y977711<657s7awawaaaa7ay9y7y7477i762916hh^hHBZlkllllkkBkkddllVcVkhkVkkVSSGcSS",
"gppgjgggdgdgdgdddggjgtjgdgdtjCwa55w4w44w11551<<1111yy555<<<<77a76wawy5ay5ay57977277162211118CsB9llllkldipdddpdllllkiksllVkSlkSkS",
"dddggggjdjrdgdrdtdggddggdgdrdhww5<556w6w11551<<711<y7771<<<15777a4a8aaa5yy5ay77y177112776210VZH8llllllkdddpddllllllBllllkSSlSSll",
"gdgpjggjgggggdggdgtgdtdgggdghq3a555ww656515<<><17<<77511<<<eu557aw4wPaa5aay577yi177126161729ChC8lllkllldlddkdlllllllllllVllkkmkl",
"pgddggggSgSggjdtdggjggtdgdggjqaw<a55awywu1<5w1<11<<77511<<e<c575a46aiiyay9555555122677117269hZB8lllSllllkiddklbliBllllllSklSVDll",
"jggggjgESgggjtdgggdgdtdgdgggjVyw<5w455555<><e<<11<<<1511<<I<57i7a545ay5a5<55557a777717777778hCB8lllllblllskdllkSklllllBlllllkDll",
"ggjJgjgjSgSSgggdgdddgdtdgjggjjaa555555551<<<<<<1<<,<111<<<<cc1y7w5y5y55y55555y5y1717711<2117qJJ8llSSlllllkddllSllllllsikllllVklk",
"jgggg~g~gSgSgjgdggtddtrgdgggjCawy5w5w45555<<<<e11<,<<11<<<513y17a5wyay455<1<y755111117<17148B0A8lbbllllllslklllSllVSlklMllllllll",
"gDjEggggSSgSggdgdjgtdrddggggjCaw557555>55>,<<<11<1<<<11<:<<<1c1965665ay55a5y577517<1111<1118ZBB7llllSlbllllkllSbSSSklkllklllllsk",
"gjDmSSbgSbSdddgddggpgipgggggdjs6ww6a661w6<<<w<w4>2<<<<<<,<:119117111y9922677771115<611111727lZA9lllSllSlSlklbllSbSllldlkskldddpd",
"jgDgbSDgbSbdgddgdgjddgdgggggjGyw6a6ww1<y6w<<66<<<11<<<<:,><<211116112721127767111111114111<80BB8lllSlllSSlllSlSbSSSllllddlkdddpd",
"gjgDbSFbjSdgdggddggiigigggggjja16wawaa61a616w6w4<<<<<,>,,<<<1111i71112181k722117<111111111<80BA9SlbblllbSlllllblSlbkldlkdldkdddl",
"DgDjSSgjbggdbddgdgddgigggg`gjCyww1a6w6w11w1w6w<<1<1<:<<<,<<<191777417111717117<7111171121016ZVB9lllblllSlldkllllkSSSlllidididkll",
"gjgSgSSgllzddgdddgdggiigEgggEHa<6a1w6awaa6w<64<<1<<<:<<<<<<<111177<527171111171<571717191218A)K0SllllllSlkllllkkSSSSllsddpdddlll",
"gDSSSggbldlddddggigdgdgggYgEjj6111aaawa14w66<ww41<1<<<<::><<1214771<11111111<771177717772628SH/0lllllSSklSlllkVSlSbSllllpddddkdl",
"SSjSSSgjldzdzddgdggggdggggEgjh1ww6aa6a1ayww4w<1<1<1<,><<1<<<6211575581111<141717177717i72618ZBB9lbbSbklSVkllklkVkSSSllkkdzdkdbkl",
"gDDgjbSgdbdllgdddgjggidgETYgsa;<6wawaw6wa66w6<6<<<1<<<<<><<<2711757<1111<171<1727a77771771<6VCB97SllSlSlllSlllkkSSkblllldlddllll",
"+++++++O+O@O@+OO+OOooOXO##&aj!j4OOOOOOOOXo+OXXOX.XX.X.o  XXXOOXXXXXXOXXXXX$XXoXoXOX+OXX++*:!VZAH6:O+O++++O+++OO++++O+OOOOOOOOOO+",
"JZHCVVZZHHCVHHAhhhGhjjZC`JKJ)jhGhj!!~!!~jJgsjjhCBZAB0h9s0BBACACB0BZHBBBABB0ABBB00BZCHB0CZBAA!BCVAAVHBBAJAZhZ00BAH^HAAAABBhB^ACH^",
"ZAHAZZBBhZhZZCshhhGjhhaagJjjjjjjjj!/jjj/HHjhAAjhVVVBV900BBVVAAZV00hAHBZh!ZZsAVAZBBBABAAAHZZsB^HZBZBCAZA^HHVBAhBZABBZVZV00VBhCZBV",
"AHZ^VHhqCJhZHHChhaajaahaj~~GGjjKjQjjQ!!j!j]~jjhhB09B0BVs0BAVBBVVhZBAssZBBVHBsABCJAhBBBAHZAhBZ^AHHAHAZAZAChAA0VhBBAhBBACssVZVZ0hV",
"^HJ^^HJHHH^HHJHAjH~jGG~gG`~`gW`g!~~/E~~/~~JG!/j!GGGJAA0ZB0BhCZV^/^'^KHH^(/(^///(^^^^K^__))//)))/)^^J()___(()^)^^^^^_/^BAZZBhV0AH",
"kkkktik2eptettrerrrytrtwrffrttttpfufffpprtrtrgrueeeeeeek0l0BCDbkcbkbVclczbzbzbzbkcbScSGcFnbnMMbFMMbbmMDDmnmbnnnkMbmcmbzFVhChleet",
"kkikeettpteppteeyrrrtttrwrrrttttttfupUpprtuppprurreeeeee8HVB9zbbzbkkSckVzbbzbbzblkmmmcDcbMbnnMFMbMbnMmmNDmbmbmkbbNMmmbcb0ZA0tite",
"iekkktttpippteeeertrrttrwrrftttttffffppppputpurukeeeekee90VV9bbzzbkkbbkklbzbzlzzkbkSmDDDFbFbFnFbMMbnmmMDnnnbnbbbbmbmDbbkBAC0teek",
"ketkeekekekkeeeeeetterrrrrrftttttptfttftttpttttpteeteeee7CBB7kbbbzzzbzzbzbxlbbbbbmbMbDMMMFFMFMMMFMbMMMMFmMbmbmbbmFMmmmbbdBA9eeep",
"kekkkttieketeeeeeeetrrtwrwrttttttttfftfffttftttttepeetee9CBB9bbbbllbbzbbbbbbbbbbbmbbMMMDDFFFFFFFFMbbMMbbbbbMMMmmbFmmMmMmB0h9pkee",
"kkeiktkekeketeeeetetrrtrrwttrrrtfttttttfpptttttterepetee7hAZ9kbbbbzbbbxbMbbbmbbbbMbmmmMFFNFFFFFFMFMMmbbMMbmbMFMmbMmmmbMblQA0tkti",
"ikkkktkitteetkeeeeeerrtwrrtffftttttftfffpzttkttttreteiet7V0Z9bbmMbbmbbbbbbbmbmbMbmbmMDMFFMMKFFFFMRmmmbnbmMmmMMFMmMbbmbmbhBQ9iktt",
"tkkieiktteettteewrwrrwtrwrttttfttttttfffxxtzftpttetettee7AAh9bbbbbbbMbbbbbmbMmbMDmmDFFFFFFFFFFFFMbMbmbbbmmbMbFMMMmbmmmMmBCA0iitt",
"ktkkkettttieeteerrrrwrrrrrtttftttttttfffkfxUfptpeteeetee90ZB9mDbbbbbbbbmMbbmmmmmbmbmFFFFFFFFFFFMmmMbbbnnMMbMFmbmmMmmmbMMBB^sktet",
"tktikikekteettterrrrrrrrrrrtttttffftrffffttfttptteeeekee9VBZ8bbbbxbbbnbnbMbDbmmbbmmDFJFFFFFFFmmMbbbbbbmbMmmMbFMMmMMmMmMmsVQ0ikke",
"kikktttkkttttiterrwwrrrtrwrttttttxftrfffffzzftprtekeeeee9ZsA9zbcnbbbbbnbbmMMMbMbbmbmFFFFFFFFFFbbmbxbxbbMbMmMFmFMmMFFFFMmBZABkkke",
"tkiktpttzrrrpteerrwrrrwwrrrrrprrtttttffffpffptpptekekeke2hAA9bbbbnbbnbbbbMmFmmmmmbmmMFDNFMMMMnMbbbxbbbMnmmMFFFMbMFFFETFFBVQBkkkt",
"kkkkkpkttcettpperrwrwrtrwtrrrptttttttfffpfftpttcetkeeeww7hBB9bbnnbbbbbnMbMDNmmmbbbbbmFFMFmMMMnbnnbbbbbMbMMMFFMbMFFRFKFFFlAZ0kkkt",
"kbkzppkpttppptptrrrrwrrewrrttupfttttufffffftpppteeeereee1Bs09bkSbbcbbMbbMmbMbmmbmmbbmMFMMMMmbbbbbbbbbbMMMMFFFFMFFFFERTFRZ^(hbzkk",
"zbzkzzpkpppttptttrwrrerewrrrtuuuttttrfpfpfpfpptteteewk2e8hh08bbNMbbbbMbbMMMmbmmbbbbbbFDMMmMMnMbbnbnMbbmMMMFFFFFMFFEFFEFEGAHVbbkk",
"bzzzkkptptfttpptttwetererreerurrtttrrffffttpptpeteetekee4AHB1kbbbbbbmbmMmMMSmmmbDmbbbFMmFFMmmmbmbnbbnnMMFFFFFWMmFFFTNKNFBAA0Mbbb",
"zzzzkkppptppzttttreertrrrwueuurerttprffftzppktereeeeee2>4AKB4yScbxzMbbmbMmMbmmbbbbbmbFmmFMmMmbMMMbbmbMMMRDFFRFbmMFFKJNFl0ZH0ecbk",
",:,=;=====$==,$=$$$#$$$#$&$%$&$%@@@@o#&;,;==$==%=#$*&$+=7hBHC3%;;;;;;:;::::::::,;:;;;,:::::;::::=$#O#%=,:::3<:;;;3<144=6G)AA:$:=",
"HA^AHVVACsZZHZV!V0ZBsBVhijjajhjhMjjjj!Hj/^VBVZsZBBAhhq6BshVCCZAqhBBVZZ^ZqB0ChZAVBhqhZ^QCZZBhCZBACAAAAZQBZQ!ZAZ!C(AZQAHZV^Z))^ZAH",
"CGCCQGCjCGCCCGCCCGCQCCqChCCQZZqCsVGZZHZChsBC9Chs0BhBBVsBCHBZqZC!0qZhZhhZ^Q^ZCABqBACABqhAAA!^Z!(!!ZC!Z!QAQZCQhChBBQQQH((_(ZQQQ(HH",
"(!!!!QQQQ~QGQ~Q~!~(CQQQCQQQQQQQCCVGVV0ZHHHAHHAAAZZAAAZZBZAAA!AHJAQA!H^^AQ^J^!QAAQAA!!!!!!!!!^J!!ZBQCZhC!(H((((!H!H(__K_(_(_H(H((",
"qaa79aa29aaa9ayaas8aaaw4aaaaaa4ah0GHZ0hya77777755<555<517777877a7162627790797279y55797777a997777BB!hchC0c90s907aas0hss0hBhchs0h0",
"aaaaaaa77aaaaaaaaa3wawaawaawaaaa24ZHZ177177771511177<1e5777677777717277717i77291777y777777775a7798cZ^800as0i090aa000s0s0hhh0saa0",
"a7a77aa77a7aaaaaaawaaawaaaaawaaw97ZZV4277777772171775<555777777762177727a7y797y277777a777777779790AJQ8009900cas0c900s0achhc0aaa7",
"aaa7aaaa9aaaaaayaaawa3a3awaaaa3a28hZH31177y755557<7251557777711y721177727a77297177777a777777777670AA^800c0009saa0000c0a0sh0aaa77",
"aa7a7a7a7aaaja9yaaaawaaaaa3aaaaa77hVH311277227577171557557777777a271777777y7771957777y7a77a7777c70!ZC80c00as00aa000c90a0sssaca05",
"7a77aaaaaayayaaaa88w3awataawa3aa87VZA3<11912757227715525577a777777777770y7a7771777777777777y75777hAAA80880ca00s0cq0hh00iss009075",
"7aa7aa7qa7aaaay9aaaa43awaw84aaw424BVZ3<<5557717777y171711717777y7277777aaa77775575775575577a777ic0ACA00aa000900sssssjjssss00ia77",
"a792aadajy7ayaaaaaaawa4a4waaawaa10hlA4<<57e77772777511177277299277y7aakaa7777757755575555577a7aa88ZA!8a0acs0c00a00sqjjsscBk0ha05",
"6a2aaqaaa97aja7aa9a8<4aa4aaa4a3478s0Z411155777577777<7157777977yi77aayaay7777752755575575555777a90CJB808a00caaa00s0cjcssqcqhsa77",
"aaa722aaaaa7aa9yawaw14a4a4waaaaw61h)J42<515727777y55557<1727y79ya77aaaaaaa777117575255577552777a70JCA89ca080aaaai0hhhqshhBhhjaaa",
"7a727aaaa6a9a7aa6a98w4ywa3a4aaa426VZH67<555577a77y55751<1627776ka7iaaikkaaa77515555555777755775758ABh89a77ya9a00sqqBjscBjjhska95",
"7a7aaaaaay7y7aayaaywaa4a8waw4w4a76ZVh4715<5e5777y717551112177777a77aaa0aka772111557757757517727558QQA8707a9a9a00schhjjBBjssas0a5",
"9a6aa92ay67y7aagw89aa4a4a4awwa4w78VZB871<152577y701511111111i070ai7iai0k7a555555c4c277755557577574cQA897790asaackVc0hsBcc00aaaa5",
"7a2aaa2aaa6267a7ay99waaw8w43a8aw28VVV871<<55577y7y551111267272i7a77aaaaa775555555<<755777511557759qhA897779aaaasqs0hhsBh00aaaaa5",
"2a2aaqa7a7776aawwaaaa<w6aw44wa3378HVJ822,111777y272111<171770277777a7ya79221111<55177757a555557518BsC8977990s07sshshhsBhk99aaa77",
"676a9ay297622aq63aa6awa44awa4aaa76B00<1111112777s7777112<7177777a7577aay711411<351<777775555557524ABH108020kis700ksskslhhaaa7776",
"66277a97a77626agaaaaa6aaaa4aaaaw,8^JJ8;11142777777771717i7627777755a777y171<13115556777755545575<4ZBB84977B707890shsshhBkss97955",
"%OoOOO%%&&%+%%+%%%+%++++++++%%%@-VH^AH;O%%%*;=;;;****;**-----****%++++*-**%%+%%%%+**********---#;AZZVH;+=-*-=**%*;;:<5;;;;-*%+++",
"jjGjjqqjCGVqqjqCQhaahhGZahGhZChC9VVVGVsCCChH!BAAVAACBCCZBBZABZCZZCZCKQCCCChChChChh0hBCCBCZZCCqCBCCAAAJhAZBBZZ^AZZB^K_AH^^AZZ0900",
"q99GaQG~CqjjjqqqaGC(hhhaCajCCC!GHVAZVZABshhCZZhh^ZAQAACAAABBAZhAHChA_A!ZCB0qCq00hhA(ChCCZBZCA!QAqhH0BVAZZAQZCZZAZAhAAACHCB00hCB0",
"GGCjGqQ~~~~G~~G~G~(~(~~HQH~~)]`/J))/^^^J!~J///)(_)__)^)/()()^)(_K_hAZZHKKHHHHHSDAJAHKAJHJHHHK(HKAHJJ^HH^J^J^/K^JKH)___)))HSGGSAV",
"wgqQjjGgggrgrgrrtffgfgftdiggggggkkzlzzkpfpfggbbbbbbbbbbbkkbblkbbcACQZQAck2keikkeuseakkukiikiiiuukkkittkektikipktkkNNkcVkkkkkeke2",
"wr6jjaggggrgrgrrffffffftgPgggTMgggggggpfpffffgnnbbFbbbbbbkbblblbcjhAZqkkkiiekwk>uiuikuiuuuyuuiukkkeekkeeetkpktpppkbzzbzzkkktrrww",
"ww6jGggngggggrrrtfftfgfffPgfgggggPgggffpfffffgngbbbmbmbbblkkkbblBchCB0kkkikike>kuieuiic7uuyukiukk2kkttttekttitkppkkbMbzzkeekttww",
"rwajqagggggrgrrgftffffftupffMggTgTPgggffufffgfffzbbbbbbzbkzbbbbbschCC0kkkkeee22kiiiikukuceeuuuuukkkekeeeztppktkpkkzzkzkpkcetttew",
"wr6jQaggnggrrfrrttfffggffpfgMgggggTggTffpfppfpffzzmbkbblzdlklbzbkchHB0kkkeikkekekuyciuukupeeukupke2ktkkeevpptikkkzzbNkzzekktktwr",
"rraqj9gLgffffrrgftffffffffffgTgTTgTggTgffpffffffdzbblbzbzdzkbbkkiShHC0kkkeeiekkeuiekekuiiuuikkpktkitkeeeeeptppppzlzkpzkzptpttkew",
"wwqjqaggfgrrrfrfpttfffffffffgggggggggPggfpffffppgzzzkzllzllzlbdkik0AH9kkkikkk2k2ekiieuyciuukuuiukkkiekieptpptpkzkzzkzppppktkttee",
"rrajGaffgffgrfrftfffggfffggfgTgTggTggggffpfufppfgzlzlzzzllzzzzdkkk8hC7kikkeek2kkiyuuiiieicykiiukkkkkkttteppptppkpkzkkpkpktttttee",
"rw6GGwfgfffggrfrffffgfffffgfTgggTgTggPgffffpfffpdlzzzlbzkzlbbbzzkk0Ch0kkk2keek2kecikcuiiieuicukikiekkktiteeetttpkpkkkpkkkptktktt",
"rwajG9ggggfgffrffrggggfffffffgngYgggTgggffffffffffgEgggglzbdpzfpkk0BC0kkekekkk2k2kekekekkekekttikipkpkezeeetkeekkktkktkkpppkpptt",
"rr9GCqggrfrgfgfffrfgfgffftffgxgnggTgggfffffffftffggggggTbbbddkdzkk0Zh72kkeke2eeekee2kekeet2kiikkkpkkkpttketettekikpkpkkpkppkkpte",
"rrqQaaggfrfgfggfffffgggftfffgnngEggYgggfttfffgffggggggggzlzzfzkpkkaZZ0kek2ekekkee2ek2keek2ektkikkkpkkppptteeetetpptktkkktptttppe",
"rrajQaggfrrgrggffrffgggffttxgngngggggggftrfffgffgggggggEbzbpppdgti0AC0k2ekk2keeerkek2kkekeekeikkptkpkpketeeeektkiktpikktetppkkte",
"rr9C~gggrrggrgggrrgfffgffrffnngLggEggftftftfffffggbbgggmzdzdfdpgkk0Ah0kkkek2keekekk22kekeeketkkikpppptpetekreketktktktkttittppie",
"ww9Cj7ggffrgggrgrrrggrrfffffgngggYgggftfftffgfffgfbbggggzdbkzppdkiBCh0kkekkeeekekeekkek2keektiekkptktktteeekteeekztkktekeeeittke",
"rw2jj4rgfrfgtrrrrrfrrrgrffffggggggggfftgttffggfgffbbggmgblzpzdpdkp9ZH8kkke2e2e2k2kkeek2k2kk2itktppkkpppeee2eeeettvkteitteetktktt",
"ww3qj;wgfrfgLgrrrrrrrfrgftfggggnYggggftgffffgfgfgfgSgggmzzzdzpppp26AZ12kekeeckekekekeekekekkttpkkpkkpppteeeteeetteeteiieeetpttkt",
";3jGGC,-Ooo@.o......o...ooooo@o@@@@@@OoOoOoOOOO+@@@@#@@@@+OO%OOO*:hZCC:;+OOoooOOOOOOOOOOOOOOOOO+OO+#oOoXXXooXooXOoooOOOXOOOOOOOO",
"CCjqCjjGqqqjaqjGjajGjqCGgnGqG~GGQh~jyJhGshjZGGGhjACCV!hA!Hs9DChA0BAHBHAAJBAZBBhhBSZBVhHZBClBVHHAVAH^BB9lV99BGBBVBBhBBAHBBBBBAVVA",
"GGGCGjqCjjGqG6qjj6jqjGCjqG~jGGqGHG`jjGhGjHGGHjjjDCHjACZhVZZhCjhs^ZAVAZAhBVhh0hZHBAVh000BBhBAAABA^HAHHVAsZJJBVGVVZBAHZV9CA0VBBhVA",
"Gqqq6GqjQjGjCCjj6a6jq9jGGjjGajqGGj)HhZjajGQj!GHG!/VZHZqhsVHZCC(!ZVB0hHCZBBBZVHBZVhBsZGZ0!ZhhACBBVBZCABBA/0B0B0B00VhVHGVBZBhsAZVh",
"QQGGQQGQQQGQGQCGQGqCjQ~]GGG~~~~~]]]]]]]'(](]]]))!/(~hZQQA(!!()(~^^^^()_(HQ^Q^H^QA^CZVZVHZ!B(!(((^^^Q^QAAJHAAHAA!AQ^hB0CABCBQHQ(Q",
"jjjaqqajjqjjq9jjaajGqGQjj~bngggSgEgggEgggggggggggbbSG!(!ZZVlVGGJVVZSKDGVVlVVlBBlVSVHhBhCBZslBlVDBVBllsaa7Bsssdsak0BBHCVVhVBslhBV",
"jjjjjjyajdqjjqjjyajq9CjG9SSgnggngg`gggEgEggggggggbbbSGZZVVbVVDJVVVVVKZVVBVVVBlkGVVSV9sZV8VsslBVldBlBVs9isiksssasksiBB0Ch0BkBkBlB",
"jjGqjjjjjqdjjydjjjqg9GqjangnSggggYggEggggggggEggdzdgbShjlZVVSGGSDGVSSSSVlBllBsBVSVVVqCHC8sldVdlSslsllsssi000lBsd0BksBqhZ8lBB0Bhl",
"jjGjajajddqdqdjgqjqj9GQq6nnngnggEgggggggggggggggggjgJjCCjjGgjjJjGSVDSGVSjjjjjdjSVVSVhCZC8dhsVsVVshdjSssassdsdsdsssBsB0Ch0BlhsVVV",
"jjjjgjajqqdda9djgjyjqG~GagSgSnSggggEEgWgggggggggdgTDgjCjHHjEJ!jjGVVAGVDjjjjjdjjjSVVShjZh8ddslVlsddjVjdsddssssdssdlsll0CA0VVBVdhd",
"jGjjjqjjddqjajjajggjaaQj9ggngbgngggggEgggfggggggggJggjCCjJj~j~jJDVlGGDjjjjjjjjjGSVSZhCjj8djdlsVdsddjVgsasasdhdsdslBdl9ChqVlldhVd",
"gjjjjjjjjaajddjaqqjj6Q~Q9gGnnnggggYEgYgggggggggEgdggDjCjjjjJjjJjDVVVVSjSjjsdsdsSDVVS9QZA8sjjVslhssdjVsdsyddshdsdsBlsB0C^0BsBhdVs",
"GGjjjjjjjajjjjajdjjj6qjjqggbbgnggEgg`gEggggggggggggggjGCjj~jJjjjZVVVSDjjjsdsjjdjSVVV0ZBA9sdjjsVdssdCjssaasdsdssssllss9BCqjjjddVj",
"jjGjjjjjjjjjjjjjjjjq9GGq9gSbSnSggggEgggggggggEggjgggjgjjjjjjjGj~ZSVVVVjjjjjddsjjVVVl0Bs09ssjjjlddssSddsyassssjssssdss0CCqjjjjhjj",
"gGjjjjjjjjjjjjjjgjjj9j9j9ggbgnFggggTgggggggggggggmgjjjjjjjjjjjjjVVlVlVVjjjjsjdsjVslV99sB8jsjddVVsdsdadsayadsdssdassss0AZqjjjjdjj",
"jjGjjjjjjjjGjjjjjjjj9GGG9ggngEggggggEgEgggggggggggggghhjjJjjDjjGVSVdVdjSjjssjjsdVdVV9CBh8sdjjsdssdssssyaysaasdhssddss9AC9jVjjhjj",
"jjVjjjjgjjjjjjjjjjjj9jGG9ggSnggggiggEgggggfggdggjmDgDEDhjjjjjjjjjjjjJjjjjjjssssdjdjd0BZB8sslVshldjsdsd7yyasassdjsddiaqCQqhjssjjV",
"jVjjqjqjjjjjjgjjjjjj9CQq9SggSggggggggggEggfdgdgggggmjjhjJjJjjjjjjGjGjjjjjjjjdssjVjhV8ChZ8shsddssldsssds7aasssdsjjssss0ZZqjjssjjV",
"jVjjjjjjjjjjjjjjjjGj9CGGaSgSgggggggggEggggfggdggDjEjjjhjjjDjjjjjDjjjjjjjjjsdsjssssdV0ZVh4sdsssssSdsdaiaiyyssssdsdssss0Bhqjhjhdjj",
"VVjjaajajjGjjjjjjjjj9qCC9ggggggggEggggjgjgpgpgpfggggmjhhjjjjjjjjGjgjjjjjgjjssdssdVsV9ZCs4asssddsbssssassssysdsdjjssss0hBqjjjjjss",
"jjjqjjagjjqjjjjjyjjj8jCj6nggggggggggggggggggfddfgmggghhajjjjjjjhjjjjjjjjjjjhsddjBslV60BZ4sdsslhhbsdsssissisddsdVdssds8CB9jjjjhsd",
"jjjjaaqjjqjjajjjjjj28~GG6rGgggggggggEjggggdgffppgjgjja44hhjjjhdhjgjjjhjjjdjhssjdlVB78BBB47lsssddbdhhsyssssssjssjjsss58!!89Chsjsh",
"3;,-&&&&%%++ooO+OO;4~jQGG4;ooooooOOO+O+@OOOOXXX+@#++4hZh3#+O+O+X+##+#+O+OOXXOO%%**%:AsABC-%--;;-;--;-%&=**-;-;--;-;%4hhAA3%-&-;%",
"jqqqq6qqGqjCCGCGC~CGqjCjjjqjjqGjhhd!hjjhjha567hhj!!Q(j9ZhAQhhshjaasjhhhZAhhhqqahZCqBBABVBhqCqCQZqBhChhhZQChCChhCAhhChZ!!!hChChh9"
};
