/* XPM */
static char *ac4e367c31ea4200a62aa1dfce732c58NbuGHxCKfmb3RsbZ[] = {
/* columns rows colors chars-per-pixel */
"128 128 14 1 ",
"  c #000000",
". c #080808",
"X c #0a0a0a",
"o c #0D0D0A",
"O c #0C0C0B",
"+ c #110E0D",
"@ c #11100D",
"# c #11110D",
"$ c #16140C",
"% c #171912",
"& c #181B13",
"* c #25231C",
"= c #333423",
"- c #464929",
/* pixels */
"                                                                                                                                ",
"                                                                                                                                ",
"**************************&&**&&********************&&**&&&&&&..  ****************************************************&&**&&****",
"**************************&&**&&********************&&**&&&&&&..  ****************************************************&&**&&****",
"&&&&&&&&&&&&&&&&&&&&&&&&&&&&&&&&&&&&&&&&&&&&&&&&&&&&&&&&&&&&&&..  **&&&&&&&&&&&&&&&&&&&&&&&&&&&&&&&&&&&&&&&&&&&&&&&&&&&&&&&&&&&&",
"&&&&&&&&&&&&&&&&&&&&&&&&&&&&&&&&&&&&&&&&&&&&&&&&&&&&&&&&&&&&&&..  **&&&&&&&&&&&&&&&&&&&&&&&&&&&&&&&&&&&&&&&&&&&&&&&&&&&&&&&&&&&&",
"&&&&&&&&&&&&&&&&&&&&&&&&&&&&&&&&&&&&&&&&&&&&&&&&&&&&&&&&&&&&&&..  **&&&&&&&&&&&&&&&&&&&&&&&&&&&&&&&&&&&&&&&&&&&&&&&&&&&&&&&&&&&&",
"&&&&&&&&&&&&&&&&&&&&&&&&&&&&&&&&&&&&&&&&&&&&&&&&&&&&&&&&&&&&&&..  **&&&&&&&&&&&&&&&&&&&&&&&&&&&&&&&&&&&&&&&&&&&&&&&&&&&&&&&&&&&&",
"&&&&&&&&&&&&&&&&&&&&&&&&&&&&&&&&&&&&&&&&&&&&&&&&&&$$--**&&&&&&..  **&&$$--**&&&&&&&&&&&&&&&&&&&&&&&&&&&&&&&&&&&&&&&&&&&&&&&&&&&&",
"&&&&&&&&&&&&&&&&&&&&&&&&&&&&&&&&&&&&&&&&&&&&&&&&&&$$--**&&&&&&..  **&&$$--**&&&&&&&&&&&&&&&&&&&&&&&&&&&&&&&&&&&&&&&&&&&&&&&&&&&&",
"&&&&&&&&&&&&&&&&&&&&&&&&&&&&&&&&&&&&&&&&&&&&&&&&&&$$****&&&&&&..  **&&$$****&&&&&&&&&&&&&&&&&&&&&&&&&&&&&&&&&&&&&&&&&&&&&&&&&&&&",
"&&&&&&&&&&&&&&&&&&&&&&&&&&&&&&&&&&&&&&&&&&&&&&&&&&$$****&&&&&&..  **&&$$****&&&&&&&&&&&&&&&&&&&&&&&&&&&&&&&&&&&&&&&&&&&&&&&&&&&&",
"&&&&&&&&&&&&&&&&&&&&&&&&&&&&&&&&&&&&&&&&&&&&&&&&&&$$$$&&&&&&&&..  **&&$$$$&&&&&&&&&&&&&&&&&&&&&&&&&&&&&&&&&&&&&&&&&&&&&&&&&&&&&&",
"&&&&&&&&&&&&&&&&&&&&&&&&&&&&&&&&&&&&&&&&&&&&&&&&&&$$$$&&&&&&&&..  **&&$$$$&&&&&&&&&&&&&&&&&&&&&&&&&&&&&&&&&&&&&&&&&&&&&&&&&&&&&&",
"&&&&&&&&&&&&&&&&&&&&&&&&&&&&&&&&&&&&&&&&&&&&&&&&&&&&&&&&&&&&&&..  **&&&&&&&&&&&&&&&&&&&&&&&&&&&&&&&&&&&&&&&&&&&&&&&&&&&&&&&&&&&&",
"&&&&&&&&&&&&&&&&&&&&&&&&&&&&&&&&&&&&&&&&&&&&&&&&&&&&&&&&&&&&&&..  **&&&&&&&&&&&&&&&&&&&&&&&&&&&&&&&&&&&&&&&&&&&&&&&&&&&&&&&&&&&&",
"**************************************************************++..--************************************************************",
"**************************************************************++..--************************************************************",
"&&&&&&&&&&&&&&&&&&&&&&&&&&&&&&&&&&&&&&&&&&&&&&&&&&&&&&&&&&&&&&..  **&&&&&&&&&&&&&&&&&&&&&&&&&&&&&&&&&&&&&&&&&&&&&&&&&&&&&&&&&&&&",
"&&&&&&&&&&&&&&&&&&&&&&&&&&&&&&&&&&&&&&&&&&&&&&&&&&&&&&&&&&&&&&..  **&&&&&&&&&&&&&&&&&&&&&&&&&&&&&&&&&&&&&&&&&&&&&&&&&&&&&&&&&&&&",
"**************************************************************++..--************************************************************",
"**************************************************************++..--************************************************************",
"**************************************************************..  --************************************************************",
"**************************************************************..  --************************************************************",
"**************************************************************++..--************************************************************",
"**************************************************************++..--************************************************************",
"**************************************************************++..--************************************************************",
"**************************************************************++..--************************************************************",
"**************************************************************++..--************************************************************",
"**************************************************************++..--************************************************************",
"**************************************************************++..--************************************************************",
"**************************************************************++..--************************************************************",
"**************************************************************++..--************************************************************",
"**************************************************************++..--************************************************************",
"**************************************************************....--************************************************************",
"**************************************************************....--************************************************************",
"**************************************************************++..--************************************************************",
"**************************************************************++..--************************************************************",
"**************************************************************....--************************************************************",
"**************************************************************....--************************************************************",
"**************************************************************++..--************************************************************",
"**************************************************************++..--************************************************************",
"**************************************************************....--************************************************************",
"**************************************************************....--************************************************************",
"**************************************************************++..--************************************************************",
"**************************************************************++..--************************************************************",
"**************************************************************....--************************************************************",
"**************************************************************....--************************************************************",
"**************************************************************....--************************************************************",
"**************************************************************....--************************************************************",
"**************************************************************....--************************************************************",
"**************************************************************....--************************************************************",
"**************************************************************....--************************************************************",
"**************************************************************....--************************************************************",
"**************************************************************....--************************************************************",
"**************************************************************....--************************************************************",
"**************************************************************....--************************************************************",
"**************************************************************....--************************************************************",
"**************************************************************....--************************************************************",
"**************************************************************....--************************************************************",
"**************************************************************....--************************************************************",
"**************************************************************....--************************************************************",
"**************************************************************..++--************************************************************",
"**************************************************************..++--************************************************************",
"**************************************************************++..--************************************************************",
"**************************************************************++..--************************************************************",
"**************************************************************..++==************************************************************",
"**************************************************************..++==************************************************************",
"**************************************************************++..--************************************************************",
"**************************************************************++..--************************************************************",
"**************************************************************..++==************************************************************",
"**************************************************************..++==************************************************************",
"**************************************************************++++--************************************************************",
"**************************************************************++++--************************************************************",
"**************************************************************..++==************************************************************",
"**************************************************************..++==************************************************************",
"**************************************************************++++==************************************************************",
"**************************************************************+#++==************************************************************",
"**************************************************************..++==************************************************************",
"**************************************************************..++==************************************************************",
"**************************************************************..OO==************************************************************",
"**************************************************************..OO==************************************************************",
"**************************************************************..++==************************************************************",
"**************************************************************..++==************************************************************",
"**************************************************************..OO**************************************************************",
"**************************************************************..OO**************************************************************",
"**************************************************************..++==************************************************************",
"**************************************************************..++==************************************************************",
"**************************************************************..OO**************************************************************",
"**************************************************************..OO**************************************************************",
"**************************************************************....==************************************************************",
"**************************************************************....==************************************************************",
"**************************************************************..OO**************************************************************",
"**************************************************************..OO**************************************************************",
"**************************************************************....**************************************************************",
"**************************************************************....**************************************************************",
"**************************************************************....**************************************************************",
"**************************************************************....**************************************************************",
"**************************************************$$--&&******....****$$--&&****************************************************",
"**************************************************$$--&&******....****$$--&&****************************************************",
"**************************************************$$&&&&******....****$$&&&&****************************************************",
"**************************************************$$&&&&******....****$$&&&&****************************************************",
"**************************************************$$$$********....****$$$$******************************************************",
"**************************************************$$$$********....****$$$$******************************************************",
"**************************************************************..OO**************************************************************",
"**************************************************************..OO**************************************************************",
"========================================================**==**....**==**==============**==**==**======**==**==**==**============",
"========================================================**==**....**==**==============**==**==**======**==**==**==**============",
"                                                              ..OO..                                                            ",
"                                                              ..OO..                                                            ",
"OO    OOOO..  OOOO    OOOO..  OOOO    OOOO..  OOOO    OOOO..  OOOO    OOOO..  OOOO    OOOO..  OOOO    OOOO..  OOOO    OOOO..  OO",
"OO    OOOO..  OOOO    OOOO..  OOOO    OOOO..  OOOO    OOOO..  OOOO    OOOO..  OOOO    OOOO..  OXOO    OOOO..  OOOO    OOOO..  OO",
"%%%&%%&$%%%%%%%%%%##%%%%%%%%##%%##%%##&%##%%############%%##%&##&%+#%%%%%%%%%%%%%%%%%%%%%%%%%%%%%%%&%%&$%%%%%%%%%%##%%%%%%%%##%%",
"%%%&%%&&%%%%%%%$%%##%%%%%%%%##%%#$%%##&$##%%############%%#$%$##&%##%%%%%%%%%%%%%%%%%%%%%%%%%%%%%%%&%%&&%%%%%%%$%%##%%%%%%%%##%%",
"OOooXoooooooOOooXXOOooooooooooooooooOoooooOoooooooXXooooOoooOOooXXOOooooooooooooXXoOooooooooooooXXooXXooooooOOooXXOOoooooooooooo",
"ooooooooooooooooXOOOooooooooooooooooooooooooooooooXXoooooooooOooXooOooooooooooooXXoOooooooooooooXXoXXXooooooooooXOOOoooooooooooo",
"ooXXooooooooooXXooooooooooooooooooooooOOooooooXXXXooOooooooooooooooooooooooooo#++###oooOooooooooOoXXooooooooooXXoooooooooooooooo",
"ooXXooooooooooXXoooooooooooooooooooooOOOooooooXXXXooOOoooooooooooooooooooooooo####+#oooOooooooooOoXXooooooooooXXoooooooooooooooo",
"XXoooo&&..oooooooooooo%%XXoooooooooooo%%X.OoooXXoooo##%&..oooooooooooo%%X.oo##oo##oooo%%X.ooooooXXoooo&&..oooooooooooo%%XXoooooo",
"XXoooO%$.Xoooooooooooo%%..oooooooooooo%%..ooooXXoooo##%$.Xoooooooooooo%%..oo++oo##oooo%&..ooooooXXoooO%$.Xoooooooooooo%%..oooooo",
"ooooXX  ..ooooooooO#O.  ..ooooooooooXX  .XooXXoOXXooXX  ..ooooXXooO#O.  ..oooo+#ooooXX  ..ooooXXooooXX  ..ooooooooO#O.  ..ooooXX",
"ooooXX  ..oooooooooO..  ..ooooooooooXX  .XooXOoOXXooXX  ..ooooXXoooO..  ..oooo+#ooooXX  ..ooooXXooooXX  ..oooooooooO..  ..ooooXX",
"XXooXXXXooooooooooOOOOXXooooooooooooXXXXooooooXXooooXXXX##ooooooooOOOOXXoooo+#ooooooXXXXooooXXXXooooXXXXooooooooooOOOOXXooooXXoo",
"XXooXXXXooooooooooOOO.XXooooooooooooXXXXooooooXOooooXXXX##o+ooooooOOO.XXoooo##ooooooXXXXooooXXXXooooXXXXooooooooooOOO.XXooooXXoo",
"oooooooooooooooooooooooooooooooooooooooooooo.OOooo+OOo##+#OOooOOoooooooooo#+ooooooooooooooooXXooooooooooooooooooooooooooooXXooXX",
"ooooooooooooooooooooooooooooooooooooooooooooO.OOoooOOo####OOoOOOoooooooooo##ooooooooooooooooXXooooooooooooooooooooooooooooXXooXX",
"..XXXXXXXXXXXX..XXXXXX..............XX..XX..  ..  ..        XX  ..XX............XX..XX....XX..XX..XXXXXXXXXXXX..XXXXXX..........",
"..XXXXXXXXXXXX..XX..XX..............XX..XX..  ..  ..        ..  ................XX..XX....XX..XX..XXXXXXXXXXXX..XX..XX.........."
};
