/* XPM */
static char *e269ac37c77b42badb5e92b757c4efebFRaO3rJrbR0oJrtb[] = {
/* columns rows colors chars-per-pixel */
"128 128 14 1 ",
"  c #000000",
". c #141413",
"X c #181817",
"o c #1E1E17",
"O c #1C1C1B",
"+ c #28221F",
"@ c #28261F",
"# c #28271F",
"$ c #322E1D",
"% c #353929",
"& c #373C2C",
"* c #4F4C3F",
"= c #66684C",
"- c #818556",
/* pixels */
"                                                                                                                                ",
"                                                                                                                                ",
"**************************&&**&&********************&&**&&&&&&..  ****************************************************&&**&&****",
"**************************&&**&&********************&&**&&&&&&..  ****************************************************&&**&&****",
"&&&&&&&&&&&&&&&&&&&&&&&&&&&&&&&&&&&&&&&&&&&&&&&&&&&&&&&&&&&&&&..  **&&&&&&&&&&&&&&&&&&&&&&&&&&&&&&&&&&&&&&&&&&&&&&&&&&&&&&&&&&&&",
"&&&&&&&&&&&&&&&&&&&&&&&&&&&&&&&&&&&&&&&&&&&&&&&&&&&&&&&&&&&&&&..  **&&&&&&&&&&&&&&&&&&&&&&&&&&&&&&&&&&&&&&&&&&&&&&&&&&&&&&&&&&&&",
"&&&&&&&&&&&&&&&&&&&&&&&&&&&&&&&&&&&&&&&&&&&&&&&&&&&&&&&&&&&&&&..  **&&&&&&&&&&&&&&&&&&&&&&&&&&&&&&&&&&&&&&&&&&&&&&&&&&&&&&&&&&&&",
"&&&&&&&&&&&&&&&&&&&&&&&&&&&&&&&&&&&&&&&&&&&&&&&&&&&&&&&&&&&&&&..  **&&&&&&&&&&&&&&&&&&&&&&&&&&&&&&&&&&&&&&&&&&&&&&&&&&&&&&&&&&&&",
"&&&&&&&&&&&&&&&&&&&&&&&&&&&&&&&&&&&&&&&&&&&&&&&&&&$$--**&&&&&&..  **&&$$--**&&&&&&&&&&&&&&&&&&&&&&&&&&&&&&&&&&&&&&&&&&&&&&&&&&&&",
"&&&&&&&&&&&&&&&&&&&&&&&&&&&&&&&&&&&&&&&&&&&&&&&&&&$$--**&&&&&&..  **&&$$--**&&&&&&&&&&&&&&&&&&&&&&&&&&&&&&&&&&&&&&&&&&&&&&&&&&&&",
"&&&&&&&&&&&&&&&&&&&&&&&&&&&&&&&&&&&&&&&&&&&&&&&&&&$$****&&&&&&..  **&&$$****&&&&&&&&&&&&&&&&&&&&&&&&&&&&&&&&&&&&&&&&&&&&&&&&&&&&",
"&&&&&&&&&&&&&&&&&&&&&&&&&&&&&&&&&&&&&&&&&&&&&&&&&&$$****&&&&&&..  **&&$$****&&&&&&&&&&&&&&&&&&&&&&&&&&&&&&&&&&&&&&&&&&&&&&&&&&&&",
"&&&&&&&&&&&&&&&&&&&&&&&&&&&&&&&&&&&&&&&&&&&&&&&&&&$$$$&&&&&&&&..  **&&$$$$&&&&&&&&&&&&&&&&&&&&&&&&&&&&&&&&&&&&&&&&&&&&&&&&&&&&&&",
"&&&&&&&&&&&&&&&&&&&&&&&&&&&&&&&&&&&&&&&&&&&&&&&&&&$$$$&&&&&&&&..  **&&$$$$&&&&&&&&&&&&&&&&&&&&&&&&&&&&&&&&&&&&&&&&&&&&&&&&&&&&&&",
"&&&&&&&&&&&&&&&&&&&&&&&&&&&&&&&&&&&&&&&&&&&&&&&&&&&&&&&&&&&&&&..  **&&&&&&&&&&&&&&&&&&&&&&&&&&&&&&&&&&&&&&&&&&&&&&&&&&&&&&&&&&&&",
"&&&&&&&&&&&&&&&&&&&&&&&&&&&&&&&&&&&&&&&&&&&&&&&&&&&&&&&&&&&&&&..  **&&&&&&&&&&&&&&&&&&&&&&&&&&&&&&&&&&&&&&&&&&&&&&&&&&&&&&&&&&&&",
"**************************************************************++..--************************************************************",
"**************************************************************++..--************************************************************",
"&&&&&&&&&&&&&&&&&&&&&&&&&&&&&&&&&&&&&&&&&&&&&&&&&&&&&&&&&&&&&&..  **&&&&&&&&&&&&&&&&&&&&&&&&&&&&&&&&&&&&&&&&&&&&&&&&&&&&&&&&&&&&",
"&&&&&&&&&&&&&&&&&&&&&&&&&&&&&&&&&&&&&&&&&&&&&&&&&&&&&&&&&&&&&&..  **&&&&&&&&&&&&&&&&&&&&&&&&&&&&&&&&&&&&&&&&&&&&&&&&&&&&&&&&&&&&",
"**************************************************************++..--************************************************************",
"**************************************************************++..--************************************************************",
"**************************************************************..  --************************************************************",
"**************************************************************..  --************************************************************",
"**************************************************************++..--************************************************************",
"**************************************************************++..--************************************************************",
"**************************************************************++..--************************************************************",
"**************************************************************++..--************************************************************",
"**************************************************************++..--************************************************************",
"**************************************************************++..--************************************************************",
"**************************************************************++..--************************************************************",
"**************************************************************++..--************************************************************",
"**************************************************************++..--************************************************************",
"**************************************************************++..--************************************************************",
"**************************************************************....--************************************************************",
"**************************************************************....--************************************************************",
"**************************************************************++..--************************************************************",
"**************************************************************++..--************************************************************",
"**************************************************************....--************************************************************",
"**************************************************************....--************************************************************",
"**************************************************************++..--************************************************************",
"**************************************************************++..--************************************************************",
"**************************************************************....--************************************************************",
"**************************************************************....--************************************************************",
"**************************************************************++..--************************************************************",
"**************************************************************++..--************************************************************",
"**************************************************************....--************************************************************",
"**************************************************************....--************************************************************",
"**************************************************************....--************************************************************",
"**************************************************************....--************************************************************",
"**************************************************************....--************************************************************",
"**************************************************************....--************************************************************",
"**************************************************************....--************************************************************",
"**************************************************************....--************************************************************",
"**************************************************************....--************************************************************",
"**************************************************************....--************************************************************",
"**************************************************************....--************************************************************",
"**************************************************************....--************************************************************",
"**************************************************************....--************************************************************",
"**************************************************************....--************************************************************",
"**************************************************************....--************************************************************",
"**************************************************************....--************************************************************",
"**************************************************************..++--************************************************************",
"**************************************************************..++--************************************************************",
"**************************************************************++..--************************************************************",
"**************************************************************++..--************************************************************",
"**************************************************************..++==************************************************************",
"**************************************************************..++==************************************************************",
"**************************************************************++..--************************************************************",
"**************************************************************++..--************************************************************",
"**************************************************************..++==************************************************************",
"**************************************************************..++==************************************************************",
"**************************************************************++++--************************************************************",
"**************************************************************++++--************************************************************",
"**************************************************************..++==************************************************************",
"**************************************************************..++==************************************************************",
"**************************************************************++++==************************************************************",
"**************************************************************++++==************************************************************",
"**************************************************************..++==************************************************************",
"**************************************************************..++==************************************************************",
"**************************************************************..OO==************************************************************",
"**************************************************************..OO==************************************************************",
"**************************************************************..++==************************************************************",
"**************************************************************..++==************************************************************",
"**************************************************************..OO**************************************************************",
"**************************************************************..OO**************************************************************",
"**************************************************************..++==************************************************************",
"**************************************************************..++==************************************************************",
"**************************************************************..OO**************************************************************",
"**************************************************************..OO**************************************************************",
"**************************************************************....==************************************************************",
"**************************************************************....==************************************************************",
"**************************************************************..OO**************************************************************",
"**************************************************************..OO**************************************************************",
"**************************************************************....**************************************************************",
"**************************************************************....**************************************************************",
"**************************************************************....**************************************************************",
"**************************************************************....**************************************************************",
"**************************************************$$--&&******....****$$--&&****************************************************",
"**************************************************$$--&&******....****$$--&&****************************************************",
"**************************************************$$&&&&******....****$$&&&&****************************************************",
"**************************************************$$&&&&******....****$$&&&&****************************************************",
"**************************************************$$$$********....****$$$$******************************************************",
"**************************************************$$$$********....****$$$$******************************************************",
"**************************************************************..OO**************************************************************",
"**************************************************************..OO**************************************************************",
"========================================================**==**....**==**==============**==**==**======**==**==**==**============",
"========================================================**==**....**==**==============**==**==**======**==**==**==**============",
"                                                              ..OO..                                                            ",
"                                                              ..OO..                                                            ",
"OO    OOOO..  OOOO    OOOO..  OOOO    OOOO..  OOOO    OOOO..  OOOO    OOOO..  OOOO    OOOO..  OOOO    OOOO..  OOOO    OOOO..  OO",
"OO    OOOO..  OOOO    OOOO..  OOOO    OOOO..  OOOO    OOOO..  OOOO    OOOO..  OOOO    OOOO..  OOOO    OOOO..  OOOO    OOOO..  OO",
"%%%%%%%%%%%%%%%%%%##%%%%%%%%##%%##%%##%%##%%############%%##%%##%%##%%%%%%%%%%%%%%%%%%%%%%%%%%%%%%%%%%%%%%%%%%%%%%##%%%%%%%%##%%",
"%%%%%%%%%%%%%%%%%%##%%%%%%%%##%%##%%##%%##%%############%%##%%##%%##%%%%%%%%%%%%%%%%%%%%%%%%%%%%%%%%%%%%%%%%%%%%%%##%%%%%%%%##%%",
"ooooooooooooooooXXooooooooooooooooooooooooooooooooXXooooooooooooXXooooooooooooooXXooooooooooooooXXooXXooooooooooXXoooooooooooooo",
"ooooooooooooooooXXooooooooooooooooooooooooooooooooXXooooooooooooXXooooooooooooooXXooooooooooooooXXooXXooooooooooXXoooooooooooooo",
"ooXXooooooooooXXooooooooooooooooooooooooooooooXXXXoooooooooooooooooooooooooooo######ooooooooooooooXXooooooooooXXoooooooooooooooo",
"ooXXooooooooooXXooooooooooooooooooooooooooooooXXXXoooooooooooooooooooooooooooo##+##+ooooooooooooooXXooooooooooXXoooooooooooooooo",
"XXoooo%%..oooooooooooo%%..oooooooooooo%%..ooooXXoooo+#%%..oooooooooooo%%..oo#+oo##oooo%%..ooooooXXoooo%%..oooooooooooo%%..oooooo",
"XXoooo%%..oooooooooooo%%..oooooooooooo%%..ooooXXoooo##%%..oooooooooooo%%..oo##oo##oooo%%..ooooooXXoooo%%..oooooooooooo%%..oooooo",
"ooooXX  ..ooooooooooXX  ..ooooooooooXX  ..ooXXooXXooXX  ..ooooXXooooXX  ..oooo##ooooXX  ..ooooXXooooXX  ..ooooooooooXX  ..ooooXX",
"ooooXX  ..ooooooooooXX  ..ooooooooooXX  ..ooXXooXXooXX  ..ooooXXooooXX  ..oooo#+ooooXX  ..ooooXXooooXX  ..ooooooooooXX  ..ooooXX",
"XXooXXXXooooooooooooXXXXooooooooooooXXXXooooooXXooooXXXX##ooooooooooXXXXoooo##ooooooXXXXooooXXXXooooXXXXooooooooooooXXXXooooXXoo",
"XXooXXXXooooooooooooXXXXooooooooooooXXXXooooooXXooooXXXX+#ooooooooooXXXXoooo+#ooooooXXXXooooXXXXooooXXXXooooooooooooXXXXooooXXoo",
"ooooooooooooooooooooooooooooooooooooooooooooXXoooooooo####oooooooooooooooo##ooooooooooooooooXXooooooooooooooooooooooooooooXXooXX",
"ooooooooooooooooooooooooooooooooooooooooooooXXoooooooo####oooooooooooooooo##ooooooooooooooooXXooooooooooooooooooooooooooooXXooXX",
"..XXXXXXXXXXXX..XX..XX..............XX..XX..  ..  ..        ..  ................XX..XX....XX..XX..XXXXXXXXXXXX..XX..XX..........",
"..XXXXXXXXXXXX..XX..XX..............XX..XX..  ..  ..        ..  ................XX..XX....XX..XX..XXXXXXXXXXXX..XX..XX.........."
};
